<?xml version="1.0" encoding="UTF-8"?>
<!DOCTYPE svg PUBLIC "-//W3C//DTD SVG 1.1//EN" "http://www.w3.org/Graphics/SVG/1.1/DTD/svg11.dtd">
<svg version="1.1" xmlns="http://www.w3.org/2000/svg" xmlns:xlink="http://www.w3.org/1999/xlink" x="0" y="0" width="400" height="400" viewBox="0, 0, 400, 400">
  <g id="Layer_1">
    <g>
      <path d="M292.954,1.562 C295.582,1.307 297.867,1.865 300.251,2.823 C305.316,5.11 308.212,9.753 308.672,14.678 C309.029,18.497 308.213,21.04 306.608,24.341 C305.364,26.899 303.721,29.584 299.995,35.368 C288.897,52.596 285.025,58.881 278.736,70.662 C266.1,95.085 255.001,121.435 252.831,149.169 C280.603,146.758 306.847,136.009 331.338,123.264 C343.119,116.975 349.404,113.103 366.632,102.005 C372.416,98.279 375.101,96.636 377.659,95.392 C380.96,93.787 383.503,92.971 387.322,93.328 C392.247,93.788 396.89,96.684 399.177,101.749 C400.736,105.202 400.755,108.312 400.068,111.333 L397.607,122.162 L391.561,122.162 C389.37,127.268 388.161,132.726 387.027,138.144 C383.765,154.454 381.864,176.927 381.864,201 C381.864,225.073 383.765,247.546 387.027,263.856 C388.19,269.26 389.328,274.752 391.561,279.838 L397.607,279.838 L400.068,290.667 C400.755,293.688 400.736,296.798 399.177,300.251 C396.89,305.316 392.247,308.212 387.322,308.672 C383.503,309.029 380.96,308.213 377.659,306.608 C375.101,305.364 372.416,303.721 366.632,299.995 C349.404,288.897 343.119,285.025 331.338,278.736 C306.915,266.1 280.565,255.001 252.831,252.831 C255.242,280.603 265.991,306.847 278.736,331.338 C285.025,343.119 288.897,349.404 299.995,366.632 C303.721,372.416 305.364,375.101 306.608,377.659 C308.213,380.96 309.029,383.503 308.672,387.322 C308.212,392.247 305.316,396.89 300.251,399.177 C296.798,400.736 293.688,400.755 290.667,400.068 L279.838,397.607 L279.838,391.561 C274.732,389.37 269.274,388.161 263.856,387.027 C247.546,383.765 225.073,381.864 201,381.864 C176.927,381.864 154.454,383.765 138.144,387.027 C132.74,388.19 127.248,389.328 122.162,391.561 L122.162,397.607 L111.333,400.068 C108.312,400.755 105.202,400.736 101.749,399.177 C96.684,396.89 93.788,392.247 93.328,387.322 C92.971,383.503 93.787,380.96 95.392,377.659 C96.636,375.101 98.279,372.416 102.005,366.632 C113.103,349.404 116.975,343.119 123.264,331.338 C135.899,306.915 146.999,280.565 149.169,252.831 C121.397,255.242 95.153,265.991 70.662,278.736 C58.881,285.025 52.596,288.897 35.368,299.995 C29.584,303.721 26.899,305.364 24.341,306.608 C21.04,308.213 18.497,309.029 14.678,308.672 C9.753,308.212 5.11,305.316 2.823,300.251 C1.264,296.798 1.245,293.688 1.932,290.667 L4.393,279.838 L10.439,279.838 C12.63,274.732 13.839,269.274 14.973,263.856 C18.235,247.546 20.136,225.073 20.136,201 L20.048,192.056 C19.669,173.993 18.354,155.91 14.973,138.144 C13.81,132.74 12.672,127.248 10.439,122.162 L4.393,122.162 L1.932,111.333 C1.245,108.312 1.264,105.202 2.823,101.749 C5.11,96.684 9.753,93.788 14.678,93.328 C18.497,92.971 21.04,93.787 24.341,95.392 C26.899,96.636 29.584,98.279 35.368,102.005 C52.596,113.103 58.881,116.975 70.662,123.264 C95.085,135.899 121.435,146.999 149.169,149.169 C146.758,121.397 136.009,95.153 123.264,70.662 C116.975,58.881 113.103,52.596 102.005,35.368 C98.279,29.584 96.636,26.899 95.392,24.341 C93.787,21.04 92.971,18.497 93.328,14.678 C93.788,9.753 96.684,5.11 101.749,2.823 C105.202,1.264 108.312,1.245 111.333,1.932 L122.162,4.393 L122.162,10.439 C127.268,12.63 132.726,13.839 138.144,14.973 C154.454,18.235 176.927,20.136 201,20.136 C225.073,20.136 247.546,18.235 263.856,14.973 C269.259,13.81 274.752,12.672 279.838,10.439 L279.838,4.393 L290.667,1.932 L292.954,1.562 z M262.036,43.548 C241.878,46.947 221.404,47.759 201,47.961 C180.595,47.877 160.121,46.87 139.964,43.548 C142.728,48.133 145.28,52.842 147.811,57.558 C166.747,93.031 177.812,128.138 177.812,163.9 L177.812,177.812 L163.9,177.812 C128.138,177.812 93.031,166.747 57.558,147.811 C52.838,145.287 48.14,142.715 43.548,139.964 C46.947,160.122 47.759,180.596 47.961,201 L47.866,210.592 C47.478,227.804 46.349,245.036 43.548,262.036 C48.133,259.272 52.842,256.72 57.558,254.189 C93.031,235.253 128.138,224.188 163.9,224.188 L177.812,224.188 L177.812,238.1 C177.812,273.862 166.747,308.969 147.811,344.441 C145.287,349.162 142.715,353.86 139.964,358.452 C160.122,355.053 180.596,354.241 201,354.038 C221.405,354.123 241.879,355.13 262.036,358.452 C259.272,353.867 256.72,349.158 254.189,344.441 C235.253,308.969 224.188,273.862 224.188,238.1 L224.188,224.188 L238.1,224.188 C273.862,224.188 308.969,235.253 344.441,254.189 C349.162,256.713 353.86,259.285 358.452,262.036 C355.053,241.878 354.241,221.404 354.039,201 C354.123,180.595 355.13,160.121 358.452,139.964 C353.867,142.728 349.158,145.28 344.441,147.811 C308.969,166.747 273.862,177.812 238.1,177.812 L224.188,177.812 L224.188,163.9 C224.188,128.138 235.253,93.031 254.189,57.558 C256.713,52.838 259.285,48.14 262.036,43.548 z" fill="#FF0000"/>
      <path d="M292.954,1.562 C295.582,1.307 297.867,1.865 300.251,2.823 C305.316,5.11 308.212,9.753 308.672,14.678 C309.029,18.497 308.213,21.04 306.608,24.341 C305.364,26.899 303.721,29.584 299.995,35.368 C288.897,52.596 285.025,58.881 278.736,70.662 C266.1,95.085 255.001,121.435 252.831,149.169 C280.603,146.758 306.847,136.009 331.338,123.264 C343.119,116.975 349.404,113.103 366.632,102.005 C372.416,98.279 375.101,96.636 377.659,95.392 C380.96,93.787 383.503,92.971 387.322,93.328 C392.247,93.788 396.89,96.684 399.177,101.749 C400.736,105.202 400.755,108.312 400.068,111.333 L397.607,122.162 L391.561,122.162 C389.37,127.268 388.161,132.726 387.027,138.144 C383.765,154.454 381.864,176.927 381.864,201 C381.864,225.073 383.765,247.546 387.027,263.856 C388.19,269.26 389.328,274.752 391.561,279.838 L397.607,279.838 L400.068,290.667 C400.755,293.688 400.736,296.798 399.177,300.251 C396.89,305.316 392.247,308.212 387.322,308.672 C383.503,309.029 380.96,308.213 377.659,306.608 C375.101,305.364 372.416,303.721 366.632,299.995 C349.404,288.897 343.119,285.025 331.338,278.736 C306.915,266.1 280.565,255.001 252.831,252.831 C255.242,280.603 265.991,306.847 278.736,331.338 C285.025,343.119 288.897,349.404 299.995,366.632 C303.721,372.416 305.364,375.101 306.608,377.659 C308.213,380.96 309.029,383.503 308.672,387.322 C308.212,392.247 305.316,396.89 300.251,399.177 C296.798,400.736 293.688,400.755 290.667,400.068 L279.838,397.607 L279.838,391.561 C274.732,389.37 269.274,388.161 263.856,387.027 C247.546,383.765 225.073,381.864 201,381.864 C176.927,381.864 154.454,383.765 138.144,387.027 C132.74,388.19 127.248,389.328 122.162,391.561 L122.162,397.607 L111.333,400.068 C108.312,400.755 105.202,400.736 101.749,399.177 C96.684,396.89 93.788,392.247 93.328,387.322 C92.971,383.503 93.787,380.96 95.392,377.659 C96.636,375.101 98.279,372.416 102.005,366.632 C113.103,349.404 116.975,343.119 123.264,331.338 C135.899,306.915 146.999,280.565 149.169,252.831 C121.397,255.242 95.153,265.991 70.662,278.736 C58.881,285.025 52.596,288.897 35.368,299.995 C29.584,303.721 26.899,305.364 24.341,306.608 C21.04,308.213 18.497,309.029 14.678,308.672 C9.753,308.212 5.11,305.316 2.823,300.251 C1.264,296.798 1.245,293.688 1.932,290.667 L4.393,279.838 L10.439,279.838 C12.63,274.732 13.839,269.274 14.973,263.856 C18.235,247.546 20.136,225.073 20.136,201 L20.048,192.056 C19.669,173.993 18.354,155.91 14.973,138.144 C13.81,132.74 12.672,127.248 10.439,122.162 L4.393,122.162 L1.932,111.333 C1.245,108.312 1.264,105.202 2.823,101.749 C5.11,96.684 9.753,93.788 14.678,93.328 C18.497,92.971 21.04,93.787 24.341,95.392 C26.899,96.636 29.584,98.279 35.368,102.005 C52.596,113.103 58.881,116.975 70.662,123.264 C95.085,135.899 121.435,146.999 149.169,149.169 C146.758,121.397 136.009,95.153 123.264,70.662 C116.975,58.881 113.103,52.596 102.005,35.368 C98.279,29.584 96.636,26.899 95.392,24.341 C93.787,21.04 92.971,18.497 93.328,14.678 C93.788,9.753 96.684,5.11 101.749,2.823 C105.202,1.264 108.312,1.245 111.333,1.932 L122.162,4.393 L122.162,10.439 C127.268,12.63 132.726,13.839 138.144,14.973 C154.454,18.235 176.927,20.136 201,20.136 C225.073,20.136 247.546,18.235 263.856,14.973 C269.259,13.81 274.752,12.672 279.838,10.439 L279.838,4.393 L290.667,1.932 L292.954,1.562 z M262.036,43.548 C241.878,46.947 221.404,47.759 201,47.961 C180.595,47.877 160.121,46.87 139.964,43.548 C142.728,48.133 145.28,52.842 147.811,57.558 C166.747,93.031 177.812,128.138 177.812,163.9 L177.812,177.812 L163.9,177.812 C128.138,177.812 93.031,166.747 57.558,147.811 C52.838,145.287 48.14,142.715 43.548,139.964 C46.947,160.122 47.759,180.596 47.961,201 L47.866,210.592 C47.478,227.804 46.349,245.036 43.548,262.036 C48.133,259.272 52.842,256.72 57.558,254.189 C93.031,235.253 128.138,224.188 163.9,224.188 L177.812,224.188 L177.812,238.1 C177.812,273.862 166.747,308.969 147.811,344.441 C145.287,349.162 142.715,353.86 139.964,358.452 C160.122,355.053 180.596,354.241 201,354.038 C221.405,354.123 241.879,355.13 262.036,358.452 C259.272,353.867 256.72,349.158 254.189,344.441 C235.253,308.969 224.188,273.862 224.188,238.1 L224.188,224.188 L238.1,224.188 C273.862,224.188 308.969,235.253 344.441,254.189 C349.162,256.713 353.86,259.285 358.452,262.036 C355.053,241.878 354.241,221.404 354.039,201 C354.123,180.595 355.13,160.121 358.452,139.964 C353.867,142.728 349.158,145.28 344.441,147.811 C308.969,166.747 273.862,177.812 238.1,177.812 L224.188,177.812 L224.188,163.9 C224.188,128.138 235.253,93.031 254.189,57.558 C256.713,52.838 259.285,48.14 262.036,43.548 z" fill-opacity="0" stroke="#8B8B8B" stroke-width="3"/>
    </g>
  </g>
</svg>
