<?xml version="1.0" encoding="UTF-8"?>
<!DOCTYPE svg PUBLIC "-//W3C//DTD SVG 1.1//EN" "http://www.w3.org/Graphics/SVG/1.1/DTD/svg11.dtd">
<svg version="1.1" xmlns="http://www.w3.org/2000/svg" xmlns:xlink="http://www.w3.org/1999/xlink" x="0" y="0" width="400" height="400" viewBox="0, 0, 400, 400">
  <g id="Layer_1">
    <g>
      <path d="M20.5,200.5 C20.5,145.272 11.546,100.5 0.5,100.5 C-2,89.5 72.134,160.5 160.5,160.5 C160.5,72.134 89.5,-2 100.5,0.5 C100.5,11.546 145.272,20.5 200.5,20.5 C255.728,20.5 300.5,11.546 300.5,0.5 C311.5,-2 240.5,72.134 240.5,160.5 C328.866,160.5 403,89.5 400.5,100.5 C389.454,100.5 380.5,145.272 380.5,200.5 C380.5,255.728 389.454,300.5 400.5,300.5 C403,311.5 328.866,240.5 240.5,240.5 C240.5,328.866 311.5,403 300.5,400.5 C300.5,389.454 255.728,380.5 200.5,380.5 C145.272,380.5 100.5,389.454 100.5,400.5 C89.5,403 160.5,328.866 160.5,240.5 C72.134,240.5 -2,311.5 0.5,300.5 C11.546,300.5 20.5,255.728 20.5,200.5" fill="#FF0000"/>
      <path d="M20.5,200.5 C20.5,145.272 11.546,100.5 0.5,100.5 C-2,89.5 72.134,160.5 160.5,160.5 C160.5,72.134 89.5,-2 100.5,0.5 C100.5,11.546 145.272,20.5 200.5,20.5 C255.728,20.5 300.5,11.546 300.5,0.5 C311.5,-2 240.5,72.134 240.5,160.5 C328.866,160.5 403,89.5 400.5,100.5 C389.454,100.5 380.5,145.272 380.5,200.5 C380.5,255.728 389.454,300.5 400.5,300.5 C403,311.5 328.866,240.5 240.5,240.5 C240.5,328.866 311.5,403 300.5,400.5 C300.5,389.454 255.728,380.5 200.5,380.5 C145.272,380.5 100.5,389.454 100.5,400.5 C89.5,403 160.5,328.866 160.5,240.5 C72.134,240.5 -2,311.5 0.5,300.5 C11.546,300.5 20.5,255.728 20.5,200.5" fill-opacity="0" stroke="#6E6E6E" stroke-width="3"/>
    </g>
  </g>
</svg>
