<?xml version="1.0" encoding="UTF-8" standalone="no"?>
<svg xmlns:dc="http://purl.org/dc/elements/1.1/"
                xmlns:cc="http://creativecommons.org/ns#"
                xmlns:rdf="http://www.w3.org/1999/02/22-rdf-syntax-ns#"
                xmlns:svg="http://www.w3.org/2000/svg"
                xmlns="http://www.w3.org/2000/svg"
                width="400"
                height="390"
                version="1.1" >
  <metadata>
    <rdf:RDF>
      <cc:Work rdf:about="">
        <dc:format>image/svg+xml</dc:format>
        <dc:type rdf:resource="http://purl.org/dc/dcmitype/StillImage"/>
        <cc:license rdf:resource=""/>
        <dc:title/>
        <dc:creator>
          <cc:Agent>
            <dc:title>(Drawshield internal)</dc:title>
          </cc:Agent>
        </dc:creator>
      </cc:Work>
    </rdf:RDF>
  </metadata>
<g style="fill:#ffff00;fill-opacity:1;fill-rule:evenodd;stroke:#000000;stroke-width:3;stroke-linecap:butt;stroke-linejoin:miter;stroke-miterlimit:4;stroke-opacity:1;stroke-dasharray:none" id="body"><g><path stroke="inherit" stroke-width="4"
              d="m 199,41.4 21,98.6 91,-30 -58,80 64,78 L 226,234 199,341 166,233 87.9,269 142,190 83.8,112 170,142 c 0,0 29,-97.2 29,-100.6 z"/>
             <path stroke="inherit" stroke-width="4"
              d="m 101,4.02 c 25,-1.01 50,50.48 51,78.78 1,28.2 27,48.2 40,52.2 13,4 37,-30 47,-60.3 C 256,54.5 278,59.6 299,6.04 317,47.5 276,75.8 257,88.8 232,120 243,158 243,158 c 0,0 30,-5 51,14 21,15 39,31 110,16 -52,57 -92,24 -116,16 -20,7 -46,-1 -44,14 2,15 28,44 31,64 5,17 -10,49 27,94 -65,-26 -56,-87 -63,-96 -7,-9 -39,-44 -50,-37 -11,7 -5,48 -31,65 -17,20 -47,27 -56,70 -13.3,-55 31,-79 41,-93 14,-20 11,-66 11,-66 0,0 -60.2,-12 -73.2,-12 C 67.7,207 37.4,177 0.029,192 40.4,150 69.7,182 87.9,186 106,190 148,162 148,162 L 129,85.8 c 0,0 1,-42.4 -28,-81.78 z"/></g></g>
</svg>
