<?xml version="1.0" encoding="UTF-8"?>
<!DOCTYPE svg PUBLIC "-//W3C//DTD SVG 1.1//EN" "http://www.w3.org/Graphics/SVG/1.1/DTD/svg11.dtd">
<svg version="1.1" xmlns="http://www.w3.org/2000/svg" xmlns:xlink="http://www.w3.org/1999/xlink" x="0" y="0" width="200" height="200" viewBox="0, 0, 200, 200">
  <g id="Layer_1">
    <path d="M34.109,49.1 L27.199,11.44 L38.546,0 L0,0 L0,31.827 L0.159,31.74 L34.109,49.1 z" />
    <path d="M166.658,50 L200,31.827 L200,0 L159.966,0 L172.618,12.14 L166.658,50 z" />
    <path d="M66.65,144.998 L100.15,125.998 L134.15,143.998 L127.15,105.998 L154.15,79.098 L116.35,74.098 L99.05,40.038 L82.65,74.498 L45,80.498 L72.65,106.998 L66.65,144.998 z" />
    <path d="M200,200 L200,146.88 L199.068,145.038 L182.638,179.64 L145,185.64 L159.966,200 L200,200 z" />
    <path d="M38.546,200 L54.179,184.24 L16.369,179.24 L0,146.879 L0,200 L38.546,200 z" />
  </g>
</svg>
