<?xml version="1.0" encoding="UTF-8" standalone="no"?>
<!-- Created with Inkscape (http://www.inkscape.org/) -->
<svg xmlns:dc="http://purl.org/dc/elements/1.1/" xmlns:cc="http://creativecommons.org/ns#" xmlns:rdf="http://www.w3.org/1999/02/22-rdf-syntax-ns#" xmlns:svg="http://www.w3.org/2000/svg" xmlns="http://www.w3.org/2000/svg" xmlns:sodipodi="http://sodipodi.sourceforge.net/DTD/sodipodi-0.dtd" xmlns:inkscape="http://www.inkscape.org/namespaces/inkscape" width="379.79706" height="276.89307" id="svg2" version="1.1" inkscape:version="0.48.2 r9819" sodipodi:docname="astral.svg">
  <defs id="defs4">
    <inkscape:perspective sodipodi:type="inkscape:persp3d" inkscape:vp_x="0 : 530 : 1" inkscape:vp_y="0 : 1000 : 0" inkscape:vp_z="740 : 530 : 1" inkscape:persp3d-origin="370 : 350 : 1" id="perspective10"/>
  </defs>
  <sodipodi:namedview id="base" pagecolor="#ffffff" bordercolor="#666666" borderopacity="1.0" inkscape:pageopacity="0.0" inkscape:pageshadow="2" inkscape:zoom="0.98994949" inkscape:cx="257.83159" inkscape:cy="148.73329" inkscape:document-units="px" inkscape:current-layer="body" showgrid="false" inkscape:window-width="1571" inkscape:window-height="1028" inkscape:window-x="101" inkscape:window-y="-8" inkscape:window-maximized="1" borderlayer="true" showguides="true" inkscape:guide-bbox="true" fit-margin-top="0" fit-margin-left="0" fit-margin-right="0" fit-margin-bottom="0">
    <sodipodi:guide orientation="0,1" position="-11.626906,0.62649075" id="guide4584"/>
  </sodipodi:namedview>
  <metadata id="metadata7">
    <rdf:RDF>
      <cc:Work rdf:about="">
        <dc:format>image/svg+xml</dc:format>
        <dc:type rdf:resource="http://purl.org/dc/dcmitype/StillImage"/>
        <dc:title/>
      </cc:Work>
    </rdf:RDF>
  </metadata>
  <g inkscape:label="body" inkscape:groupmode="layer" id="body">
    <path style="fill:#ffff00;fill-opacity:1;stroke:#000000;stroke-width:2;stroke-opacity:1" d="m34.84,172.7 19.19,70.21   c0,0 -0.5051,-13.13 -0.5051,0 0,13.13 5.051,34.85 132.8,32.83 127.8,-2.02 139.1,-19.44 142.9,-38.39   l11.62,-57.58 -42.43,11.11 -21.72,-22.22 -41.92,13.13 -33.34,-23.23 -6.061,-19.7 -12.12,1.01 -9.596,26.26 -23.23,15.15 -31.31,-9.091 -18.69,-4.546 -15.66,20.71 -31.31,-0.5051 -15.66,-15.15   " id="path4384" inkscape:connector-curvature="0" sodipodi:nodetypes="ccssscccccccccccccc"/>
    <path inkscape:connector-curvature="0" id="path4420" d="m129.3,198   c2.427,-5.751 4.316,-13.02 10.74,-15.53 7.503,-2.14 14.62,4.617 16.04,11.63 3.105,11.96 -6.652,26.13 -19.4,25.79 -13.92,-0.9905 -26.47,-8.527 -36.49,-17.84 -4.028,-7.194 -7.561,-15.69 -5.615,-24.04 2.831,-6.792 14.2,-8.468 17.79,-1.497 3.782,9.296 1.188,20.23 -4.391,28.25 -6.135,8.566 -14.82,14.83 -23.24,20.96 -7.487,4.649 -18.27,6.202 -25.32,-0.1132 -7.781,-6.195 -8.772,-19.95 -0.2859,-26 5.978,-5.159 17.34,-1.878 18.15,6.471   " style="fill:none;stroke:#000000;stroke-width:2;stroke-opacity:1"/>
    <path style="opacity:0.70796461;fill:#4d4d4d;fill-opacity:1;stroke:#000000;stroke-width:2;stroke-opacity:1" d="m66.15,248   c-0.07574,-21.49 248.2,-19.45 247.5,0 -0.7532,19.45 -247.4,21.49 -247.5,0   z " id="path4386" inkscape:connector-curvature="0" sodipodi:nodetypes="zzz"/>
    <path style="fill:none;stroke:#000000;stroke-width:2;stroke-opacity:1" d="m57.06,239.4   c51.81,-25.07 79.43,-15.37 166.2,-17.16 34.76,-0.7173 71.17,7.006 104,18.67   " id="path4388" inkscape:connector-curvature="0" sodipodi:nodetypes="csc"/>
    <path style="fill:none;stroke:#000000;stroke-width:2;stroke-opacity:1" d="m170.2,174.7   c4.783,9.489 17.16,30.57 10.61,40.41   " id="path4403" inkscape:connector-curvature="0"/>
    <path style="fill:none;stroke:#000000;stroke-width:2;stroke-opacity:1" d="m211.6,176.8   c-11.55,7.35 -18.27,25.99 -14.14,38.39   " id="path4405" inkscape:connector-curvature="0"/>
    <path style="fill:none;stroke:#000000;stroke-width:2;stroke-opacity:1" d="m248.5,198   c-2.427,-5.751 -4.316,-13.02 -10.74,-15.53 -7.503,-2.14 -14.62,4.617 -16.04,11.63 -3.105,11.96 6.652,26.13 19.4,25.79 13.92,-0.9905 26.47,-8.527 36.49,-17.84 4.028,-7.194 7.561,-15.69 5.615,-24.04 -2.831,-6.792 -14.2,-8.468 -17.79,-1.497 -3.782,9.296 -1.188,20.23 4.391,28.25 6.135,8.566 14.82,14.83 23.24,20.96 7.487,4.649 18.27,6.202 25.32,-0.1132 7.781,-6.195 8.772,-19.95 0.2859,-26 -5.978,-5.159 -17.34,-1.878 -18.15,6.471   " id="path4407" inkscape:connector-curvature="0"/>
    <path style="fill:#ffff00;stroke:#000000;stroke-width:2;stroke-opacity:1" d="m1,47.47 6.566,52.53 22.22,45.96 -1.01,-34.35 23.74,0   L30.8,90.9 47.47,54.54 19.69,73.73   z " id="path4422" inkscape:connector-curvature="0"/>
    <path style="fill:none;stroke:#000000;stroke-width:2;stroke-opacity:1" d="m4.03,56.56 0,0 12.63,34.35 21.72,-24.24   " id="path4424" inkscape:connector-curvature="0"/>
    <path style="fill:none;stroke:#000000;stroke-width:2;stroke-opacity:1" d="M25.24,127.8 16.15,92.92 36.86,105   " id="path4426" inkscape:connector-curvature="0"/>
    <path style="fill:none;stroke:#000000;stroke-width:2;stroke-opacity:1" d="m16.66,92.42 -6.566,6.061   " id="path4428" inkscape:connector-curvature="0"/>
    <path inkscape:connector-curvature="0" id="path4430" d="m378.8,47.97 -6.566,52.53 -22.22,45.96 1.01,-34.35 -23.74,0 21.72,-20.71 -16.67,-36.37 27.78,19.19   z " style="fill:#ffff00;stroke:#000000;stroke-width:2;stroke-opacity:1"/>
    <path inkscape:connector-curvature="0" id="path4432" d="m375.8,57.06 0,0 -12.63,34.35 -21.72,-24.24   " style="fill:none;stroke:#000000;stroke-width:2;stroke-opacity:1"/>
    <path inkscape:connector-curvature="0" id="path4434" d="M354.6,128.3 363.6,93.43 342.9,105.6   " style="fill:none;stroke:#000000;stroke-width:2;stroke-opacity:1"/>
    <path inkscape:connector-curvature="0" id="path4436" d="m363.1,92.92 6.566,6.061   " style="fill:none;stroke:#000000;stroke-width:2;stroke-opacity:1"/>
    <path style="fill:#ffff00;stroke:#000000;stroke-width:2;stroke-opacity:1" d="m189.9,5.041 -9.091,36.37 -27.78,-10.1 17.17,33.34 -16.67,25.76 25.25,-7.071 12.12,36.87 9.596,-39.9 27.78,11.62 -15.66,-26.26 18.18,-28.28 -28.79,6.566   z " id="path4438" inkscape:connector-curvature="0"/>
    <path style="fill:none;stroke:#000000;stroke-width:2;stroke-opacity:1" d="m187.9,23.22 0,2.525 1.01,37.88 -7.576,-18.18   " id="path4440" inkscape:connector-curvature="0"/>
    <path style="fill:none;stroke:#000000;stroke-width:2;stroke-opacity:1" d="M200.5,45.45 191.9,61.61 210.6,49.99   " id="path4442" inkscape:connector-curvature="0"/>
    <path style="fill:none;stroke:#000000;stroke-width:2;stroke-opacity:1" d="m209.6,65.14 -19.7,0 19.7,13.13   " id="path4444" inkscape:connector-curvature="0"/>
    <path style="fill:none;stroke:#000000;stroke-width:2;stroke-opacity:1" d="m189.9,97.47 0,0 -1.01,-30.81 -7.071,12.12   " id="path4446" inkscape:connector-curvature="0"/>
    <path style="fill:none;stroke:#000000;stroke-width:2;stroke-opacity:1" d="M169.7,78.78 184.8,66.15 172.2,64.64   " id="path4448" inkscape:connector-curvature="0"/>
    <path style="fill:none;stroke:#000000;stroke-width:2;stroke-opacity:1" d="m168.7,48.48 3.03,-0.5051 16.67,19.19   " id="path4450" inkscape:connector-curvature="0"/>
    <path style="fill:#ffff00;fill-opacity:1;stroke:#000000;stroke-width:2;stroke-opacity:1" d="m94.94,1   c0.085,9.754 11.99,21.34 16.74,28.52 5.149,9.738 11.68,18.77 17.72,28 8.001,12.03 21.38,21.41 23.57,36.6 0.9529,5.899 -1.872,12.03 1.084,17.68 2.257,5.547 6.415,10.08 10.94,13.89 6.59,0.4476 14.41,4.83 14.06,12.32 -1.076,6.457 -3.065,13.42 -8.129,17.96 -7.177,6.466 -14.87,12.3 -23.07,7.65 -11.8,-1.676 -26.8,-17.42 -23.39,-29.06 0.2423,-15.6 -5.21,-32.42 -15,-44.02 -15.8,-23.82 -21.23,-62.01 -14.53,-89.54   z " id="path4454" inkscape:connector-curvature="0" sodipodi:nodetypes="cccccccccccc"/>
    <path style="fill:none;stroke:#000000;stroke-width:2;stroke-opacity:1" d="m107.6,37.37   c23.13,32.4 32.44,86.26 69.7,102   " id="path4460" inkscape:connector-curvature="0"/>
    <path style="fill:none;stroke:#000000;stroke-width:2;stroke-opacity:1" d="m95.95,31.3   c6.053,16.32 16.64,28.81 27.78,38.89   " id="path4462" inkscape:connector-curvature="0"/>
    <path style="fill:none;stroke:#000000;stroke-width:2;stroke-opacity:1" d="m99.49,55.55   c6.881,15.65 17.4,19.85 27.78,24.24   " id="path4464" inkscape:connector-curvature="0"/>
    <path style="fill:none;stroke:#000000;stroke-width:2;stroke-opacity:1" d="m106.6,76.26   c3.019,4.888 18.04,10.22 27.27,13.64   " id="path4466" inkscape:connector-curvature="0"/>
    <path style="fill:none;stroke:#000000;stroke-width:2;stroke-opacity:1" d="m118.2,94.44   c7.223,7.007 16.53,5.753 22.22,6.566   " id="path4468" inkscape:connector-curvature="0"/>
    <path style="fill:none;stroke:#000000;stroke-width:2;stroke-opacity:1" d="m122.2,104   c7.333,7.874 15.2,3.653 21.21,3.03   " id="path4470" inkscape:connector-curvature="0"/>
    <path style="fill:none;stroke:#000000;stroke-width:2;stroke-opacity:1" d="m125.2,113.1   c6.991,4.597 15.44,2.558 23.23,2.02   " id="path4472" inkscape:connector-curvature="0"/>
    <path style="fill:none;stroke:#000000;stroke-width:2;stroke-opacity:1" d="m128.8,122.2   c9.774,3.213 16.16,-0.125 23.74,-2.02   " id="path4474" inkscape:connector-curvature="0"/>
    <path style="fill:none;stroke:#000000;stroke-width:2;stroke-opacity:1" d="m129.3,131.8   c12.75,4.331 20.25,-1.136 27.78,-5.051   " id="path4476" inkscape:connector-curvature="0"/>
    <path style="fill:none;stroke:#000000;stroke-width:2;stroke-opacity:1" d="m129.8,139.9   c12.83,1.642 24.81,-4.397 34.35,-7.576   " id="path4478" inkscape:connector-curvature="0"/>
    <path style="fill:none;stroke:#000000;stroke-width:2;stroke-opacity:1" d="m134.8,148   c13.87,-1.94 23.28,-7.25 33.84,-12.12   " id="path4480" inkscape:connector-curvature="0"/>
    <path style="fill:none;stroke:#000000;stroke-width:2;stroke-opacity:1" d="m141.4,154   c14.31,-2.414 22.3,-9.873 30.81,-16.16   " id="path4482" inkscape:connector-curvature="0"/>
    <path style="fill:none;stroke:#000000;stroke-width:2;stroke-opacity:1" d="m130.8,72.72   c10.85,7.861 10.24,18.98 11.62,32.32   " id="path4484" inkscape:connector-curvature="0"/>
    <path style="fill:none;stroke:#000000;stroke-width:2;stroke-opacity:1" d="m135.9,107.6   c1.328,25.15 12.02,34.82 28.79,40.41   " id="path4486" inkscape:connector-curvature="0"/>
    <path sodipodi:nodetypes="cccccccccccc" inkscape:connector-curvature="0" id="path4488" d="m286.3,1   c-0.085,9.754 -11.99,21.34 -16.74,28.52 -5.149,9.738 -11.68,18.77 -17.72,28 -8.001,12.03 -21.38,21.41 -23.57,36.6 -0.9529,5.899 1.872,12.03 -1.084,17.68 -2.257,5.547 -6.415,10.08 -10.94,13.89 -6.59,0.4476 -14.41,4.83 -14.06,12.32 1.076,6.457 3.065,13.42 8.129,17.96 7.177,6.466 14.87,12.3 23.07,7.65 11.8,-1.676 26.8,-17.42 23.39,-29.06 -0.2423,-15.6 5.21,-32.42 15,-44.02 15.8,-23.82 21.23,-62.01 14.53,-89.54   z " style="fill:#ffff00;fill-opacity:1;stroke:#000000;stroke-width:2;stroke-opacity:1"/>
    <path inkscape:connector-curvature="0" id="path4490" d="M273.6,37.37   C250.5,69.76 241.2,123.6 203.9,139.4   " style="fill:none;stroke:#000000;stroke-width:2;stroke-opacity:1"/>
    <path inkscape:connector-curvature="0" id="path4492" d="m285.2,31.3   c-6.053,16.32 -16.64,28.81 -27.78,38.89   " style="fill:none;stroke:#000000;stroke-width:2;stroke-opacity:1"/>
    <path inkscape:connector-curvature="0" id="path4494" d="m281.7,55.55   c-6.881,15.65 -17.4,19.85 -27.78,24.24   " style="fill:none;stroke:#000000;stroke-width:2;stroke-opacity:1"/>
    <path inkscape:connector-curvature="0" id="path4496" d="m274.6,76.26   c-3.019,4.888 -18.04,10.22 -27.27,13.64   " style="fill:none;stroke:#000000;stroke-width:2;stroke-opacity:1"/>
    <path inkscape:connector-curvature="0" id="path4498" d="m263,94.44   c-7.223,7.007 -16.53,5.753 -22.22,6.566   " style="fill:none;stroke:#000000;stroke-width:2;stroke-opacity:1"/>
    <path inkscape:connector-curvature="0" id="path4500" d="m259,104   c-7.333,7.874 -15.2,3.653 -21.21,3.03   " style="fill:none;stroke:#000000;stroke-width:2;stroke-opacity:1"/>
    <path inkscape:connector-curvature="0" id="path4502" d="m255.9,113.1   c-6.991,4.597 -15.44,2.558 -23.23,2.02   " style="fill:none;stroke:#000000;stroke-width:2;stroke-opacity:1"/>
    <path inkscape:connector-curvature="0" id="path4504" d="m252.4,122.2   c-9.774,3.213 -16.16,-0.125 -23.74,-2.02   " style="fill:none;stroke:#000000;stroke-width:2;stroke-opacity:1"/>
    <path inkscape:connector-curvature="0" id="path4506" d="m251.9,131.8   c-12.75,4.331 -20.25,-1.136 -27.78,-5.051   " style="fill:none;stroke:#000000;stroke-width:2;stroke-opacity:1"/>
    <path inkscape:connector-curvature="0" id="path4508" d="m251.4,139.9   c-12.83,1.642 -24.81,-4.397 -34.35,-7.576   " style="fill:none;stroke:#000000;stroke-width:2;stroke-opacity:1"/>
    <path inkscape:connector-curvature="0" id="path4510" d="m246.4,148   c-13.87,-1.94 -23.28,-7.25 -33.84,-12.12   " style="fill:none;stroke:#000000;stroke-width:2;stroke-opacity:1"/>
    <path inkscape:connector-curvature="0" id="path4512" d="m239.8,154   c-14.31,-2.414 -22.3,-9.873 -30.81,-16.16   " style="fill:none;stroke:#000000;stroke-width:2;stroke-opacity:1"/>
    <path inkscape:connector-curvature="0" id="path4514" d="M250.4,72.72   C239.5,80.58 240.2,91.7 238.8,105   " style="fill:none;stroke:#000000;stroke-width:2;stroke-opacity:1"/>
    <path inkscape:connector-curvature="0" id="path4516" d="m245.3,107.6   c-1.328,25.15 -12.02,34.82 -28.79,40.41   " style="fill:none;stroke:#000000;stroke-width:2;stroke-opacity:1"/>
    <path style="fill:#ffff00;stroke:#000000;stroke-width:2;stroke-opacity:1" d="M83.83,8.576   C76.76,40.64 65.65,67.67 52.52,93.93   c-5.385,10.77 3.302,37.61 -4.041,44.95 -3.014,3.014 -7.576,15.99 -7.576,17.17 0,8.669 24.17,32.9 30.3,26.77 24.16,-24.16 14.65,-26.65 14.65,-66.17 0,-4.354 -1.227,-11.69 0.5051,-15.15 6.608,-13.22 9.091,-28.52 9.091,-44.45 0,-18.35 -14.25,-32.7 -11.62,-48.49   z " id="path4520" inkscape:connector-curvature="0" sodipodi:nodetypes="csssssssc"/>
    <path style="fill:none;stroke:#000000;stroke-width:2;stroke-opacity:1" d="M82.82,26.76   C55.54,59.09 72.64,133.7 42.92,160.1   " id="path4522" inkscape:connector-curvature="0"/>
    <path style="fill:none;stroke:#000000;stroke-width:2;stroke-opacity:1" d="M85.35,32.82   C76.81,44.19 74.02,55.93 68.68,67.67   " id="path4524" inkscape:connector-curvature="0"/>
    <path style="fill:none;stroke:#000000;stroke-width:2;stroke-opacity:1" d="M89.39,41.41   C81.65,54.65 75.09,66.47 68.18,80.3   " id="path4526" inkscape:connector-curvature="0"/>
    <path style="fill:none;stroke:#000000;stroke-width:2;stroke-opacity:1" d="M91.91,54.03   C84.2,75.97 73.4,87.61 60.6,98.98   " id="path4528" inkscape:connector-curvature="0"/>
    <path style="fill:none;stroke:#000000;stroke-width:2;stroke-opacity:1" d="M91.41,75.75   C86.04,93.14 73.75,99.04 64.13,104.5   " id="path4530" inkscape:connector-curvature="0"/>
    <path style="fill:none;stroke:#000000;stroke-width:2;stroke-opacity:1" d="m83.33,102   c-3.415,6.256 -12.91,10.49 -22.73,12.12   " id="path4532" inkscape:connector-curvature="0"/>
    <path style="fill:none;stroke:#000000;stroke-width:2;stroke-opacity:1" d="m83.33,112.6   c-5.063,6.819 -15.13,9.68 -25.25,10.1   " id="path4534" inkscape:connector-curvature="0"/>
    <path style="fill:none;stroke:#000000;stroke-width:2;stroke-opacity:1" d="m82.32,125.2   c-8.045,9.157 -14.64,7.64 -23.23,6.566   " id="path4536" inkscape:connector-curvature="0"/>
    <path style="fill:none;stroke:#000000;stroke-width:2;stroke-opacity:1" d="m84.34,136.4   c-10.71,11.53 -15.4,5.002 -23.74,-2.02   " id="path4538" inkscape:connector-curvature="0"/>
    <path style="fill:none;stroke:#000000;stroke-width:2;stroke-opacity:1" d="m82.82,150   c-5.095,2.466 -17.84,-4.64 -24.75,-8.586   " id="path4540" inkscape:connector-curvature="0"/>
    <path style="fill:none;stroke:#000000;stroke-width:2;stroke-opacity:1" d="M80.8,162.1   C65.94,161.2 63.62,153.4 56.56,144.4   " id="path4542" inkscape:connector-curvature="0"/>
    <path style="fill:none;stroke:#000000;stroke-width:2;stroke-opacity:1" d="M78.28,170.7   C64.8,167.1 60.66,158.1 55.04,149   " id="path4544" inkscape:connector-curvature="0"/>
    <path style="fill:none;stroke:#000000;stroke-width:2;stroke-opacity:1" d="M70.7,175.8   C59.62,170.1 56.72,164.2 51,156.1   " id="path4546" inkscape:connector-curvature="0"/>
    <path style="fill:none;stroke:#000000;stroke-width:2;stroke-opacity:1" d="M73.23,79.79   C67.55,110.3 67.04,152.3 56.05,164.6   " id="path4548" inkscape:connector-curvature="0"/>
    <path style="fill:none;stroke:#000000;stroke-width:2;stroke-opacity:1" d="m66.15,84.34   c-7.173,7.492 -9.561,25.18 -8.081,42.93   " id="path4550" inkscape:connector-curvature="0"/>
    <path sodipodi:nodetypes="csssssssc" inkscape:connector-curvature="0" id="path4552" d="m298.5,8.576   c7.069,32.07 18.18,59.09 31.31,85.36 5.385,10.77 -3.302,37.61 4.041,44.95 3.014,3.014 7.576,15.99 7.576,17.17 0,8.669 -24.17,32.9 -30.3,26.77 -24.16,-24.16 -14.65,-26.65 -14.65,-66.17 0,-4.354 1.227,-11.69 -0.5051,-15.15 -6.608,-13.22 -9.091,-28.52 -9.091,-44.45 0,-18.35 14.25,-32.7 11.62,-48.49   z " style="fill:#ffff00;stroke:#000000;stroke-width:2;stroke-opacity:1"/>
    <path inkscape:connector-curvature="0" id="path4554" d="m299.5,26.76   c27.28,32.33 10.18,106.9 39.9,133.3   " style="fill:none;stroke:#000000;stroke-width:2;stroke-opacity:1"/>
    <path inkscape:connector-curvature="0" id="path4556" d="m297,32.82   c8.535,11.37 11.33,23.11 16.67,34.85   " style="fill:none;stroke:#000000;stroke-width:2;stroke-opacity:1"/>
    <path inkscape:connector-curvature="0" id="path4558" d="m293,41.41   c7.741,13.24 14.3,25.06 21.21,38.89   " style="fill:none;stroke:#000000;stroke-width:2;stroke-opacity:1"/>
    <path inkscape:connector-curvature="0" id="path4560" d="M290.4,54.03   C298.2,75.97 309,87.61 321.8,98.98   " style="fill:none;stroke:#000000;stroke-width:2;stroke-opacity:1"/>
    <path inkscape:connector-curvature="0" id="path4562" d="m290.9,75.75   c5.367,17.39 17.66,23.29 27.27,28.79   " style="fill:none;stroke:#000000;stroke-width:2;stroke-opacity:1"/>
    <path inkscape:connector-curvature="0" id="path4564" d="m299,102   c3.415,6.256 12.91,10.49 22.73,12.12   " style="fill:none;stroke:#000000;stroke-width:2;stroke-opacity:1"/>
    <path inkscape:connector-curvature="0" id="path4566" d="m299,112.6   c5.063,6.819 15.13,9.68 25.25,10.1   " style="fill:none;stroke:#000000;stroke-width:2;stroke-opacity:1"/>
    <path inkscape:connector-curvature="0" id="path4568" d="m300,125.2   c8.045,9.157 14.64,7.64 23.23,6.566   " style="fill:none;stroke:#000000;stroke-width:2;stroke-opacity:1"/>
    <path inkscape:connector-curvature="0" id="path4570" d="m298,136.4   c10.71,11.53 15.4,5.002 23.74,-2.02   " style="fill:none;stroke:#000000;stroke-width:2;stroke-opacity:1"/>
    <path inkscape:connector-curvature="0" id="path4572" d="m299.5,150   c5.095,2.466 17.84,-4.64 24.75,-8.586   " style="fill:none;stroke:#000000;stroke-width:2;stroke-opacity:1"/>
    <path inkscape:connector-curvature="0" id="path4574" d="m301.5,162.1   c14.86,-0.8894 17.18,-8.733 24.24,-17.68   " style="fill:none;stroke:#000000;stroke-width:2;stroke-opacity:1"/>
    <path inkscape:connector-curvature="0" id="path4576" d="m304.1,170.7   c13.48,-3.585 17.62,-12.64 23.23,-21.72   " style="fill:none;stroke:#000000;stroke-width:2;stroke-opacity:1"/>
    <path inkscape:connector-curvature="0" id="path4578" d="m311.6,175.8   c11.08,-5.636 13.98,-11.53 19.7,-19.7   " style="fill:none;stroke:#000000;stroke-width:2;stroke-opacity:1"/>
    <path inkscape:connector-curvature="0" id="path4580" d="m309.1,79.79   c5.677,30.48 6.184,72.49 17.17,84.85   " style="fill:none;stroke:#000000;stroke-width:2;stroke-opacity:1"/>
    <path inkscape:connector-curvature="0" id="path4582" d="m316.2,84.34   c7.173,7.492 9.561,25.18 8.081,42.93   " style="fill:none;stroke:#000000;stroke-width:2;stroke-opacity:1"/>
    <path style="fill:#ffff00;fill-opacity:1;stroke:#000000;stroke-width:2;stroke-opacity:1" d="m31.81,144.9   c-0.5051,-1.515 -3.03,39.9 23.74,46.97 26.77,7.071 44.45,0.5051 53.03,-20.71 15.66,11.62 19.19,14.65 45.96,14.14 25.25,-13.64 41.92,-31.31 35.36,-63.13   l-10.1,0   c-2.525,27.27 6.566,23.74 -25.25,50.51 -23.74,3.536 -40.41,-9.091 -48.49,-21.21 -8.081,-12.12 -4.546,32.32 -33.84,31.82   C37.34,182.5 40.9,146 40.9,146   z " id="path4380" inkscape:connector-curvature="0" sodipodi:nodetypes="ccccccccccc"/>
    <path sodipodi:nodetypes="ccccccccccc" inkscape:connector-curvature="0" id="path4382" d="m349,144.9   c0.5051,-1.515 3.03,39.9 -23.74,46.97 -26.77,7.071 -44.45,0.5051 -53.03,-20.71 -15.66,11.62 -19.19,14.65 -45.96,14.14 -25.25,-13.64 -41.92,-31.31 -35.36,-63.13   l10.1,0   c2.525,27.27 -6.566,23.74 25.25,50.51 23.74,3.536 40.41,-9.091 48.49,-21.21 8.081,-12.12 4.546,32.32 33.84,31.82 34.87,-0.8712 31.31,-37.38 31.31,-37.38   z " style="fill:#ffff00;fill-opacity:1;stroke:#000000;stroke-width:2;stroke-opacity:1"/>
  </g>
</svg>
