<?xml version="1.0" encoding="UTF-8" standalone="no"?>
<!-- Created with Inkscape (http://www.inkscape.org/) -->
<svg xmlns:dc="http://purl.org/dc/elements/1.1/" xmlns:cc="http://creativecommons.org/ns#" xmlns:rdf="http://www.w3.org/1999/02/22-rdf-syntax-ns#" xmlns:svg="http://www.w3.org/2000/svg" xmlns="http://www.w3.org/2000/svg" xmlns:sodipodi="http://sodipodi.sourceforge.net/DTD/sodipodi-0.dtd" xmlns:inkscape="http://www.inkscape.org/namespaces/inkscape" width="450.28723" height="193.83223" id="svg2" sodipodi:version="0.32" inkscape:version="0.48.2 r9819" version="1.0" sodipodi:docname="baron.svg" inkscape:output_extension="org.inkscape.output.svg.inkscape">
  <defs id="defs4">
    <inkscape:perspective sodipodi:type="inkscape:persp3d" inkscape:vp_x="0 : 526.18109 : 1" inkscape:vp_y="0 : 1000 : 0" inkscape:vp_z="744.09448 : 526.18109 : 1" inkscape:persp3d-origin="372.04724 : 350.78739 : 1" id="perspective10"/>
  </defs>
  <sodipodi:namedview id="base" pagecolor="#ffffff" bordercolor="#666666" borderopacity="1.0" gridtolerance="10000" guidetolerance="10" objecttolerance="10" inkscape:pageopacity="0.0" inkscape:pageshadow="2" inkscape:zoom="1.31" inkscape:cx="339.2338" inkscape:cy="23.65832" inkscape:document-units="px" inkscape:current-layer="body" showgrid="false" inkscape:window-width="1151" inkscape:window-height="874" inkscape:window-x="119" inkscape:window-y="5" inkscape:window-maximized="0" inkscape:snap-global="false" showguides="true" inkscape:guide-bbox="true" fit-margin-top="0" fit-margin-left="0" fit-margin-right="0" fit-margin-bottom="0">
    <sodipodi:guide orientation="0,1" position="64.042966,-147.9313" id="guide3145"/>
  </sodipodi:namedview>
  <metadata id="metadata7">
    <rdf:RDF>
      <cc:Work rdf:about="">
        <dc:format>image/svg+xml</dc:format>
        <dc:type rdf:resource="http://purl.org/dc/dcmitype/StillImage"/>
        <dc:title/>
      </cc:Work>
    </rdf:RDF>
  </metadata>
  <g inkscape:label="Layer 1" inkscape:groupmode="layer" id="layer1">
    <g id="body">
      <path sodipodi:nodetypes="ccccccccc" inkscape:connector-curvature="0" d="M55.39,181.8   C17.99,170.8 54.29,157.8 42.49,131.2 32.09,91.43 17.99,118.4 15.59,85.63 47.29,57.51 160.3,61.01 232.3,57.52   c71,3.49 184,0 216,28.11 -2,32.8 -16,5.8 -27,45.6 -12,26.6 25,39.6 -13,50.6 -28,9 -176,10 -176,10 0,0 -149,-1 -176.9,-10   z " style="fill:#ff0000;stroke:#000000;stroke-width:4;stroke-miterlimit:4;stroke-opacity:1;stroke-dasharray:none" id="path3764"/>
      <path sodipodi:nodetypes="cc" inkscape:connector-curvature="0" id="path3767" d="m29.88,107   c88.1,-44.5 305.7,-38.6 411.7,-4.7   " style="fill:none;stroke:#000000;stroke-width:4;stroke-miterlimit:4;stroke-opacity:1;stroke-dasharray:none"/>
      <path sodipodi:nodetypes="cc" inkscape:connector-curvature="0" id="path3769" d="m43.69,157.8   c120.3,-29.26 216,-31.27 382,6.527   " style="fill:none;stroke:#000000;stroke-width:4;stroke-miterlimit:4;stroke-opacity:1;stroke-dasharray:none"/>
      <path id="path3773" style="opacity:0.5;fill:#333333;fill-opacity:1;fill-rule:evenodd;stroke:none" d="M36.39,115.7   C144.3,56.01 357.3,87.63 433.3,109.8   l9,-8.2   C414.3,88.73 158.3,37.23 26.99,108.7   z m6.2,44.1   c107.7,-56.2 377.7,2 377.7,2 0,0 34,31 -90,30 -31,-6 56,-18 33,-29 -84,-15.2 -199,-18.1 -266,3 -23,13 103,17 84,28   C-0.08299,188.1 42.59,159.8 42.59,159.8   z " inkscape:connector-curvature="0" sodipodi:nodetypes="cccccccccccc"/>
      <path sodipodi:nodetypes="zzz" inkscape:connector-curvature="0" id="path3089" d="M32.65,71.11   C72.39,68.74 72.47,13.54 31.73,16.09 -9.013,18.63 -7.088,73.48 32.65,71.11   z " style="fill:#f2f2f2;stroke:#000000;stroke-width:4;stroke-linecap:butt;stroke-linejoin:miter;stroke-opacity:1"/>
      <path sodipodi:nodetypes="ccc" inkscape:connector-curvature="0" id="path3091" d="m3.554,56.07   c0.05827,14.45 48.85,27.48 58.02,-9.16 -3.629,4.234 -54.39,15.81 -58.02,9.16   z " style="opacity:0.5;fill:#333333;stroke:none"/>
      <path sodipodi:nodetypes="zzz" inkscape:connector-curvature="0" id="path3048" d="m412.7,67.11   c39.74,-2.371 39.82,-57.57 -0.9242,-55.03 -40.74,2.542 -38.81,57.4 0.9242,55.03   z " style="fill:#f2f2f2;stroke:#000000;stroke-width:4;stroke-linecap:butt;stroke-linejoin:miter;stroke-opacity:1"/>
      <path sodipodi:nodetypes="ccc" inkscape:connector-curvature="0" id="path3050" d="m383.6,52.07   c0.0583,14.45 48.85,27.48 58.02,-9.16 -3.629,4.234 -54.39,15.81 -58.02,9.16   z " style="opacity:0.5;fill:#333333;stroke:none"/>
      <path style="fill:#f2f2f2;stroke:#000000;stroke-width:4;stroke-linecap:butt;stroke-linejoin:miter;stroke-opacity:1" d="m284.7,57.11   c39.74,-2.371 39.82,-57.57 -0.9242,-55.03 -40.74,2.542 -38.81,57.4 0.9242,55.03   z " id="path3052" inkscape:connector-curvature="0" sodipodi:nodetypes="zzz"/>
      <path style="opacity:0.5;fill:#333333;stroke:none" d="m255.6,42.07   c0.0583,14.45 48.85,27.48 58.02,-9.16 -3.629,4.234 -54.39,15.81 -58.02,9.16   z " id="path3054" inkscape:connector-curvature="0" sodipodi:nodetypes="ccc"/>
      <path sodipodi:nodetypes="zzz" inkscape:connector-curvature="0" id="path3068" d="m156.7,61.11   c39.74,-2.371 39.82,-57.57 -0.9242,-55.03 -40.74,2.542 -38.81,57.4 0.9242,55.03   z " style="fill:#f2f2f2;stroke:#000000;stroke-width:4;stroke-linecap:butt;stroke-linejoin:miter;stroke-opacity:1"/>
      <path sodipodi:nodetypes="ccc" inkscape:connector-curvature="0" id="path3070" d="m127.6,46.07   c0.0583,14.45 48.85,27.48 58.02,-9.16 -3.629,4.234 -54.39,15.81 -58.02,9.16   z " style="opacity:0.5;fill:#333333;stroke:none"/>
      <path style="fill:#f2f2f2;stroke:#000000;stroke-width:4;stroke-linecap:butt;stroke-linejoin:miter;stroke-opacity:1" d="m156.7,61.11   c39.74,-2.371 39.82,-57.57 -0.9242,-55.03 -40.74,2.542 -38.81,57.4 0.9242,55.03   z " id="path3072" inkscape:connector-curvature="0" sodipodi:nodetypes="zzz"/>
      <path style="opacity:0.5;fill:#333333;stroke:none" d="m127.6,46.07   c0.0583,14.45 48.85,27.48 58.02,-9.16 -3.629,4.234 -54.39,15.81 -58.02,9.16   z " id="path3074" inkscape:connector-curvature="0" sodipodi:nodetypes="ccc"/>
    </g>
  </g>
</svg>
