<?xml version="1.0" encoding="UTF-8" standalone="no"?>
<!-- Created with Inkscape (http://www.inkscape.org/) -->
<svg xmlns:dc="http://purl.org/dc/elements/1.1/" xmlns:cc="http://creativecommons.org/ns#" xmlns:rdf="http://www.w3.org/1999/02/22-rdf-syntax-ns#" xmlns:svg="http://www.w3.org/2000/svg" xmlns="http://www.w3.org/2000/svg" xmlns:sodipodi="http://sodipodi.sourceforge.net/DTD/sodipodi-0.dtd" xmlns:inkscape="http://www.inkscape.org/namespaces/inkscape" width="502.1832" height="287.12976" id="svg2" sodipodi:version="0.32" inkscape:version="0.48.2 r9819" version="1.0" sodipodi:docname="eastern.svg" inkscape:output_extension="org.inkscape.output.svg.inkscape">
  <defs id="defs4">
    <inkscape:perspective sodipodi:type="inkscape:persp3d" inkscape:vp_x="0 : 526.18109 : 1" inkscape:vp_y="0 : 1000 : 0" inkscape:vp_z="744.09448 : 526.18109 : 1" inkscape:persp3d-origin="372.04724 : 350.78739 : 1" id="perspective10"/>
  </defs>
  <sodipodi:namedview id="base" pagecolor="#ffffff" bordercolor="#666666" borderopacity="1.0" gridtolerance="10000" guidetolerance="10" objecttolerance="10" inkscape:pageopacity="0.0" inkscape:pageshadow="2" inkscape:zoom="1.31" inkscape:cx="93.458015" inkscape:cy="118.67529" inkscape:document-units="px" inkscape:current-layer="body" showgrid="false" inkscape:window-width="1151" inkscape:window-height="874" inkscape:window-x="480" inkscape:window-y="95" inkscape:window-maximized="0" inkscape:snap-global="false" showguides="true" inkscape:guide-bbox="true" fit-margin-top="0" fit-margin-left="0" fit-margin-right="0" fit-margin-bottom="0">
    <sodipodi:guide orientation="0,1" position="87.732824,1.68702" id="guide3145"/>
  </sodipodi:namedview>
  <metadata id="metadata7">
    <rdf:RDF>
      <cc:Work rdf:about="">
        <dc:format>image/svg+xml</dc:format>
        <dc:type rdf:resource="http://purl.org/dc/dcmitype/StillImage"/>
        <dc:title/>
      </cc:Work>
    </rdf:RDF>
  </metadata>
  <g inkscape:label="Layer 1" inkscape:groupmode="layer" id="layer1">
    <g id="body">
      <path style="fill:#ff0000;stroke:#000000;stroke-width:6;stroke-opacity:1" d="M38.11,177.8 3,47.27 106.1,136.6 139.6,20.56 210.6,126.7 261,3 325.9,129 377.8,19.03 416,138.9 499.2,48.8 469.4,177 41.93,178.6   " id="path3030" inkscape:connector-curvature="0" sodipodi:nodetypes="cccccccccccc"/>
      <path sodipodi:nodetypes="ccccccccc" inkscape:connector-curvature="0" d="M75.34,275.1   C37.94,264.1 74.24,251.1 62.44,224.5 52.04,184.7 37.94,211.7 35.54,178.9 83.27,156.9 180.2,154.3 252.2,150.8   c71,3.49 151.2,9.16 216,28.11 -2,32.8 -16,5.8 -27,45.6 -12,26.6 25,39.6 -13,50.6 -28,9 -176,10 -176,10 0,0 -149,-1 -176.9,-10   z " style="fill:#ff0000;stroke:#000000;stroke-width:4;stroke-miterlimit:4;stroke-opacity:1;stroke-dasharray:none" id="path3764"/>
      <path sodipodi:nodetypes="cc" inkscape:connector-curvature="0" id="path3767" d="m49.83,200.3   c88.1,-44.5 305.7,-38.6 411.7,-4.7   " style="fill:#ff0000;stroke:#000000;stroke-width:4;stroke-miterlimit:4;stroke-opacity:1;stroke-dasharray:none"/>
      <path sodipodi:nodetypes="cc" inkscape:connector-curvature="0" id="path3769" d="m63.64,251.1   c120.3,-29.26 216,-31.27 382,6.527   " style="fill:#ff0000;stroke:#000000;stroke-width:4;stroke-miterlimit:4;stroke-opacity:1;stroke-dasharray:none"/>
      <path sodipodi:nodetypes="ccccccc" inkscape:connector-curvature="0" id="path3771" d="m62.54,253.1   c107.7,-56.2 377.7,2 377.7,2 0,0 34,31 -90,30 -31,-6 56,-18 33,-29 -84,-15.2 -199,-18.1 -266,3 -23,13 103,17 84,28   C19.87,281.4 62.54,253.1 62.54,253.1   z " style="opacity:0.5;fill:#333333;fill-opacity:1;stroke:none"/>
      <path sodipodi:nodetypes="ccccc" inkscape:connector-curvature="0" id="path3773" d="M56.34,209   C164.2,149.3 377.2,180.9 453.2,203.1   l9,-8.2   C434.2,182 178.2,130.5 46.94,202   z " style="opacity:0.5;fill:#333333;fill-opacity:1;fill-rule:evenodd;stroke:none"/>
      <path sodipodi:nodetypes="ccccc" inkscape:connector-curvature="0" id="path3067" d="m83.31,209.8   c25.62,-11.16 38.02,-10.74 38.02,-10.74   l4.132,9.091   c-8.678,7.025 -39.67,14.05 -39.67,14.05   z " style="fill:none;stroke:#000000;stroke-width:2;stroke-linecap:butt;stroke-linejoin:miter;stroke-opacity:1"/>
      <path inkscape:connector-curvature="0" id="path3069" d="m147.8,192.9 -6.198,9.917 9.091,7.438 6.612,-9.091   z " style="fill:none;stroke:#000000;stroke-width:2;stroke-linecap:butt;stroke-linejoin:miter;stroke-opacity:1" sodipodi:nodetypes="ccccc"/>
      <path style="fill:none;stroke:#000000;stroke-width:2;stroke-linecap:butt;stroke-linejoin:miter;stroke-opacity:1" d="m375.3,199.8   c32.23,2.479 34.23,2.992 52.41,10.02   l-8.264,10.33   C400.9,212.8 377.8,212.2 377.8,212.2   z " id="path3071" inkscape:connector-curvature="0" sodipodi:nodetypes="ccccc"/>
      <path sodipodi:nodetypes="ccccc" style="fill:none;stroke:#000000;stroke-width:2;stroke-linecap:butt;stroke-linejoin:miter;stroke-opacity:1" d="m351.9,192.5 -9.504,7.438 6.198,11.57 10.74,-8.678   z " id="path3073" inkscape:connector-curvature="0"/>
      <path inkscape:connector-curvature="0" id="path3075" d="m251.9,184.5 -9.504,7.438 9.091,11.98 7.851,-9.091   z " style="fill:none;stroke:#000000;stroke-width:2;stroke-linecap:butt;stroke-linejoin:miter;stroke-opacity:1" sodipodi:nodetypes="ccccc"/>
      <path style="fill:none;stroke:#000000;stroke-width:2;stroke-linecap:butt;stroke-linejoin:miter;stroke-opacity:1" d="m177.7,191.2   c28.51,-5.785 37.6,-2.893 37.6,-2.893   l0,10.74   c-16.12,0.8264 -36.78,2.893 -36.78,2.893   z " id="path3077" inkscape:connector-curvature="0" sodipodi:nodetypes="ccccc"/>
      <path sodipodi:nodetypes="ccccc" inkscape:connector-curvature="0" id="path3079" d="m277.7,187.2   c21.07,1.653 37.6,5.107 37.6,5.107   l0,10.74   c-20.25,-4.132 -36.78,-5.107 -36.78,-5.107   z " style="fill:none;stroke:#000000;stroke-width:2;stroke-linecap:butt;stroke-linejoin:miter;stroke-opacity:1"/>
      <path style="fill:none;stroke:#000000;stroke-width:6;stroke-opacity:1" d="M9.107,66.36 111.4,155.7 144.2,47.27 213.7,148.8 261.8,25.14 325.9,151.1 375.5,44.98 413.7,161 491.5,74.76   " id="path3032" inkscape:connector-curvature="0" sodipodi:nodetypes="ccccccccc"/>
      <path style="opacity:0.5;fill:#4d4d4d;fill-opacity:1;stroke:none" d="M4.527,51.85 67.12,103.8 102.2,161   c0,0 -8.397,15.27 3.817,18.32   l3.053,20.23 -16.03,6.489 5.344,13.36 9.351,-2.195 6.298,23 -54.01,9.256   C68.46,227.3 48.04,199.2 48.04,199.2 38.88,196.1 35.06,176.3 35.06,176.3   z " id="path3034" inkscape:connector-curvature="0" sodipodi:nodetypes="ccccccccccccc"/>
      <path sodipodi:nodetypes="ccccccccccccc" inkscape:connector-curvature="0" id="path3038" d="m495,57.2 -80.15,80.15 -11.45,22.9   c0,0 6.87,14.5 -5.344,17.56   l-6.107,23.28 22.9,4.198 -1.527,11.07 -21.56,-2.958 -6.298,32.16 57.82,10.02   c-8.397,-22.14 8.206,-51.05 8.206,-51.05 9.16,-3.053 15.27,-16.79 15.27,-16.79   z " style="opacity:0.5;fill:#4d4d4d;fill-opacity:1;stroke:none"/>
    </g>
  </g>
</svg>
