<?xml version="1.0" encoding="UTF-8" standalone="no"?>
<!-- Created with Inkscape (http://www.inkscape.org/) -->
<svg xmlns:dc="http://purl.org/dc/elements/1.1/" xmlns:cc="http://creativecommons.org/ns#" xmlns:rdf="http://www.w3.org/1999/02/22-rdf-syntax-ns#" xmlns:svg="http://www.w3.org/2000/svg" xmlns="http://www.w3.org/2000/svg" xmlns:sodipodi="http://sodipodi.sourceforge.net/DTD/sodipodi-0.dtd" xmlns:inkscape="http://www.inkscape.org/namespaces/inkscape" width="477.62524" height="211.48856" id="svg2" sodipodi:version="0.32" inkscape:version="0.48.2 r9819" version="1.0" sodipodi:docname="marquis.svg" inkscape:output_extension="org.inkscape.output.svg.inkscape">
  <defs id="defs4">
    <inkscape:perspective sodipodi:type="inkscape:persp3d" inkscape:vp_x="0 : 526.18109 : 1" inkscape:vp_y="0 : 1000 : 0" inkscape:vp_z="744.09448 : 526.18109 : 1" inkscape:persp3d-origin="372.04724 : 350.78739 : 1" id="perspective10"/>
  </defs>
  <sodipodi:namedview id="base" pagecolor="#ffffff" bordercolor="#666666" borderopacity="1.0" gridtolerance="10000" guidetolerance="10" objecttolerance="10" inkscape:pageopacity="0.0" inkscape:pageshadow="2" inkscape:zoom="1.8526198" inkscape:cx="147.07028" inkscape:cy="108.43146" inkscape:document-units="px" inkscape:current-layer="body" showgrid="false" inkscape:window-width="1151" inkscape:window-height="874" inkscape:window-x="119" inkscape:window-y="5" inkscape:window-maximized="0" inkscape:snap-global="false" showguides="true" inkscape:guide-bbox="true" fit-margin-top="0" fit-margin-left="0" fit-margin-right="0" fit-margin-bottom="0">
    <sodipodi:guide orientation="0,1" position="21.431942,0.8598" id="guide3145"/>
  </sodipodi:namedview>
  <metadata id="metadata7">
    <rdf:RDF>
      <cc:Work rdf:about="">
        <dc:format>image/svg+xml</dc:format>
        <dc:type rdf:resource="http://purl.org/dc/dcmitype/StillImage"/>
        <dc:title/>
      </cc:Work>
    </rdf:RDF>
  </metadata>
  <g inkscape:label="Layer 1" inkscape:groupmode="layer" id="layer1">
    <g id="body">
      <path sodipodi:nodetypes="ccccccccc" inkscape:connector-curvature="0" d="M63.48,199.5   C26.08,188.5 62.38,175.5 50.58,148.9 40.18,109.1 26.08,136.1 23.68,103.3 55.38,75.17 168.4,78.67 240.4,75.18   c71,3.49 184,0 216,28.11 -2,32.8 -16,5.8 -27,45.6 -12,26.6 25,39.6 -13,50.6 -28,9 -176,10 -176,10 0,0 -149,-1 -176.9,-10   z " style="fill:#ff0000;stroke:#000000;stroke-width:4;stroke-miterlimit:4;stroke-opacity:1;stroke-dasharray:none" id="path3764"/>
      <path sodipodi:nodetypes="cc" inkscape:connector-curvature="0" id="path3767" d="m37.97,124.7   c88.1,-44.5 305.7,-38.6 411.7,-4.7   " style="fill:none;stroke:#000000;stroke-width:4;stroke-miterlimit:4;stroke-opacity:1;stroke-dasharray:none"/>
      <path sodipodi:nodetypes="cc" inkscape:connector-curvature="0" id="path3769" d="m51.78,175.5   c120.3,-29.26 216,-31.27 382,6.527   " style="fill:none;stroke:#000000;stroke-width:4;stroke-miterlimit:4;stroke-opacity:1;stroke-dasharray:none"/>
      <path id="path3773" style="opacity:0.5;fill:#333333;fill-opacity:1;fill-rule:evenodd;stroke:none" d="M44.48,133.4   C152.4,73.67 365.4,105.3 441.4,127.5   l9,-8.2   C422.4,106.4 166.4,54.89 35.08,126.4   z m6.2,44.1   c107.7,-56.2 377.7,2 377.7,2 0,0 34,31 -90,30 -31,-6 56,-18 33,-29 -84,-15.2 -199,-18.1 -266,3 -23,13 103,17 84,28   C8.01,205.7 50.68,177.5 50.68,177.5   z " inkscape:connector-curvature="0" sodipodi:nodetypes="cccccccccccc"/>
      <path id="path3079" style="fill:none;stroke:#000000;stroke-width:2;stroke-linecap:butt;stroke-linejoin:miter;stroke-opacity:1" d="m265.9,111.6   c21.07,1.653 37.6,5.107 37.6,5.107   l0,10.74   c-20.25,-4.132 -36.78,-5.107 -36.78,-5.107   z m-100,4   c28.51,-5.785 37.6,-2.893 37.6,-2.893   l0,10.74   c-16.12,0.8264 -36.78,2.893 -36.78,2.893   z m74.18,-6.744 -9.504,7.438 9.091,11.98 7.851,-9.091   z m100,8 -9.504,7.438 6.198,11.57 10.74,-8.678   z m23.4,7.355   c32.23,2.479 34.23,2.992 52.41,10.02   l-8.264,10.33   C389,137.1 365.9,136.6 365.9,136.6   z m-227.5,-6.942 -6.198,9.917 9.091,7.438 6.612,-9.091   z m-64.46,16.94   c25.62,-11.16 38.02,-10.74 38.02,-10.74   l4.132,9.091   c-8.678,7.025 -39.67,14.05 -39.67,14.05   z " inkscape:connector-curvature="0" sodipodi:nodetypes="ccccccccccccccccccccccccccccccccccc"/>
      <path style="fill:#f2f2f2;stroke:#000000;stroke-width:4;stroke-linecap:butt;stroke-linejoin:miter;stroke-opacity:1" d="m322.7,62.77   c39.74,-2.371 39.82,-57.57 -0.9242,-55.03 -40.74,2.542 -38.81,57.4 0.9242,55.03   z " id="path3052" inkscape:connector-curvature="0" sodipodi:nodetypes="zzz"/>
      <path style="opacity:0.5;fill:#333333;stroke:none" d="m293.6,47.73   c0.0583,14.45 48.85,27.48 58.02,-9.16 -3.629,4.234 -54.39,15.81 -58.02,9.16   z " id="path3054" inkscape:connector-curvature="0" sodipodi:nodetypes="ccc"/>
      <path sodipodi:nodetypes="zzz" inkscape:connector-curvature="0" id="path3068" d="m144.7,66.77   c39.74,-2.371 39.82,-57.57 -0.9242,-55.03 -40.74,2.542 -38.81,57.4 0.9242,55.03   z " style="fill:#f2f2f2;stroke:#000000;stroke-width:4;stroke-linecap:butt;stroke-linejoin:miter;stroke-opacity:1"/>
      <path sodipodi:nodetypes="ccc" inkscape:connector-curvature="0" id="path3070" d="m115.6,51.73   c0.0583,14.45 48.85,27.48 58.02,-9.16 -3.629,4.234 -54.39,15.81 -58.02,9.16   z " style="opacity:0.5;fill:#333333;stroke:none"/>
      <path style="fill:#f2f2f2;stroke:#000000;stroke-width:4;stroke-linecap:butt;stroke-linejoin:miter;stroke-opacity:1" d="m144.7,66.77   c39.74,-2.371 39.82,-57.57 -0.9242,-55.03 -40.74,2.542 -38.81,57.4 0.9242,55.03   z " id="path3072" inkscape:connector-curvature="0" sodipodi:nodetypes="zzz"/>
      <path style="opacity:0.5;fill:#333333;stroke:none" d="m115.6,51.73   c0.0583,14.45 48.85,27.48 58.02,-9.16 -3.629,4.234 -54.39,15.81 -58.02,9.16   z " id="path3074" inkscape:connector-curvature="0" sodipodi:nodetypes="ccc"/>
      <path sodipodi:nodetypes="ccccccccccccccccccccccccccccc" inkscape:connector-curvature="0" id="path3107" d="M35.45,90.8   C92.66,75.69 143.7,66.96 143.7,66.96   c17.27,5.938 81.26,4.224 81.26,4.224   l0.5861,-14.22 -7.634,5.344 -3.817,-7.634 2.29,-5.344 -2.29,-10.69 9.16,1.527 -2.29,-8.397 1.527,-9.16 -1.527,-11.45 4.58,-5.344 7.634,5.344 3.817,-9.16 3.817,5.344 6.107,6.87 -3.817,9.16 9.924,0 6.87,3.817 -4.58,9.16 3.053,8.397 -13.74,5.344 0,9.924 -8.397,-8.397 -1.118,18.3   c0,0 56.85,1.268 85.46,-4.669   l93.56,20.16   C226.8,70.83 103.5,77.31 35.45,90.8   z " style="fill:#ff0000;stroke:#000000;stroke-width:4;stroke-linecap:butt;stroke-linejoin:miter;stroke-opacity:1"/>
      <path inkscape:connector-curvature="0" id="path3127" d="m235.3,17.42 -3.817,29.77   " style="fill:none;stroke:#000000;stroke-width:1px;stroke-linecap:butt;stroke-linejoin:miter;stroke-opacity:1" sodipodi:nodetypes="cc"/>
      <path inkscape:connector-curvature="0" id="path3129" d="m252.9,28.87 -15.27,3.053   " style="fill:none;stroke:#000000;stroke-width:1px;stroke-linecap:butt;stroke-linejoin:miter;stroke-opacity:1" sodipodi:nodetypes="cc"/>
      <path inkscape:connector-curvature="0" id="path3131" d="m227.7,20.47 6.107,17.56   " style="fill:none;stroke:#000000;stroke-width:1px;stroke-linecap:butt;stroke-linejoin:miter;stroke-opacity:1" sodipodi:nodetypes="cc"/>
      <path inkscape:connector-curvature="0" id="path3133" d="m223.9,47.95 7.634,-5.344   " style="fill:none;stroke:#000000;stroke-width:1px;stroke-linecap:butt;stroke-linejoin:miter;stroke-opacity:1" sodipodi:nodetypes="cc"/>
      <path inkscape:connector-curvature="0" id="path3135" d="m250.6,40.32 -14.5,-2.29   " style="fill:none;stroke:#000000;stroke-width:1px;stroke-linecap:butt;stroke-linejoin:miter;stroke-opacity:1" sodipodi:nodetypes="cc"/>
      <path style="fill:#ff0000;stroke:#000000;stroke-width:4;stroke-linecap:butt;stroke-linejoin:miter;stroke-opacity:1" d="M36.55,91.88   C26.83,76.76 31.15,64.89 31.15,64.89   l6.477,-12.95 -6.477,-11.34 -3.778,-5.398 -7.557,5.398 -2.159,-11.88 -15.65,-3.239 1.08,13.49 9.176,10.26 1.08,9.176 5.398,8.097 0,10.26 7.557,9.176 -5.398,15.11 15.65,-8.097   " id="path3215" inkscape:connector-curvature="0" sodipodi:nodetypes="cccccccccccccccc"/>
      <path style="fill:none;stroke:#000000;stroke-width:1px;stroke-linecap:butt;stroke-linejoin:miter;stroke-opacity:1" d="m7.938,33.58 13.49,23.75 8.636,35.09 0,0   " id="path3985" inkscape:connector-curvature="0"/>
      <path style="fill:none;stroke:#000000;stroke-width:1px;stroke-linecap:butt;stroke-linejoin:miter;stroke-opacity:1" d="m26.83,42.76 -5.398,10.8 10.8,0   " id="path3987" inkscape:connector-curvature="0"/>
      <path style="fill:none;stroke:#000000;stroke-width:1px;stroke-linecap:butt;stroke-linejoin:miter;stroke-opacity:1" d="M27.91,76.76 26.29,56.25   " id="path3989" inkscape:connector-curvature="0"/>
      <path sodipodi:nodetypes="cccccccccccccccc" inkscape:connector-curvature="0" id="path3991" d="m441.1,89.88   c9.716,-15.11 5.398,-26.99 5.398,-26.99   l-6.477,-12.95 6.477,-11.34 3.778,-5.398 7.557,5.398 2.159,-11.88 15.65,-3.239 -1.08,13.49 -9.176,10.26 -1.08,9.176 -5.398,8.097 0,10.26 -7.557,9.176 5.398,15.11 -15.65,-8.097   " style="fill:#ff0000;stroke:#000000;stroke-width:4;stroke-linecap:butt;stroke-linejoin:miter;stroke-opacity:1"/>
      <path style="fill:none;stroke:#000000;stroke-width:1px;stroke-linecap:butt;stroke-linejoin:miter;stroke-opacity:1" d="M448.4,85.94 458.1,56.79 468.9,34.12   " id="path3993" inkscape:connector-curvature="0"/>
      <path style="fill:none;stroke:#000000;stroke-width:1px;stroke-linecap:butt;stroke-linejoin:miter;stroke-opacity:1" d="m446.2,46.54 9.176,20.51   " id="path3995" inkscape:connector-curvature="0"/>
      <path style="fill:none;stroke:#000000;stroke-width:1px;stroke-linecap:butt;stroke-linejoin:miter;stroke-opacity:1" d="m449.5,41.68 9.176,13.49   " id="path3997" inkscape:connector-curvature="0"/>
    </g>
  </g>
</svg>
