<?xml version="1.0" encoding="UTF-8" standalone="no"?>
<svg xmlns:dc="http://purl.org/dc/elements/1.1/"
                xmlns:cc="http://creativecommons.org/ns#"
                xmlns:rdf="http://www.w3.org/1999/02/22-rdf-syntax-ns#"
                xmlns:svg="http://www.w3.org/2000/svg"
                xmlns="http://www.w3.org/2000/svg"
                width="74"
                height="103"
                version="1.1" >
  <metadata>
    <rdf:RDF>
      <cc:Work rdf:about="">
        <dc:format>image/svg+xml</dc:format>
        <dc:type rdf:resource="http://purl.org/dc/dcmitype/StillImage"/>
        <cc:license rdf:resource=""/>
        <dc:title/>
        <dc:creator>
          <cc:Agent>
            <dc:title>(Drawshield internal)</dc:title>
          </cc:Agent>
        </dc:creator>
      </cc:Work>
    </rdf:RDF>
  </metadata>
<g  style="fill:#ffff00;fill-opacity:1;fill-rule:evenodd;stroke:#000000;stroke-width:3;stroke-linecap:butt;stroke-linejoin:miter;stroke-miterlimit:4;stroke-opacity:1;stroke-dasharray:none" id="body"><path stroke="#000000" stroke-width="2"
       d="M 38.8,23.12 C 42.76,22.24 48.28,25.16 42.90,28.34 C 38.3,32.75 33.29,36.68 28.80,41.1 C 26.74,42.89 20.31,48.37 26.08,48.96 C 29.80,47.84 32.4,41.31 36.92,44.39 C 45.7,51.01 49.31,62.34 50.69,72.87 C 50.91,76.52 52.48,83.51 47.74,84.46 C 43.46,82.11 39.99,78.4 35.38,76.60 C 31.27,74.94 26.77,72.68 22.24,73.73 C 15.90,76.63 10.33,81.13 5.363,85.97 C 0.9210,90.40 9.145,90.76 11.81,92.38 C 17.15,94.34 22.33,96.67 27.52,98.98 C 30.98,100.2 35.33,101. 38.38,98.65 C 48.85,91.07 59.73,83.28 66.90,72.28 C 73.4,61.46 71.70,46.64 63.24,37.32 C 59.63,33.12 55.05,29.78 50.04,27.44 C 55.90,21.61 60.81,14.91 66.66,9.06 C 70.37,6.898 71.86,0.7985 65.69,2.107 C 53.60,2.088 41.50,2.039 29.42,2.684 C 25.22,2.378 21.40,4.464 19.57,8.310 C 16.48,12.56 13.25,16.71 10.37,21.10 C 8.549,23.40 3.537,28.89 7.504,30.81 C 10.02,27.49 13.35,24.43 17.76,24.09 C 24.71,22.96 31.79,23.15 38.8,23.12 z M 59.12,6.708 C 63.90,7.414 57.86,10.91 55.60,9.908 C 46.51,10.45 37.40,10.30 28.30,10.45 C 24.59,8.789 29.02,6.133 31.41,6.981 C 40.64,6.89 49.88,6.799 59.12,6.708 z M 49.61,36.51 C 45.37,34.73 49.57,31.62 52.03,34.03 C 59.63,39.17 65.82,47.53 65.97,57.00 C 65.91,59.99 66.82,65.1 63.4,66.26 C 62.55,62.73 62.89,58.89 61.96,55.31 C 60.66,47.5 55.83,41.09 49.61,36.51 z M 42.70,88.0 C 38.22,89.27 34.07,84.05 29.56,83.0 C 27.31,82.12 19.32,79.64 24.32,77.60 C 31.02,78.88 37.24,82.27 42.38,86.69 C 42.60,86.94 43.35,87.74 42.70,88.0 z"
        /></g></svg>
