<?xml version="1.0" encoding="UTF-8" standalone="no"?>
<svg xmlns:dc="http://purl.org/dc/elements/1.1/"
                xmlns:cc="http://creativecommons.org/ns#"
                xmlns:rdf="http://www.w3.org/1999/02/22-rdf-syntax-ns#"
                xmlns:svg="http://www.w3.org/2000/svg"
                xmlns="http://www.w3.org/2000/svg"
                width="76"
                height="105"
                version="1.1" >
  <metadata>
    <rdf:RDF>
      <cc:Work rdf:about="">
        <dc:format>image/svg+xml</dc:format>
        <dc:type rdf:resource="http://purl.org/dc/dcmitype/StillImage"/>
        <cc:license rdf:resource=""/>
        <dc:title/>
        <dc:creator>
          <cc:Agent>
            <dc:title>(Drawshield internal)</dc:title>
          </cc:Agent>
        </dc:creator>
      </cc:Work>
    </rdf:RDF>
  </metadata>
<g  style="fill:#ffff00;fill-opacity:1;fill-rule:evenodd;stroke:#000000;stroke-width:3;stroke-linecap:butt;stroke-linejoin:miter;stroke-miterlimit:4;stroke-opacity:1;stroke-dasharray:none" id="body"><path stroke="#000000" stroke-width="2"
       d="M 65.97,70.34 C 64.36,67.63 62.18,69.14 60.44,71.03 C 57.38,73.00 54.50,77.44 50.52,76.58 C 45.94,74.62 43.09,69.73 43.64,64.78 C 43.66,52.53 51.17,42.16 58.21,32.78 C 62.41,26.68 66.49,20.49 70.36,14.19 C 71.95,11.01 75.99,4.304 70.29,3.023 C 62.61,2.216 54.84,2.900 47.13,2.922 C 38.73,3.294 30.27,3.099 21.91,4.054 C 18.11,5.685 19.22,11.40 16.65,14.4 C 13.97,19.85 10.59,24.88 8.183,30.38 C 6.538,33.53 10.22,34.7 11.07,31.43 C 15.00,25.62 22.71,25.51 29.01,25.17 C 37.24,24.88 45.49,24.91 53.72,25.10 C 59.74,24.59 56.38,30.25 53.84,32.48 C 48.0,39.51 39.95,43.93 32.67,49.19 C 24.48,54.67 16.28,62.12 14.34,72.23 C 12.50,83.54 18.74,95.90 29.22,100.7 C 34.11,103.3 37.97,98.34 41.18,95.41 C 49.2,86.8 57.52,78.5 65.97,70.34 z M 42.78,50.76 C 39.07,57.78 37.62,66.72 41.36,74.01 C 42.07,77.58 50.81,78.56 47.25,82.15 C 42.982,84.49 38.49,80.43 36.62,76.79 C 33.25,69.93 34.08,61.20 38.22,54.84 C 39.33,53.09 40.92,51.67 42.78,50.76 z M 60.93,6.988 C 62.83,7.207 65.02,6.458 66.69,7.565 C 67.43,11.31 61.18,10.0 58.73,10.45 C 47.22,10.54 35.71,10.63 24.21,10.73 C 25.43,6.413 31,7.690 34.86,7.279 C 43.55,7.182 52.24,7.085 60.93,6.988 z"
        /></g></svg>
