<?xml version="1.0" encoding="UTF-8" standalone="no"?>
<svg xmlns:dc="http://purl.org/dc/elements/1.1/"
                xmlns:cc="http://creativecommons.org/ns#"
                xmlns:rdf="http://www.w3.org/1999/02/22-rdf-syntax-ns#"
                xmlns:svg="http://www.w3.org/2000/svg"
                xmlns="http://www.w3.org/2000/svg"
                width="84"
                height="111"
                version="1.1" >
  <metadata>
    <rdf:RDF>
      <cc:Work rdf:about="">
        <dc:format>image/svg+xml</dc:format>
        <dc:type rdf:resource="http://purl.org/dc/dcmitype/StillImage"/>
        <cc:license rdf:resource=""/>
        <dc:title/>
        <dc:creator>
          <cc:Agent>
            <dc:title>(Drawshield internal)</dc:title>
          </cc:Agent>
        </dc:creator>
      </cc:Work>
    </rdf:RDF>
  </metadata>
<g  style="fill:#ffff00;fill-opacity:1;fill-rule:evenodd;stroke:#000000;stroke-width:3;stroke-linecap:butt;stroke-linejoin:miter;stroke-miterlimit:4;stroke-opacity:1;stroke-dasharray:none" id="body"><path stroke="#000000" stroke-width="2"
       d="M 40.09,77.04 C 39.8,79.34 40.67,81.92 39.44,83.97 C 37.38,86.51 28.60,88.71 34.35,92.11 C 40.99,96.81 47.00,102.3 53.77,106.8 C 58.37,106.2 62.05,102.3 66.11,100.2 C 70.12,97.28 74.83,94.98 78.09,91.20 C 76.23,88.71 70.63,89.50 68.02,86.60 C 64,84.56 63.6,80.15 64.98,76.57 C 66.40,75.72 68.40,76.38 70.06,76.17 C 74.79,76.84 77.52,71.86 78.03,67.84 C 78.34,64.54 78.83,58.39 75.09,57.31 C 71.48,57.31 67.88,57.31 64.28,57.31 C 64.20,47.15 64.46,36.98 64.11,26.82 C 63.73,18.65 58.29,11.5 51.30,7.713 C 47.9,4.683 43.89,5.992 43.33,10.56 C 38.43,23.01 29.60,33.29 22.72,44.63 C 18.15,51.51 12,58.08 5.670,62.4 C 4.191,66.28 7.205,70.38 10,72.76 C 16.2,77.83 24.51,76.98 31.98,77.04 C 34.68,77.04 37.38,77.04 40.09,77.04 z M 59.53,61.34 C 63.73,61.40 67.96,61.21 72.15,61.44 C 74.47,64.42 69.87,65.57 67.51,65.08 C 64.85,65.08 62.19,65.08 59.53,65.08 C 59.68,71.12 59.16,77.20 59.91,83.19 C 60.42,88.10 64.87,91.53 69.34,92.79 C 68.02,97.03 60.70,92.86 58.64,90.24 C 54.17,85.7 55.61,78.9 55.35,73.23 C 55.28,58.84 55.51,44.45 55.21,30.06 C 55.12,24.1 52.96,18.23 48.38,14.33 C 45.35,9.987 53.92,12.52 54.56,15.2 C 60.09,21.83 59.44,30.83 59.53,38.89 C 59.53,46.38 59.53,53.86 59.53,61.34 z M 40.3,33.69 C 40.14,41.52 39.89,49.34 39.65,57.17 C 36.09,57.01 32.45,57.53 28.96,56.77 C 25.02,53.92 27.56,48.30 28,44.52 C 30.40,39.65 33.06,34.7 37.32,31.7 C 38.88,30.58 40.67,31.87 40.3,33.69 z M 38.07,64.80 C 32.41,64.75 26.73,64.89 21.07,64.73 C 17.87,61.46 25.02,60.44 27.55,61.05 C 31.3,61.13 35.07,60.90 38.81,61.18 C 40.40,61.76 40.12,65.11 38.07,64.80 z"
        /></g></svg>
