<?xml version="1.0" encoding="UTF-8" standalone="no"?>
<svg xmlns:dc="http://purl.org/dc/elements/1.1/"
                xmlns:cc="http://creativecommons.org/ns#"
                xmlns:rdf="http://www.w3.org/1999/02/22-rdf-syntax-ns#"
                xmlns:svg="http://www.w3.org/2000/svg"
                xmlns="http://www.w3.org/2000/svg"
                width="79"
                height="90"
                version="1.1" >
  <metadata>
    <rdf:RDF>
      <cc:Work rdf:about="">
        <dc:format>image/svg+xml</dc:format>
        <dc:type rdf:resource="http://purl.org/dc/dcmitype/StillImage"/>
        <cc:license rdf:resource=""/>
        <dc:title/>
        <dc:creator>
          <cc:Agent>
            <dc:title>(Drawshield internal)</dc:title>
          </cc:Agent>
        </dc:creator>
      </cc:Work>
    </rdf:RDF>
  </metadata>
<g  style="fill:#ffff00;fill-opacity:1;fill-rule:evenodd;stroke:#000000;stroke-width:3;stroke-linecap:butt;stroke-linejoin:miter;stroke-miterlimit:4;stroke-opacity:1;stroke-dasharray:none" id="body"><path stroke="#000000" stroke-width="2"
       d="M 5.040,50.81 C 4.96,59.45 11.22,66. 17.24,71.83 C 23.22,76.91 29.82,81.25 36.53,85.28 C 40.4,88.39 44.41,85.23 46.55,81.82 C 51.7,75.50 57.45,69.66 63.75,64.46 C 69.51,59.35 73.81,52.17 73.74,44.2 C 74.13,33.83 67.80,24.49 60.17,17.90 C 55.36,13.6 50.42,9.213 44.29,7.062 C 40.16,5.77 37.60,10.28 34.50,12.14 C 25.72,19.13 16.9,26.36 10.08,35.29 C 7.072,39.87 5.096,45.30 5.040,50.81 z M 44.78,60.32 C 35.4,55.4 27.07,48.03 22.53,38.42 C 21.22,35.28 19.74,30.7 22.82,28.13 C 26.73,25.82 31.60,27.38 35.48,29.06 C 46.01,34.18 55.45,42.62 59.90,53.6 C 61.44,56.78 61.80,62.12 57.18,62.6 C 52.96,63.32 48.54,62.24 44.78,60.32 z M 44.78,12.79 C 50.84,15. 55.80,19.87 60.38,24.4 C 65.78,30.52 70.30,38.54 68.8,46.92 C 66.22,50.82 65.49,44.05 65.43,42.08 C 63.78,32.20 56.0,24.97 48.38,19.22 C 46.66,17.31 39.56,15.42 43.16,12.69 C 43.70,12.6 44.25,12.68 44.78,12.79 z M 46.94,67.22 C 50.42,70.28 43.4,71.16 41.74,69.05 C 33.89,65.17 27.05,59.30 21.56,52.52 C 18.75,48.57 15.76,44.33 15.11,39.42 C 15.86,34.41 18.86,40.82 19.53,42.70 C 24.45,51.83 32.07,59.61 41.22,64.52 C 43.08,65.51 44.99,66.41 46.94,67.22 z"
        /></g></svg>
