<?xml version="1.0" encoding="UTF-8" standalone="no"?>
<svg xmlns:dc="http://purl.org/dc/elements/1.1/"
                xmlns:cc="http://creativecommons.org/ns#"
                xmlns:rdf="http://www.w3.org/1999/02/22-rdf-syntax-ns#"
                xmlns:svg="http://www.w3.org/2000/svg"
                xmlns="http://www.w3.org/2000/svg"
                width="74"
                height="108"
                version="1.1" >
  <metadata>
    <rdf:RDF>
      <cc:Work rdf:about="">
        <dc:format>image/svg+xml</dc:format>
        <dc:type rdf:resource="http://purl.org/dc/dcmitype/StillImage"/>
        <cc:license rdf:resource=""/>
        <dc:title/>
        <dc:creator>
          <cc:Agent>
            <dc:title>(Drawshield internal)</dc:title>
          </cc:Agent>
        </dc:creator>
      </cc:Work>
    </rdf:RDF>
  </metadata>
<g  style="fill:#ffff00;fill-opacity:1;fill-rule:evenodd;stroke:#000000;stroke-width:3;stroke-linecap:butt;stroke-linejoin:miter;stroke-miterlimit:4;stroke-opacity:1;stroke-dasharray:none" id="body"><path stroke="#000000" stroke-width="2"
       d="M 42.04,5.728 C 32.92,5.866 22.52,4.543 15.36,11.45 C 8.016,19.0 5.907,30.24 5.844,40.45 C 6.107,48.9 9.033,58.12 16.12,63.25 C 24.13,67.34 27.43,55.61 33.11,52.24 C 39.07,47.42 43.85,56.70 45.93,61.27 C 49.19,69.43 50.43,78.63 48.88,87.30 C 43.74,91.29 38.22,81.59 32.3,81.03 C 26.5,78.45 19.06,76.64 13.51,80.96 C 9.207,84.28 1.357,88.21 1.72,94.00 C 11.42,96.29 21.28,99.33 29.73,104.8 C 37.00,107.7 41.36,98.3 47.32,95.6 C 56.73,87.73 68.09,79.44 69.86,66.31 C 71.84,52.55 62.73,39.32 51.20,32.67 C 44.25,29.45 40.73,38.45 36.09,41.93 C 32.21,49.3 24.30,47.4 19.13,42.54 C 14.80,39.72 4.67,28.80 15.01,27.56 C 23.48,27.23 32.19,29.25 40.46,26.89 C 46.33,21.66 52.13,15.86 55.58,8.679 C 56.7,2.873 45.43,7.130 42.04,5.728 z M 48.81,41.72 C 44.21,35.55 53.84,38.57 55.48,42.21 C 62.0,48.80 67.55,58.18 65.66,67.79 C 60.61,71.93 63,60.0 60.72,57.25 C 58.38,51.04 53.94,45.83 48.81,41.72 z M 41.47,10.19 C 43.8,9.793 50.4,10.27 45.79,13.28 C 39.64,14.50 33.23,13.72 26.97,13.88 C 21.16,14.34 23.71,9.292 28.22,10.4 C 32.63,10.24 37.05,10.15 41.47,10.19 z M 41.7,92.99 C 36.63,94.62 31.53,88.65 26.20,87.6 C 23,87.61 15.22,82.74 21.94,82.15 C 28.82,84.2 35.77,87.01 41.55,91.35 C 41.96,91.70 42.40,92.58 41.7,92.99 z M 12.09,45.32 C 9.308,41.27 13.15,40.34 14.77,44.19 C 16.96,48.91 26.26,48.89 26.17,53.50 C 20.62,55.01 15.03,49.57 12.09,45.32 z"
        /></g></svg>
