<?xml version="1.0" encoding="UTF-8" standalone="no"?>
<svg xmlns:dc="http://purl.org/dc/elements/1.1/"
                xmlns:cc="http://creativecommons.org/ns#"
                xmlns:rdf="http://www.w3.org/1999/02/22-rdf-syntax-ns#"
                xmlns:svg="http://www.w3.org/2000/svg"
                xmlns="http://www.w3.org/2000/svg"
                width="70"
                height="108"
                version="1.1" >
  <metadata>
    <rdf:RDF>
      <cc:Work rdf:about="">
        <dc:format>image/svg+xml</dc:format>
        <dc:type rdf:resource="http://purl.org/dc/dcmitype/StillImage"/>
        <cc:license rdf:resource=""/>
        <dc:title/>
        <dc:creator>
          <cc:Agent>
            <dc:title>(Drawshield internal)</dc:title>
          </cc:Agent>
        </dc:creator>
      </cc:Work>
    </rdf:RDF>
  </metadata>
<g  style="fill:#ffff00;fill-opacity:1;fill-rule:evenodd;stroke:#000000;stroke-width:3;stroke-linecap:butt;stroke-linejoin:miter;stroke-miterlimit:4;stroke-opacity:1;stroke-dasharray:none" id="body"><path stroke="#000000" stroke-width="2"
       d="M 50.97,25.89 C 54.62,26.51 53.80,19.5 55.39,16.98 C 56.0,13.11 57.7,9.052 56.64,5.152 C 53.66,0.9260 47.45,3.421 43.23,3.948 C 34.08,6.48 26.25,12.55 19.81,19.34 C 10.30,30.26 4.10,44.45 3.744,59.02 C 3.668,70.6 7.34,82.27 14.68,91.34 C 19.3,97.32 25.65,101. 32.41,105. C 37.77,107.5 40.79,101.8 44.24,98.8 C 53.21,90.51 63.08,81.3 65.41,68.69 C 66.36,63.90 66.40,58.67 63.60,54.45 C 58.6,45.89 50.71,39.27 42.09,34.58 C 38.09,31.9 33.36,32.8 29.57,35.36 C 22.41,39.33 15.85,44.75 11.37,51.67 C 12.99,41.35 18.18,31.08 26.96,25.10 C 32.74,21.45 40.27,20.70 46.49,23.71 C 48.02,24.35 49.52,25.09 50.97,25.89 z M 29.23,73.56 C 24.31,68.62 18.90,63.2 17.73,56.05 C 17.9,51.17 24.43,51.78 27.69,53.1 C 34.20,56.12 40.52,60.07 45.26,65.52 C 48.66,69.96 52.44,75.16 51.83,81.02 C 50.60,84.92 45.31,85.30 42.13,83.66 C 37.07,81.42 33.15,77.34 29.23,73.56 z M 41.90,92.85 C 37.6,93.36 34.73,89.26 31.27,87.41 C 23.22,80.78 16.11,72.38 12.66,62.42 C 11.45,59.38 15.93,57.09 15.84,61.34 C 18.47,68.25 22.44,74.87 28.20,79.63 C 32.24,83.46 36.53,87.02 41.52,89.55 C 43.85,90.67 45.97,91.82 41.90,92.85 z M 44.92,9.485 C 39.6,10.75 35.54,14.47 31.10,17.33 C 27.00,19.66 27.70,14.24 30.94,13.67 C 37.07,9.148 44.65,5.38 52.4,6.559 C 56.35,7.47 53.13,10.95 50.45,9.088 C 48.61,8.739 46.72,9.03 44.92,9.485 z M 37.44,37.13 C 42.80,37.9 47.3,41.46 51.36,44.97 C 58.02,50.71 62.15,59.52 61.38,68.38 C 61.72,71.08 58.65,73.38 58.51,69.48 C 58.13,64.5 57.65,59.50 55.12,55.12 C 51.86,48.61 46.16,43.65 39.54,40.76 C 37.81,39.79 31.46,38.0 37.44,37.13 z"
        /></g></svg>
