<?xml version="1.0" encoding="UTF-8" standalone="no"?>
<svg xmlns:dc="http://purl.org/dc/elements/1.1/"
                xmlns:cc="http://creativecommons.org/ns#"
                xmlns:rdf="http://www.w3.org/1999/02/22-rdf-syntax-ns#"
                xmlns:svg="http://www.w3.org/2000/svg"
                xmlns="http://www.w3.org/2000/svg"
                width="75"
                height="112"
                version="1.1" >
  <metadata>
    <rdf:RDF>
      <cc:Work rdf:about="">
        <dc:format>image/svg+xml</dc:format>
        <dc:type rdf:resource="http://purl.org/dc/dcmitype/StillImage"/>
        <cc:license rdf:resource=""/>
        <dc:title/>
        <dc:creator>
          <cc:Agent>
            <dc:title>(Drawshield internal)</dc:title>
          </cc:Agent>
        </dc:creator>
      </cc:Work>
    </rdf:RDF>
  </metadata>
<g  style="fill:#ffff00;fill-opacity:1;fill-rule:evenodd;stroke:#000000;stroke-width:3;stroke-linecap:butt;stroke-linejoin:miter;stroke-miterlimit:4;stroke-opacity:1;stroke-dasharray:none" id="body"><path stroke="#000000" stroke-width="2"
       d="M 20.71,84.54 C 17.04,83.44 16.91,90.34 15.20,92.72 C 14.30,96.66 11.00,100.8 12.72,104.8 C 16.67,108.8 23.07,108.6 28.20,107.6 C 39.93,104.9 50.51,97.68 57.30,87.72 C 65.70,76.04 70.55,61.41 68.66,46.9 C 66.81,30.8 56.82,17.00 44.93,6.604 C 41.82,4.102 36.18,3.137 33.8,7.162 C 25.29,16.0 14.69,23.32 9.052,34.60 C 4.554,43.43 5.407,54.8 11.77,62.55 C 16.05,68.80 22.21,74.01 29.39,76.55 C 33.3,78.2 37.50,75.63 40.86,73.65 C 46.16,70.35 50.41,65.7 54.64,61.2 C 55.93,64.01 54.41,68.60 54.00,72.01 C 51.75,80.36 44.86,88.17 35.79,88.72 C 30.30,89.52 25.04,87.98 20.71,84.54 z M 44.76,38.75 C 49.15,43.41 53.33,48.95 54.43,55.39 C 54.32,60.37 47.58,59.6 44.44,58.0 C 35.52,53.44 27.02,46.93 22.29,37.88 C 20.07,34.01 21.90,28.74 26.261,27.43 C 30.65,26.09 34.68,29.61 37.91,32.13 C 40.29,34.23 42.49,36.52 44.76,38.75 z M 61.46,62.07 C 61.84,76.61 53.40,90.23 41.84,98.55 C 35.54,103.0 27.50,105.5 19.77,104.5 C 17.01,105.4 13.65,100.1 17.67,100.9 C 23.52,103.3 30.26,101.8 35.76,99.23 C 45.53,93.79 53.72,85.02 56.82,74.10 C 59.3,66.28 59.02,57.51 56.13,49.83 C 53.2,42.24 48.11,35.77 41.89,30.65 C 38.47,27.2 34.27,24.92 30.20,22.46 C 29.02,19.28 35.88,19.92 37.2,22.34 C 45.17,27.6 51.79,34.85 56.59,43.03 C 59.80,48.85 61.22,55.47 61.46,62.07 z M 32.37,73.74 C 27.19,72.87 22.85,69.32 19,65.90 C 12.14,59.70 8.188,50.16 9.624,40.90 C 12.19,35.9 12.58,44.83 12.72,47.03 C 14.07,56.63 20.57,65.36 29.30,69.57 C 30,70.68 38.57,72.72 32.37,73.74 z"
        /></g></svg>
