<?xml version="1.0" encoding="UTF-8" standalone="no"?>
<svg xmlns:dc="http://purl.org/dc/elements/1.1/"
                xmlns:cc="http://creativecommons.org/ns#"
                xmlns:rdf="http://www.w3.org/1999/02/22-rdf-syntax-ns#"
                xmlns:svg="http://www.w3.org/2000/svg"
                xmlns="http://www.w3.org/2000/svg"
                width="76"
                height="108"
                version="1.1" >
  <metadata>
    <rdf:RDF>
      <cc:Work rdf:about="">
        <dc:format>image/svg+xml</dc:format>
        <dc:type rdf:resource="http://purl.org/dc/dcmitype/StillImage"/>
        <cc:license rdf:resource=""/>
        <dc:title/>
        <dc:creator>
          <cc:Agent>
            <dc:title>(Drawshield internal)</dc:title>
          </cc:Agent>
        </dc:creator>
      </cc:Work>
    </rdf:RDF>
  </metadata>
<g  style="fill:#ffff00;fill-opacity:1;fill-rule:evenodd;stroke:#000000;stroke-width:3;stroke-linecap:butt;stroke-linejoin:miter;stroke-miterlimit:4;stroke-opacity:1;stroke-dasharray:none" id="body"><path stroke="#000000" stroke-width="2"
       d="M 55.89,44.44 C 61.12,41.2 67.09,37.50 68.54,31.05 C 70.21,22.47 64.44,14.61 57.99,9.635 C 53.23,6.28 47.71,2.856 41.67,3.208 C 34.74,5.686 28.72,10.16 22.72,14.33 C 17.81,17.65 12.6,22.40 12.97,28.88 C 12.60,35.76 17.89,40.89 22.75,44.9 C 26.89,46.82 25.22,49.52 22.02,51.04 C 16.26,54.85 10.17,59.22 7.424,65.79 C 4.405,74.50 9.316,83.73 15.4,89.77 C 21.98,96.07 29.05,102. 37.94,105.2 C 44.20,105.8 49.60,101.5 54.21,97.89 C 62.4,90.53 69.69,81.09 71.65,69.98 C 73.04,61.92 68.95,53.78 62.50,49.02 C 60.3,47.37 58.16,45.85 55.89,44.44 z M 49.8,63.59 C 54.76,68.22 59.08,74.42 59.47,81.35 C 59.49,87.0 52,86.8 49.19,84.68 C 38.66,79.64 29.79,70.24 26.78,58.82 C 25.00,54.76 28.95,49.17 33.3,51.91 C 39.50,54.72 45.1,58.66 49.8,63.59 z M 53.29,33.78 C 56.20,37.83 51,44.53 47.32,40.62 C 39.20,36.01 31.06,29.99 27.37,21.10 C 25.20,16.68 30.04,12.67 34.00,15.35 C 39.32,17.91 44.05,21.72 48.11,26.00 C 50.14,28.36 51.99,30.94 53.29,33.78 z M 44.22,7.143 C 48.73,7.384 52.55,10.35 56.28,12.62 C 61.06,16.17 65.84,21.35 65.97,27.64 C 66.93,31.40 61.85,33.03 62.61,28.50 C 62.18,20.56 55.27,14.89 48.6,11.52 C 47.56,10.39 38.18,8.530 44.22,7.143 z M 48.25,88.78 C 53.69,91.92 43.55,92.03 41.96,89.46 C 32.28,84.39 24.14,75.6 21.00,65. C 19.34,62.89 21.2,55.23 23.18,60.75 C 26.73,70.58 32.87,79.82 42.0,85.19 C 44.06,86.47 46.14,87.66 48.25,88.78 z"
        /></g></svg>
