<?xml version="1.0" encoding="UTF-8" standalone="no"?>
<svg xmlns:dc="http://purl.org/dc/elements/1.1/"
                xmlns:cc="http://creativecommons.org/ns#"
                xmlns:rdf="http://www.w3.org/1999/02/22-rdf-syntax-ns#"
                xmlns:svg="http://www.w3.org/2000/svg"
                xmlns="http://www.w3.org/2000/svg"
                width="64"
                height="100"
                version="1.1" >
  <metadata>
    <rdf:RDF>
      <cc:Work rdf:about="">
        <dc:format>image/svg+xml</dc:format>
        <dc:type rdf:resource="http://purl.org/dc/dcmitype/StillImage"/>
        <cc:license rdf:resource=""/>
        <dc:title/>
        <dc:creator>
          <cc:Agent>
            <dc:title>(Drawshield internal)</dc:title>
          </cc:Agent>
        </dc:creator>
      </cc:Work>
    </rdf:RDF>
  </metadata>
<g  style="fill:#ffff00;fill-opacity:1;fill-rule:evenodd;stroke:#000000;stroke-width:3;stroke-linecap:butt;stroke-linejoin:miter;stroke-miterlimit:4;stroke-opacity:1;stroke-dasharray:none" id="body"><path stroke="#000000" stroke-width="2"
       d="M 36.12,90.3 C 39.66,90.20 43.66,90.74 46.74,88.68 C 51.30,84.45 55.55,79.79 59.01,74.62 C 60.60,72.6 60.26,68.69 57.08,69.71 C 53.55,69.84 50.02,69.96 46.49,70.09 C 46.52,58.17 46.41,46.24 46.54,34.33 C 46.3,30.20 50.16,28.22 52.62,25.92 C 53.17,23.14 50,22.24 48.33,20.75 C 42.44,16.51 36.54,12.27 30.65,8.028 C 26.6,8.145 24.83,13.16 22.29,15.75 C 18.39,21. 13.63,27.24 9.014,32.76 C 5.874,34.92 9.254,39.06 11.57,35.6 C 14.50,33.42 16.17,29.30 19.85,28.33 C 22.72,30.36 20.98,35.01 21.60,38.20 C 21.73,48.89 21.60,59.59 21.49,70.28 C 19.14,71.79 15.43,72.49 13.20,74.80 C 8.836,78.81 5.911,84.4 4.874,90.27 C 3.985,93.49 9.045,96.22 9.451,92.12 C 14.16,89.3 19.78,90.46 24.99,90.30 C 28.70,90.3 32.4,90.36 36.12,90.3 z M 39.2,74.70 C 39.26,60.79 38.37,46.85 39.2,32.96 C 39.05,29.7 42.38,25.84 39.61,23.22 C 35.97,20.37 31.76,17.76 29.57,13.54 C 32.52,12.33 36.46,16.98 39.48,18.56 C 41.03,20.77 47.90,22.04 45.02,25.34 C 42.66,29.35 42.85,34.26 42.74,38.78 C 42.75,50.70 42.69,62.63 42.8,74.55 C 45.24,74.62 47.61,74.41 49.94,74.6 C 52.69,77.18 45.91,78.52 43.92,78.02 C 35.41,78.31 26.91,78.59 18.40,78.8 C 19.12,74.87 24.52,75.93 27.51,75.35 C 31.44,75.15 35.3,74.91 39.2,74.70 z"
        /></g></svg>
