<?xml version="1.0" encoding="UTF-8" standalone="no"?>
<svg xmlns:dc="http://purl.org/dc/elements/1.1/"
                xmlns:cc="http://creativecommons.org/ns#"
                xmlns:rdf="http://www.w3.org/1999/02/22-rdf-syntax-ns#"
                xmlns:svg="http://www.w3.org/2000/svg"
                xmlns="http://www.w3.org/2000/svg"
                width="69"
                height="96"
                version="1.1" >
  <metadata>
    <rdf:RDF>
      <cc:Work rdf:about="">
        <dc:format>image/svg+xml</dc:format>
        <dc:type rdf:resource="http://purl.org/dc/dcmitype/StillImage"/>
        <cc:license rdf:resource=""/>
        <dc:title/>
        <dc:creator>
          <cc:Agent>
            <dc:title>(Drawshield internal)</dc:title>
          </cc:Agent>
        </dc:creator>
      </cc:Work>
    </rdf:RDF>
  </metadata>
<g  style="fill:#ffff00;fill-opacity:1;fill-rule:evenodd;stroke:#000000;stroke-width:3;stroke-linecap:butt;stroke-linejoin:miter;stroke-miterlimit:4;stroke-opacity:1;stroke-dasharray:none" id="body"><path stroke="#000000" stroke-width="2"
       d="M 25.53,25.68 C 31.91,31.60 38.28,40.11 36.28,49.31 C 34.3,58.10 24.96,60.97 18.5,65.86 C 10.72,71.27 5.145,79.76 2.753,88.93 C 2.541,96.86 8.514,85.14 12.71,86.39 C 22.26,85.05 31.98,85.68 41.6,85.74 C 47.58,87.25 52.59,83.50 55.80,78.80 C 59.4,74.36 64.77,70.78 66.8,65.39 C 62.8,62.71 56.66,64.91 51.75,64.31 C 46.43,64.3 40.86,65.1 35.76,63.24 C 34.73,57.84 44.54,55.32 47.58,51.06 C 53.93,45.79 59.55,37.85 57.62,29.18 C 55.27,16.56 42.98,9.194 31.65,5.59 C 26.74,6.539 23.1,11.62 19.05,14.4 C 13.67,19.29 8.03,23.90 3.192,29.28 C 3.278,35.74 10.94,27.74 13.00,25.32 C 16.30,20.02 21.87,22.16 25.53,25.68 z M 31.57,12.58 C 36.08,10.37 40.86,15.20 44.39,17.83 C 49.89,22.75 55.22,30.32 52.75,38.01 C 49.01,41.03 50.68,29.77 47.53,27.71 C 44.01,21.49 37.98,17.17 31.65,14.16 L 31,13.55 L 31.57,12.58 L 31.57,12.58 z M 25.67,69.31 C 36.15,69.35 46.63,69.24 57,69.37 C 59.50,72.3 50.52,72.87 47.88,72.76 C 39.79,72.67 31.66,72.97 23.60,72.61 C 21.49,71.24 23.73,68.90 25.67,69.31 z"
        /></g></svg>
