<?xml version="1.0" encoding="UTF-8" standalone="no"?>
<svg xmlns:dc="http://purl.org/dc/elements/1.1/"
                xmlns:cc="http://creativecommons.org/ns#"
                xmlns:rdf="http://www.w3.org/1999/02/22-rdf-syntax-ns#"
                xmlns:svg="http://www.w3.org/2000/svg"
                xmlns="http://www.w3.org/2000/svg"
                width="137"
                height="124"
                version="1.1" >
  <metadata>
    <rdf:RDF>
      <cc:Work rdf:about="">
        <dc:format>image/svg+xml</dc:format>
        <dc:type rdf:resource="http://purl.org/dc/dcmitype/StillImage"/>
        <cc:license rdf:resource=""/>
        <dc:title/>
        <dc:creator>
          <cc:Agent>
            <dc:title>(Drawshield internal)</dc:title>
          </cc:Agent>
        </dc:creator>
      </cc:Work>
    </rdf:RDF>
  </metadata>
<g  style="fill:#ffff00;fill-opacity:1;fill-rule:evenodd;stroke:#000000;stroke-width:3;stroke-linecap:butt;stroke-linejoin:miter;stroke-miterlimit:4;stroke-opacity:1;stroke-dasharray:none" id="body"><path stroke="#000000" stroke-width="2"
       d="M 7.589,99.48 C 11.04,105.6 19.82,106.1 25.03,110.6 C 31.80,114.7 38.14,119.9 45.17,123.4 C 50.38,123.1 53,118.3 57.89,115.3 C 63.77,110.0 70.21,105.4 76.56,100.7 C 75.12,97.89 68.04,103.0 64.99,99.11 C 56.18,94.82 47.27,90.21 39.91,83.69 C 39.79,78.32 50,77.1 52.07,71.60 C 58.83,63.92 63.29,53.85 62.18,43.46 C 61.90,38.60 58.75,30.55 65.61,29.13 C 74.96,26.26 83.63,32.09 91.84,35.7 C 95.96,37.36 102.5,39.75 96.29,44.03 C 87.0,52.97 83.94,66.28 83.76,78.74 C 84.01,86.66 85.79,94.4 87.07,102.2 C 88.86,110.9 95.80,117.3 102.4,122.6 C 108,122.2 113.2,116.2 118.4,112.9 C 123.9,108.3 129.9,103.9 134.0,98.03 C 128.2,99.69 121.9,98.78 118.6,92.99 C 115.0,88.68 114.9,82.95 115.1,77.6 C 115.1,67.14 115.1,56.67 115.1,46.19 C 117.1,40.39 118,33.85 124.5,30.71 C 127.7,29.60 131.1,21.54 125.3,25.30 C 120,26.36 114.5,32.66 110.8,30.93 C 117.9,25.10 126,20.07 131.6,12.73 C 131.0,7.383 123.6,15.15 120.3,14.37 C 109.0,14.51 101.2,2.465 89.74,4.150 C 84.54,6.412 80.37,10.90 76.10,14.65 C 71.22,19.6 66.61,25.35 60.21,28.35 C 55.57,25.95 52.73,19.40 48.24,15.92 C 42.7,10.82 36.31,4.633 28.26,4.975 C 21.22,8.32 16.52,15.04 11.47,20.76 C 8.398,24.53 1.946,31.5 10.85,32.65 C 16.66,34.48 22.61,36.41 27.00,40.86 C 35.88,49 40.36,64.82 34.44,76.65 C 28.88,87.14 18.1,93.33 7.734,98.18 L 7.66,98.83 L 7.589,99.48 L 7.589,99.48 z M 31.06,88.10 C 34.47,80.73 41.83,90.06 46,91.66 C 52.86,95.62 59.71,98.97 64.89,104.2 C 60.79,108 53.71,102.9 49.06,101.1 C 42.87,97.70 36.48,94.20 31.51,89 L 31.06,88.10 L 31.06,88.10 z M 106.6,65.78 C 106.6,56.44 105.2,45.83 111.2,37.90 C 115.9,33.30 111.7,44.1 111.9,46.94 C 110.4,59.47 110.0,72.30 112.0,84.79 C 113.4,90.29 115.9,95.95 121.2,98.61 C 124.9,100.5 125.9,106.0 120.5,103.6 C 111.8,101.8 108.5,92.18 107,84.42 C 106.4,78.25 106.7,71.99 106.6,65.78 z M 54.8,48.21 C 55.38,36.39 48.61,25.41 39.26,18.62 C 36.42,14.1 27.23,14.6 27.0,9.407 C 34.23,6.146 40.71,14.81 46.43,18.38 C 54.34,25.2 59.01,35.65 58.13,46.19 C 58.2,52.90 57.98,60.97 52.22,65.49 C 51.84,59.52 55.1,54.16 54.8,48.21 z M 88.37,10.05 C 88.87,4.170 97.51,10.18 100.9,11.10 C 106.5,13.65 112.5,15.68 117.7,18.9 C 111.7,21.95 105.0,18.38 99.37,16.22 C 95.53,14.50 91.83,12.45 88.37,10.05 z"
        /></g></svg>
