<?xml version="1.0" encoding="UTF-8" standalone="no"?>
<svg xmlns:dc="http://purl.org/dc/elements/1.1/"
                xmlns:cc="http://creativecommons.org/ns#"
                xmlns:rdf="http://www.w3.org/1999/02/22-rdf-syntax-ns#"
                xmlns:svg="http://www.w3.org/2000/svg"
                xmlns="http://www.w3.org/2000/svg"
                width="168"
                height="124"
                version="1.1" >
  <metadata>
    <rdf:RDF>
      <cc:Work rdf:about="">
        <dc:format>image/svg+xml</dc:format>
        <dc:type rdf:resource="http://purl.org/dc/dcmitype/StillImage"/>
        <cc:license rdf:resource=""/>
        <dc:title/>
        <dc:creator>
          <cc:Agent>
            <dc:title>(Drawshield internal)</dc:title>
          </cc:Agent>
        </dc:creator>
      </cc:Work>
    </rdf:RDF>
  </metadata>
<g  style="fill:#ffff00;fill-opacity:1;fill-rule:evenodd;stroke:#000000;stroke-width:3;stroke-linecap:butt;stroke-linejoin:miter;stroke-miterlimit:4;stroke-opacity:1;stroke-dasharray:none" id="body"><path stroke="#000000" stroke-width="2"
       d="M 70.64,96.1 C 70.76,104.4 70.40,112.8 70.82,121.1 C 77.09,122.5 82.86,117.5 89.26,118.7 C 94.43,119.1 105.4,125.67 104.3,115.7 C 104.2,87.0 103.2,58.47 103.4,29.85 C 106.1,22.14 115.0,25.06 120.5,27.55 C 123.9,29.60 132.7,31.94 130.6,37.0 C 127.7,39.93 124.8,42.81 121.9,45.70 C 119.2,53.93 119.6,62.78 118.5,71.30 C 119.0,83.89 116.8,97.27 122.7,108.9 C 126.4,114 133,123.686 140.7,120.2 C 148.4,112.2 156.2,104.1 163.9,96.1 C 167.4,90.01 161,91.90 158.6,94.38 C 152.1,94.96 148.2,87.14 148.8,81.41 C 148.8,66.9 148.7,52.45 148.9,37.98 C 149.4,31.05 157.7,27.7 159.6,22.34 C 156.3,21.52 153.4,24.6 150.397,25.77 C 147.8,26.72 145.7,29.05 142.9,28.85 C 148.1,23.5 153.2,18.18 159.7,14.41 C 163.7,12.74 165.5,3.137 159.4,8.258 C 153.275,12.44 146.3,7.107 140.7,4.365 C 135.9,1.382 129.1,-0.5014 124.3,3.721 C 116.8,9.242 111.1,16.8 104.3,23.09 C 99.68,21.01 99.0,11.71 93.82,8.331 C 89.20,3.522 82.3,0.04162 75.60,1.508 C 68.11,8.393 61.66,16.56 53.07,22.2 C 48.50,17.44 45.32,11.24 39.30,7.863 C 34.41,5.074 28.45,-0.9242 22.59,2.184 C 15.58,7.718 9.093,14.52 5.280,22.67 C 4.250,29.96 13.66,30.00 17.84,33.39 C 29.13,40.77 35.10,57.10 28.70,69.44 C 23.4,79.74 11.93,83.88 4.424,92.04 C 0.2645,99.30 12.06,100.7 16.13,104 C 22.19,107.8 28.22,111.2 33.27,116.0 C 38.69,121.6 47.19,120.2 51.3,114.0 C 57.81,108.0 63.83,101.6 70.64,96.1 z M 90.08,16.3 C 86.47,12.89 74.37,9.344 79.71,3.653 C 86.32,4.883 90.02,11.02 94.80,15.17 C 96.72,16.78 98.39,18.53 98.39,21.20 C 99.57,48.20 99.08,75.27 99.44,102.3 C 98.38,105.8 101.6,115.8 97.42,114 C 92.91,110.4 95.04,103.8 94.54,98.28 C 94.4,75.50 94.74,52.70 94.39,29.92 C 93.93,25.15 92.62,20.41 90.08,16.3 z M 141.0,57.07 C 141.8,50.05 139.3,42.16 143.3,35.89 C 147.6,28.90 144,42.80 145.0,45.55 C 144.4,56.11 144.0,66.72 144,77.30 C 144.4,85.21 147.9,93.00 153.0,98.4 C 152.5,104.1 143.1,96.93 143.1,92.98 C 140.0,83.21 141.7,72.76 141,62.69 C 141.0,60.81 141,58.94 141.0,57.07 z M 24.27,81.41 C 29.92,76.46 35.74,85.26 40.92,87.51 C 46.09,91.11 51.99,93.85 56.61,98.1 C 56.12,102.0 48.35,97.87 46.09,95.88 C 39.02,91.03 30.30,88.29 24.40,81.95 L 24.27,81.41 L 24.27,81.41 z M 36.22,80.11 C 28.84,75.04 43.72,71.29 46.10,67.08 C 53.62,58.70 58.03,46.67 55.96,35.39 C 51.71,29.39 56.58,21.22 63.43,25.97 C 71.34,31.60 70.52,42.55 70.64,51.16 C 70.94,65.27 70.69,79.39 70.64,93.50 C 66.49,92.2 62.18,98.03 57.65,93.65 C 50.34,89.43 43.2,84.75 36.22,80.11 z M 48.89,42.1 C 49.4,27.78 38.71,15.8 26.31,10.10 C 19.16,7.651 27.90,2.632 31.25,7.179 C 42.15,13.8 52.87,24.19 53.00,37.86 C 53.56,45.7 51.60,56.61 45.44,60.55 C 45.1,54.17 48.89,48.44 48.89,42.1 z M 131.6,5.955 C 137.9,7.412 146.0,9.038 149.8,14.59 C 147.1,14.82 144.5,14.59 142.3,12.91 C 138.9,10.94 135.0,9.563 131.9,7.181 L 131.6,5.955 L 131.6,5.955 z"
        /></g></svg>
