<?xml version="1.0" encoding="UTF-8" standalone="no"?>
<svg xmlns:dc="http://purl.org/dc/elements/1.1/"
                xmlns:cc="http://creativecommons.org/ns#"
                xmlns:rdf="http://www.w3.org/1999/02/22-rdf-syntax-ns#"
                xmlns:svg="http://www.w3.org/2000/svg"
                xmlns="http://www.w3.org/2000/svg"
                width="142"
                height="135"
                version="1.1" >
  <metadata>
    <rdf:RDF>
      <cc:Work rdf:about="">
        <dc:format>image/svg+xml</dc:format>
        <dc:type rdf:resource="http://purl.org/dc/dcmitype/StillImage"/>
        <cc:license rdf:resource=""/>
        <dc:title/>
        <dc:creator>
          <cc:Agent>
            <dc:title>(Drawshield internal)</dc:title>
          </cc:Agent>
        </dc:creator>
      </cc:Work>
    </rdf:RDF>
  </metadata>
<g  style="fill:#ffff00;fill-opacity:1;fill-rule:evenodd;stroke:#000000;stroke-width:3;stroke-linecap:butt;stroke-linejoin:miter;stroke-miterlimit:4;stroke-opacity:1;stroke-dasharray:none" id="body"><path stroke="#000000" stroke-width="2"
       d="M 15.67,103.3 C 20.02,108.2 28.51,108.6 34.03,112.8 C 41.05,116.6 48.06,120.4 54.20,125.5 C 59.83,130.9 65.46,124.7 69.75,120 C 76.52,114.6 84.19,108.8 89.27,100.9 C 85.04,100.7 77.54,106.4 72.33,101.0 C 64.02,96.20 55.16,92.33 47.24,86.88 C 48.22,82.37 57.55,81.50 61.23,78.15 C 65.55,75.66 71.41,73.68 72.13,67.97 C 72.19,63.13 72.89,57.32 79.2,59.98 C 87.64,61.58 89.84,71.15 90.6,78.4 C 91.92,91.94 90.87,106.7 98.59,118.6 C 102.3,122.7 107,127.7 113.1,127.7 C 117.9,124.8 121.4,119.9 125.7,116.1 C 128.9,111.4 136.5,109.1 136.8,103.1 C 135.1,101.8 132.1,102.8 129.9,102.5 C 125.2,102.3 124.7,95.36 124.2,91.65 C 123.3,79.30 117,66.50 105,60.93 C 102.2,60.43 92.15,57.30 100.3,56.16 C 107.4,54.2 111.3,47.68 115,41.90 C 119.4,36.41 126.9,35.70 133.4,36.28 C 139.6,33.12 130.1,26.4 129.7,21.54 C 127.5,15.27 123.5,7.24 115.7,7.631 C 106.7,7.035 98.38,13.65 96.40,22.38 C 93.78,30.57 95.72,39.42 92.92,47.53 C 90.10,54.7 81.45,55.76 74.71,55.5 C 71.17,55.31 72.99,51.37 72.55,48.98 C 72.4,35.82 72.6,22.65 72.46,9.500 C 68.70,4.797 63.31,10.02 59.37,11.80 C 50.27,16.49 38.64,19.55 29.24,13.91 C 22.62,9.407 14.82,12.62 11.48,19.41 C 7.921,23.66 -1.265,31.86 8.912,34.45 C 16.07,36.97 24.71,37.37 30.83,32.13 C 33.84,30.56 40.83,22.17 39.75,30.12 C 40.5,45.42 40.36,60.76 40.13,76.08 C 40.81,82.06 37.43,86.76 33.11,90.54 C 28,96.32 21.1,97.35 16.12,102.2 L 15.78,102.8 L 15.67,103.3 L 15.67,103.3 z M 37.56,92.45 C 38.63,85.11 47.52,91.46 51.45,93.27 C 59.98,97.59 68.23,102.4 76.29,107.5 C 74.82,109.3 72.09,108 70.05,108.4 C 61.3,105.1 52.92,100 44.47,96.77 C 42.19,95.29 39.8,93.96 37.56,92.45 z M 110.5,69.55 C 116.7,71.03 117.4,78.89 118.8,84.07 C 120.4,89.65 120.3,95.63 122.1,101.0 C 124.4,103.6 130.1,110.6 122.9,108.0 C 116.1,105.5 115.6,97.17 115.4,91.03 C 114,85.18 114.3,78.93 111.7,73.5 C 110,72.40 110,70.96 110.5,69.55 z M 63.33,66.81 C 63.33,49.6 63.33,32.44 63.33,15.26 C 71.03,9.040 67.41,23.49 68.62,27.72 C 68.95,40.60 68.75,53.4 68.80,66.38 C 65.51,72.51 59.05,77.67 51.96,78.19 C 55.75,74.40 59.54,70.60 63.33,66.81 z M 115.7,32.68 C 121.3,32.05 111.5,35.90 111.9,39.2 C 110.4,41.41 105.6,50.25 103.8,46.84 C 104.7,40.80 109.0,33.20 115.7,32.68 z M 124.2,29.52 C 121.7,24.12 114,14.97 117.7,10.74 C 123.8,14.01 124.7,22.77 128.3,28.40 C 131.9,31.49 124.7,30.53 124.2,29.52 z M 18.26,16.41 C 22.22,10.62 28.6,19.37 33.88,19.29 C 37.21,23.0 25.0,20.99 22.13,20.23 C 20.57,19.45 18.45,18.38 18.26,16.41 z"
        /></g></svg>
