<?xml version="1.0" encoding="UTF-8" standalone="no"?>
<svg xmlns:dc="http://purl.org/dc/elements/1.1/"
                xmlns:cc="http://creativecommons.org/ns#"
                xmlns:rdf="http://www.w3.org/1999/02/22-rdf-syntax-ns#"
                xmlns:svg="http://www.w3.org/2000/svg"
                xmlns="http://www.w3.org/2000/svg"
                width="131"
                height="154"
                version="1.1" >
  <metadata>
    <rdf:RDF>
      <cc:Work rdf:about="">
        <dc:format>image/svg+xml</dc:format>
        <dc:type rdf:resource="http://purl.org/dc/dcmitype/StillImage"/>
        <cc:license rdf:resource=""/>
        <dc:title/>
        <dc:creator>
          <cc:Agent>
            <dc:title>(Drawshield internal)</dc:title>
          </cc:Agent>
        </dc:creator>
      </cc:Work>
    </rdf:RDF>
  </metadata>
<g  style="fill:#ffff00;fill-opacity:1;fill-rule:evenodd;stroke:#000000;stroke-width:3;stroke-linecap:butt;stroke-linejoin:miter;stroke-miterlimit:4;stroke-opacity:1;stroke-dasharray:none" id="body"><path stroke="#000000" stroke-width="2"
       d="M 20.05,148.1 C 22.06,153.0 30.12,148.5 34.09,147.3 C 41.82,143.6 49.3,139 57.77,137.29 C 62.46,135.3 68.62,134.9 72.32,131.7 C 66.70,128.8 64.33,122.2 65.71,116 C 72.16,113.7 76.75,122.9 83.18,121.3 C 89.31,116.7 94.3,110.7 100.1,105.7 C 110.9,95.7 122.1,84.72 125.4,69.8 C 131.1,46.76 120.0,21.49 100.5,8.460 C 96.19,5.360 89.90,0.527 84.69,4.542 C 80.58,9.852 76.23,15.01 70.27,18.41 C 60.65,25.50 48.51,28.9 36.61,27.29 C 32.47,26.37 22.84,25.62 28.74,32.24 C 33.55,38.45 32.6,46.79 32.77,54.19 C 31.60,58.20 34.61,66.32 31.06,67.80 C 26.49,66.56 24.23,70.60 22.20,74.06 C 16.78,82.83 10.85,91.53 7.237,101.2 C 13.90,98.08 20.99,95.53 28.29,99.21 C 33.0,99.30 33.27,103.2 32.87,106.8 C 32.42,116.9 34.42,127.2 31.80,137.2 C 30.58,143.6 22.49,143.4 20.05,148.1 z M 56.77,111.8 C 64.31,111.6 61.26,120.2 62.85,124.9 C 64.85,129.8 60.40,131 58.61,126.3 C 56.55,121.8 56.75,116.7 56.77,111.8 z M 56.19,85.51 C 55.06,68.69 55.10,51.80 55.6,34.96 C 56.07,29.30 60.61,29.05 59.22,34.48 C 59.22,49.24 59.22,63.99 59.22,78.74 C 59.68,87 70.20,87.42 75.79,91.11 C 83.33,94.63 91.63,97.17 99.18,100 C 96.25,107.1 88.27,99 83.23,98.60 C 74.58,95.59 65.91,92.49 57.92,87.96 C 57.13,87.29 56.76,86.3 56.19,85.51 z M 63.9,27.91 C 75.25,28.56 83.23,38.16 89.55,46.54 C 97.05,57.35 103.7,69.51 104.4,82.93 C 105,87.95 106.4,99.07 97.95,94.87 C 86.82,91.15 75.14,87.9 65.43,81.1 C 62.8,78.65 64.40,74 63.97,71.53 C 63.97,56.99 63.97,42.45 63.9,27.91 z M 26.96,73.85 C 28.72,66.14 37.47,77.80 29.35,75.89 C 28.38,75.49 27.20,75.01 26.96,73.85 z M 120.2,59.45 C 120.4,44.37 111.7,30.75 101.3,20.49 C 97.60,15.44 89.19,14.12 87.42,8.006 C 93.62,5.608 97.81,13.62 103.1,15.49 C 115,26.30 124.0,42.28 123.5,59.01 C 124.1,63.86 121.4,74.70 119.2,75.01 C 119.4,69.82 119.9,64.63 120.2,59.45 z"
        /></g></svg>
