<?xml version="1.0" encoding="UTF-8" standalone="no"?>
<svg xmlns:dc="http://purl.org/dc/elements/1.1/"
                xmlns:cc="http://creativecommons.org/ns#"
                xmlns:rdf="http://www.w3.org/1999/02/22-rdf-syntax-ns#"
                xmlns:svg="http://www.w3.org/2000/svg"
                xmlns="http://www.w3.org/2000/svg"
                width="171"
                height="126"
                version="1.1" >
  <metadata>
    <rdf:RDF>
      <cc:Work rdf:about="">
        <dc:format>image/svg+xml</dc:format>
        <dc:type rdf:resource="http://purl.org/dc/dcmitype/StillImage"/>
        <cc:license rdf:resource=""/>
        <dc:title/>
        <dc:creator>
          <cc:Agent>
            <dc:title>(Drawshield internal)</dc:title>
          </cc:Agent>
        </dc:creator>
      </cc:Work>
    </rdf:RDF>
  </metadata>
<g  style="fill:#ffff00;fill-opacity:1;fill-rule:evenodd;stroke:#000000;stroke-width:3;stroke-linecap:butt;stroke-linejoin:miter;stroke-miterlimit:4;stroke-opacity:1;stroke-dasharray:none" id="body"><path stroke="#000000" stroke-width="2"
       d="M 62.06,106 C 75.12,113.5 89.02,118.7 102.6,124.3 C 110.7,125.4 115.0,116.9 120.9,113.0 C 135.5,101.1 153.3,91.01 161.5,73.21 C 169.9,54.7 166,31.77 153.5,16.43 C 148,11.93 144,4.148 137.4,4.219 C 131.8,4.03 128,10.58 124,13.3 C 119.3,17.32 114.3,23.92 108.1,24.68 C 106.5,18.73 104.6,12.30 99.07,8.523 C 94.3,4.189 86.21,0.6287 80.76,5.608 C 74.19,11.57 67.62,17.53 61.05,23.49 C 56.85,17.64 55.6,9.04 48.72,4.833 C 41.92,-2.248 34.10,4.719 28.93,9.884 C 24.41,14.5 19.16,19.12 16.70,25.2 C 20.14,27.27 29.72,28.13 29.37,35.3 C 29.30,49.0 29.50,62.86 29.27,76.63 C 26.29,84.06 17.96,87.13 12.63,92.65 C 7.173,95.13 3.321,101.8 11.16,104.3 C 20.3,109.0 30.24,112.7 38.73,118.8 C 44.58,124.4 50.08,118 54.14,114.0 C 57.02,112.0 58.92,107.6 62.06,106 z M 77.18,90.74 C 74.24,85.58 84.8,85.65 87.00,89.45 C 98.39,95.08 110.9,98.06 122.1,103.9 C 120.4,110.3 109.6,103.7 104.6,102.7 C 95.2,99 86,95.31 77.18,90.74 z M 26.63,87.29 C 32.67,83.12 40.96,92.23 47.57,93.73 C 50.45,97.01 61.76,96.55 60.22,101.3 C 54.52,104.6 47.40,98.42 41.5,96.73 C 36.56,93.91 29.98,92.09 26.63,87.29 z M 124.9,99.96 C 112.6,95.2 100.2,90 87.90,85.96 C 82.70,80.20 96.79,80.99 99.79,77.42 C 104.4,75.15 108.5,70.62 107,65.11 C 107,54.02 107,42 107,31.85 C 110,24.84 121,27.63 125,32.68 C 134.4,43.55 137.5,58.39 139.2,72.31 C 139.4,81.34 139.2,91.65 133,98.98 C 131.0,101.0 127.6,101.0 124.9,99.96 z M 36.57,82.82 C 41.43,80.04 48.37,79.14 53.24,75.41 C 58.3,72.32 61.8,66.62 61.05,60.53 C 61.05,50.11 61.05,39.68 61.05,29.25 C 66.58,24.10 75.03,28.68 76.3,35.3 C 76.31,51.53 76.31,67.75 76.31,83.97 C 72.42,87.91 68.54,91.85 64.65,95.78 C 58.09,94.39 52.03,90.78 45.86,88.15 C 42.91,86.28 38.81,85.4 36.57,82.82 z M 87.11,10.97 C 86.66,4.1 97.0,12.83 99.34,14.93 C 103.2,17.59 103.3,22.12 103.1,26.29 C 103.1,40.19 103.1,54.09 103.1,67.99 C 103.1,72.57 88.63,78.44 95.61,70.94 C 101.2,64.19 99.28,55.15 99.64,47.08 C 99.47,40.01 100.0,32.89 99.32,25.85 C 97.42,19.50 92.01,15.05 87.11,10.97 z M 157.9,54.60 C 158.2,44.62 154.3,35.28 151.0,26.09 C 147.7,19.9 139.8,16.26 137.4,10.21 C 144.7,7.847 149.7,19.83 154.1,24.68 C 162.6,38.22 164.1,55.89 158.5,70.80 C 156,75.12 154.0,75.53 155.5,70.33 C 156.1,65.04 158.2,60.00 157.9,54.60 z M 52.84,62.95 C 52,51.16 53.54,39.30 51.9,27.58 C 51.13,23.06 50.16,18.31 46.29,15.42 C 43.74,12.60 40.70,10.07 38.4,7.083 C 43.58,3.184 49.45,12.36 52.91,16.00 C 56.16,19.36 56.40,23.9 56.15,28.28 C 56.03,40.54 56.39,52.84 55.97,65.08 C 56.20,68.57 45.80,76.38 50.0,69.43 C 51.13,67.35 52.22,65.23 52.84,62.95 z"
        /></g></svg>
