<?xml version="1.0" encoding="UTF-8" standalone="no"?>
<svg xmlns:dc="http://purl.org/dc/elements/1.1/"
                xmlns:cc="http://creativecommons.org/ns#"
                xmlns:rdf="http://www.w3.org/1999/02/22-rdf-syntax-ns#"
                xmlns:svg="http://www.w3.org/2000/svg"
                xmlns="http://www.w3.org/2000/svg"
                width="125"
                height="158"
                version="1.1" >
  <metadata>
    <rdf:RDF>
      <cc:Work rdf:about="">
        <dc:format>image/svg+xml</dc:format>
        <dc:type rdf:resource="http://purl.org/dc/dcmitype/StillImage"/>
        <cc:license rdf:resource=""/>
        <dc:title/>
        <dc:creator>
          <cc:Agent>
            <dc:title>(Drawshield internal)</dc:title>
          </cc:Agent>
        </dc:creator>
      </cc:Work>
    </rdf:RDF>
  </metadata>
<g  style="fill:#ffff00;fill-opacity:1;fill-rule:evenodd;stroke:#000000;stroke-width:3;stroke-linecap:butt;stroke-linejoin:miter;stroke-miterlimit:4;stroke-opacity:1;stroke-dasharray:none" id="body"><path stroke="#000000" stroke-width="2"
       d="M 86.52,139.4 C 85.42,146 90,155.3 98.50,153.2 C 105.3,152.5 110.7,145.3 107.8,138.7 C 105.7,132.1 98.00,128.7 97.32,121.7 C 97.88,113.6 105.1,108.4 109.9,102.6 C 120.4,91.46 121,74.11 116.8,60.11 C 112.9,49.45 105,39.93 95.09,34.76 C 92.67,34.74 90.84,37.2 88.6,38.3 C 79.8,44.34 71.15,50.58 62.15,56.21 C 58.62,58.06 56.89,53.31 57.1,50.56 C 57.36,41.12 56.5,31.60 57.87,22.22 C 57.91,14.02 67.57,17.19 70.68,21.79 C 75.35,24.71 77.01,34.52 82.93,33.53 C 90.39,28.90 97.37,23.51 104.2,18.05 C 104.2,13.40 93.63,10.6 92.69,14.77 C 90.33,19.55 83.19,10.22 79.1,9.539 C 68.93,5.059 57.81,10.42 48.68,15.16 C 42.86,18.6 36.80,21.76 30.02,22.7 C 26.15,23.38 15.71,25.52 22.87,30.07 C 28.01,33.86 26.56,41.15 27.58,46.76 C 28.14,58.6 27.83,70.6 27.91,82.5 C 26.16,92.50 16.66,98.20 8.775,103.1 C 2.51,108.1 15.68,109.3 18.86,111.5 C 31.05,115.3 40.56,124.6 52.47,128.9 C 58.62,127.1 63.08,121.7 68.16,117.9 C 75.00,112.0 81.74,105.9 88.25,99.55 C 84.95,94.10 79.08,105 73.99,104.4 C 63.69,102.0 54.42,96.47 44.9,91.85 C 40.42,90.46 35.94,86.32 42.95,84.36 C 48.73,82.21 54.73,78.96 56.42,72.5 C 58.66,67.16 61.39,59.46 68.52,59.95 C 78.99,59.89 86.16,69.4 90.12,78.06 C 95.36,89.17 96.20,101.9 93.29,113.8 C 92.72,122.8 86.69,130 86.52,139.4 z M 94.72,130.5 C 101.3,129.9 102.7,139.4 105.0,144.1 C 99.75,146.0 99.4,135.3 95.82,132.1 L 95.36,131.3 L 94.72,130.5 L 94.72,130.5 z M 30.21,92.6 C 31.58,88.87 36.33,91.95 38.82,93.20 C 47.47,97.53 56.12,101.8 64.78,106.1 C 69.78,111.8 59.43,108.2 57.1,106.9 C 48.42,103.3 39.16,100.3 31.47,94.7 C 30.88,94.19 30.23,93.51 30.21,92.6 z M 92.42,41.38 C 98.45,38.29 104.0,45.63 106.9,50.32 C 112.1,59.6 117.4,70.33 115,81.34 C 115.1,84.45 112.7,89.45 113.1,83.20 C 112.1,69.03 108.2,53.12 95.77,44.69 C 94.54,43.70 93.42,42.59 92.42,41.38 z M 49.22,66.72 C 49.22,52.71 49.22,38.69 49.22,24.68 C 53.37,19.42 52.11,26.71 52.3,30.10 C 52.24,45.50 53.04,61.01 51.09,76.30 C 45.83,79.40 49.81,68.86 49.22,66.72 z"
        /></g></svg>
