<?xml version="1.0" encoding="UTF-8" standalone="no"?>
<svg xmlns:dc="http://purl.org/dc/elements/1.1/"
                xmlns:cc="http://creativecommons.org/ns#"
                xmlns:rdf="http://www.w3.org/1999/02/22-rdf-syntax-ns#"
                xmlns:svg="http://www.w3.org/2000/svg"
                xmlns="http://www.w3.org/2000/svg"
                width="137"
                height="132"
                version="1.1" >
  <metadata>
    <rdf:RDF>
      <cc:Work rdf:about="">
        <dc:format>image/svg+xml</dc:format>
        <dc:type rdf:resource="http://purl.org/dc/dcmitype/StillImage"/>
        <cc:license rdf:resource=""/>
        <dc:title/>
        <dc:creator>
          <cc:Agent>
            <dc:title>(Drawshield internal)</dc:title>
          </cc:Agent>
        </dc:creator>
      </cc:Work>
    </rdf:RDF>
  </metadata>
<g  style="fill:#ffff00;fill-opacity:1;fill-rule:evenodd;stroke:#000000;stroke-width:3;stroke-linecap:butt;stroke-linejoin:miter;stroke-miterlimit:4;stroke-opacity:1;stroke-dasharray:none" id="body"><path stroke="#000000" stroke-width="2"
       d="M 3.250,69.38 C 2.798,92.41 18.17,114.1 39.25,122.8 C 58.15,130.9 80.55,128.9 98.71,119.7 C 117.6,110.3 130.6,90.2 131.1,69.0 C 131.7,56.39 128.2,43.84 123.4,32.25 C 119.1,23.51 113.0,15.66 105.7,9.259 C 99.88,4.489 94.39,10.98 91.52,15.71 C 89.19,18.07 85.29,27.21 82.40,24.36 C 81.31,19.22 83.38,10.26 79.42,7.60 C 71.9,6.931 64.4,7.863 57.25,10.19 C 39.10,15.37 20.27,24.00 10.4,40.99 C 5.252,49.51 3.186,59.4 3.250,69.38 z M 52.21,115.8 C 49.98,112.2 42.39,107.7 46.83,103.2 C 57.9,97.21 72.51,96.00 80.35,84.96 C 83.6,79.3 82.06,72.6 82.44,66.40 C 82.44,56.59 82.44,46.78 82.44,36.98 C 86.03,35.05 88.0,43.10 90.31,45.40 C 97.38,58.67 101.1,74.03 99.80,89.07 C 97.97,100 94.39,111 85.57,119.5 C 80.35,123 73.71,121.5 67.73,121.9 C 62.69,122.5 58.68,118.6 54.22,116.9 L 53.00,116.2 L 52.21,115.8 L 52.21,115.8 z M 30.46,71.97 C 30.65,57.65 30.0,42.54 36.36,29 C 37.19,26.86 43,20.32 40.65,26.67 C 37.44,33.55 36.95,41.32 35.14,48.6 C 34.11,54.74 34.8,61.01 34.64,67.19 C 34.81,74.32 34.25,81.50 35.0,88.58 C 36,95.60 40.69,101.9 40.54,109 C 31.11,101.2 30.58,87.67 30.48,76.18 C 30.46,74.78 30.46,73.37 30.46,71.97 z M 37.95,66.35 C 38.23,51.35 39.80,35.53 47.60,22.38 C 51.91,20.98 48.75,30.48 49.96,33.1 C 50.13,52.90 50.0,72.66 50.04,92.42 C 49.27,97.9 40.21,102.5 40.18,94.13 C 38.22,85.02 38.31,75.6 37.95,66.35 z M 122.7,70.5 C 123,55.26 119.3,39.65 110.0,27.30 C 107.5,22.32 100.1,17.05 100.0,12.7 C 105.8,13.02 108.8,20.07 112.6,23.87 C 123.9,38.82 129.7,58.49 125.4,77.00 C 124.1,82.47 123.3,88.38 120,93.12 C 117.8,91.5 121.0,84.00 121.4,80.03 C 122.1,76.90 122.8,73.75 122.7,70.5 z M 74.52,68.37 C 74.52,52.7 74.52,37.07 74.52,21.42 C 73.55,18.82 72.87,8.518 77.40,10 C 78.3,33.60 78.4,56.31 78.41,79.02 C 78.62,81.95 72.46,88.38 72.05,85.78 C 75.4,80.73 74.29,74.14 74.52,68.37 z"
        /></g></svg>
