<?xml version="1.0" encoding="UTF-8" standalone="no"?>
<svg xmlns:dc="http://purl.org/dc/elements/1.1/"
                xmlns:cc="http://creativecommons.org/ns#"
                xmlns:rdf="http://www.w3.org/1999/02/22-rdf-syntax-ns#"
                xmlns:svg="http://www.w3.org/2000/svg"
                xmlns="http://www.w3.org/2000/svg"
                width="132"
                height="121"
                version="1.1" >
  <metadata>
    <rdf:RDF>
      <cc:Work rdf:about="">
        <dc:format>image/svg+xml</dc:format>
        <dc:type rdf:resource="http://purl.org/dc/dcmitype/StillImage"/>
        <cc:license rdf:resource=""/>
        <dc:title/>
        <dc:creator>
          <cc:Agent>
            <dc:title>(Drawshield internal)</dc:title>
          </cc:Agent>
        </dc:creator>
      </cc:Work>
    </rdf:RDF>
  </metadata>
<g  style="fill:#ffff00;fill-opacity:1;fill-rule:evenodd;stroke:#000000;stroke-width:3;stroke-linecap:butt;stroke-linejoin:miter;stroke-miterlimit:4;stroke-opacity:1;stroke-dasharray:none" id="body"><path stroke="#000000" stroke-width="2"
       d="M 5.162,90.73 C 8.393,93.72 12.35,96.74 16.04,99.53 C 27.14,107 39.11,114.2 50.66,121 C 57.02,122.4 61.30,116.0 66.75,113.6 C 76.37,108.9 87.1,106.8 96.92,102.5 C 106.5,98.72 117.0,92.69 119.9,82.04 C 121.8,74.94 119.3,67.19 113.7,62.46 C 108.8,57.35 102.2,54 96.26,51.12 C 98.73,46.45 104.9,43.10 107.6,37.91 C 113.7,30.64 111.2,20.17 106.1,13.20 C 101.1,5.572 90.76,0.099 82.01,4.698 C 72,10.26 68.02,22.5 57.00,25.93 C 50.2,16.8 42.81,6.848 31.47,3.470 C 20.59,0.9400 10.33,10.92 8.720,21.17 C 6.468,28.85 14.11,30.65 19.70,31.84 C 27.96,35.38 34.67,43.51 34.10,52.86 C 34.19,61.69 30.39,70.27 24.95,77.0 C 19.21,81.87 11.07,83.15 5.846,88.64 L 5.333,89.67 L 5.162,90.73 L 5.162,90.73 z M 28.91,80.36 C 31.70,75.62 38.92,83.08 43.10,84.0 C 53.11,88.68 60.76,97.14 70.96,101.4 C 74.26,102.2 78.4,107 72.40,106.5 C 66.60,106.2 62.40,101.3 57.63,98.58 C 51.15,93.9 44.87,89.09 37.63,85.732 C 34.65,84.08 31.5,82.50 28.91,80.36 z M 40.72,76.19 C 35.59,72.25 42.99,66.17 46.47,63.67 C 50.82,60.88 55.02,54.08 60.89,56.62 C 68.05,59.18 76.59,59.94 81.59,66.3 C 88.75,74.51 91.85,86.75 86.86,96.78 C 84.77,103.7 77.71,98.94 74.41,95.86 C 63.03,89.57 52.23,82.26 40.72,76.19 z M 112.1,78.06 C 112.0,70.20 106.5,63.86 101,58.33 C 110.2,58.53 115.6,67.61 116.2,75.38 C 116.7,79.48 113.6,88.26 110.1,87.60 C 110.1,84.27 112.3,81.4 112.1,78.06 z M 50.80,41.19 C 50.80,32.57 48.07,23.13 40.40,18.26 C 36.08,13.38 28.7,14.04 24.26,9.663 C 23.17,3.246 34.04,7.180 36.26,10.3 C 44.52,16.63 53.18,24.27 54.67,35.14 C 55.80,41.35 53.26,47.40 51.92,53.36 C 47.64,60.14 49.63,49.3 50.36,46.59 C 50.65,44.81 50.80,43.00 50.80,41.19 z M 57.43,49.98 C 58.85,43.89 56.22,34.5 61.23,30.78 C 65.18,27.91 70.35,26.31 75.03,28.52 C 82.69,31.69 86.0,44.03 78.65,49.22 C 74.41,52.42 68.62,52.58 63.48,52.86 C 61.21,52.99 57.23,53.44 57.43,49.98 z M 86.80,6.352 C 98.83,6.718 107.3,19.53 106.2,30.91 C 106.4,33.66 103.7,36.63 104.0,32.15 C 103.1,22.99 98.5,13.64 89.8,9.644 C 88.56,8.939 86.8,8.019 86.80,6.352 z"
        /></g></svg>
