<?xml version="1.0" encoding="UTF-8" standalone="no"?>
<svg xmlns:dc="http://purl.org/dc/elements/1.1/"
                xmlns:cc="http://creativecommons.org/ns#"
                xmlns:rdf="http://www.w3.org/1999/02/22-rdf-syntax-ns#"
                xmlns:svg="http://www.w3.org/2000/svg"
                xmlns="http://www.w3.org/2000/svg"
                width="129"
                height="130"
                version="1.1" >
  <metadata>
    <rdf:RDF>
      <cc:Work rdf:about="">
        <dc:format>image/svg+xml</dc:format>
        <dc:type rdf:resource="http://purl.org/dc/dcmitype/StillImage"/>
        <cc:license rdf:resource=""/>
        <dc:title/>
        <dc:creator>
          <cc:Agent>
            <dc:title>(Drawshield internal)</dc:title>
          </cc:Agent>
        </dc:creator>
      </cc:Work>
    </rdf:RDF>
  </metadata>
<g  style="fill:#ffff00;fill-opacity:1;fill-rule:evenodd;stroke:#000000;stroke-width:3;stroke-linecap:butt;stroke-linejoin:miter;stroke-miterlimit:4;stroke-opacity:1;stroke-dasharray:none" id="body"><path stroke="#000000" stroke-width="2"
       d="M 5.267,98.54 C 19.61,104.0 31.9,113.4 44.41,122.2 C 47.51,127.1 52.54,125.3 55.30,121.4 C 60.9,116.0 66.67,110.6 72.36,105.1 C 75.45,104.4 81.97,97.58 75.05,98.63 C 69.56,102.8 63.74,97.83 58.97,95.04 C 51.87,91.18 45.47,86.24 38.8,81.69 C 35.20,75.69 47.0,76.29 49.37,71.8 C 53.81,67.48 58.56,62.89 65.29,65.11 C 73.78,65.99 79.55,74.20 80.97,82.0 C 81.74,94.65 81.36,109.1 90.98,118.8 C 94.87,124.2 102.1,127.0 106.1,120.2 C 112.2,114.5 118.0,108.4 124.6,103 C 128.0,96.4 115.9,104.457 115.4,96.83 C 111.5,89.20 113.1,79.12 106.0,73.11 C 102.1,67.87 96.27,65.54 90.22,63.76 C 83.57,59.97 96.20,59.61 98.53,56.68 C 107.8,51.66 115.319,40.69 112.1,29.81 C 109.4,20.21 103.7,10.4 94.6,5.899 C 88.09,2.315 84.45,9.772 79.82,12.9 C 73.32,18.52 66.76,24.12 60.27,29.71 C 52.84,21.62 46.70,11.45 36.41,6.626 C 29.12,3.232 24.90,11.49 20.14,15.45 C 14.83,21.07 8.600,25.72 3.395,31.43 C 4.0,34.87 11.07,32.60 14.01,34.51 C 24.24,36.61 34.48,43.94 35.97,54.92 C 38.19,66.81 32.35,79.13 22.54,85.94 C 17.5,90.35 11.22,92.44 5.408,95.37 C 4.133,96.05 3.818,97.90 5.267,98.54 z M 89.21,66.43 C 95.88,67.18 101.1,72.34 105.4,77.11 C 108.7,81.25 108.9,86.76 110.6,91.61 C 111.7,95.31 112,99.42 114.7,102 C 116.6,109.7 106.8,104 107.0,99.79 C 104.1,90.64 104.2,79.88 97.1,72.57 C 94.9,69.96 91.28,68.95 89.21,66.43 z M 33.63,88.46 C 27.65,86.87 31.92,79.62 35.65,83.85 C 45,90.25 55.53,96.60 65.40,103.0 C 65.3,107.6 56.62,104.8 53.96,102 C 47.19,97.76 40.41,93.11 33.63,88.46 z M 54.80,47.8 C 55.13,33.27 45.21,19.84 31.94,14.41 C 25.4,11.45 34.20,5.481 36.96,10.73 C 47.50,17.57 57.36,27.67 58.70,40.76 C 59.54,49.79 57.85,59.76 51.90,66.87 C 49.6,69.49 43.81,70.09 48.30,65.94 C 51.73,60.44 55.04,54.56 54.80,47.8 z M 61.57,60.67 C 61.34,52.99 63.49,45.35 61.67,37.72 C 59.77,30.00 70.82,27.24 75.54,31.83 C 81.87,36.75 85.62,46.3 82.02,53.86 C 77.99,60.35 69.2,62.05 62.2,61.23 L 61.57,60.67 L 61.57,60.67 z M 104.3,35.61 C 104.3,25.02 95.37,17.81 88.35,11.13 C 89.28,3.464 98.23,11.16 100.4,14.69 C 107.5,21.99 112.3,34.04 107.0,43.67 C 104.4,48.29 101.1,54.16 95.40,54.91 C 93.70,53.69 100.8,49.11 101.7,45.75 C 103.5,42.70 104.3,39.14 104.3,35.61 z"
        /></g></svg>
