<?xml version="1.0" encoding="UTF-8" standalone="no"?>
<svg xmlns:dc="http://purl.org/dc/elements/1.1/"
                xmlns:cc="http://creativecommons.org/ns#"
                xmlns:rdf="http://www.w3.org/1999/02/22-rdf-syntax-ns#"
                xmlns:svg="http://www.w3.org/2000/svg"
                xmlns="http://www.w3.org/2000/svg"
                width="140"
                height="140"
                version="1.1" >
  <metadata>
    <rdf:RDF>
      <cc:Work rdf:about="">
        <dc:format>image/svg+xml</dc:format>
        <dc:type rdf:resource="http://purl.org/dc/dcmitype/StillImage"/>
        <cc:license rdf:resource=""/>
        <dc:title/>
        <dc:creator>
          <cc:Agent>
            <dc:title>(Drawshield internal)</dc:title>
          </cc:Agent>
        </dc:creator>
      </cc:Work>
    </rdf:RDF>
  </metadata>
<g  style="fill:#ffff00;fill-opacity:1;fill-rule:evenodd;stroke:#000000;stroke-width:3;stroke-linecap:butt;stroke-linejoin:miter;stroke-miterlimit:4;stroke-opacity:1;stroke-dasharray:none" id="body"><path stroke="#000000" stroke-width="2"
       d="M 4.213,87.36 C 3.739,101.7 10.99,115.7 22.71,124.0 C 38.1,135.0 57.99,137.0 76.33,135.2 C 81.90,133.9 87.87,133.0 93.11,130.9 C 96.08,128.3 96.9,124.0 99.32,120.8 C 103.1,113.8 107.5,107.0 111.8,100.2 C 113,97.58 119.2,86.72 112.6,89.99 C 104.3,93.67 96.82,99.27 87.69,100.7 C 76.10,103.5 63.77,104.7 52.05,102 C 52.16,98.75 59.30,96.53 62.53,94.06 C 67.17,91.18 73.32,87 72.97,81.41 C 72.43,77.68 74.71,75.90 78.14,76.48 C 85.22,76.08 92.31,75.6 99.39,75.27 C 102.8,70.48 106,65.4 109.2,60.43 C 110.5,57.64 106.5,57.57 104.7,57.4 C 97.75,57.4 90.79,57.4 83.84,57.4 C 83.06,50.9 91.41,46.99 94.3,41.59 C 100.6,34.32 106,26.37 113.1,19.55 C 115.7,15.63 111.0,13.92 107.9,14.64 C 89.11,14.3 70.29,16 51.44,15.5 C 45.6,20 43.89,27.93 38.0,32.54 C 27.61,43.25 14.42,52.09 8.293,66.29 C 5.149,72.83 4.216,80.18 4.213,87.36 z M 19.33,70.52 C 19.38,64.98 19.5,58.70 23.27,54.26 C 25.42,56.02 23.75,63.18 24.66,67.09 C 25.27,79.16 27.83,92.91 38.5,100.225 C 49.18,107.7 62.6,107.1 75.06,107.0 C 80.92,104.4 87.71,105.2 93.6,102.5 C 96.55,102.4 103.5,97.24 104.4,100 C 101.3,106.4 93.84,107.6 88.09,109.4 C 75.16,112.6 61.40,114.7 48.41,110.6 C 34.58,107 23.18,95.63 20.44,81.54 C 19.65,77.92 19.33,74.22 19.33,70.52 z M 27.82,65.91 C 28.38,61.44 27.14,52.96 30.81,51.02 C 33.52,55.49 34.49,60.90 36.25,65.83 C 38.61,74.02 41.74,81.95 44.69,89.93 C 47.82,94.85 44.79,103.5 38.81,97.6 C 32.27,90.30 30.1,80.16 28.33,70.73 C 28.09,69.13 27.85,67.53 27.82,65.91 z M 64.98,80.45 C 64.89,68.17 54.91,58.44 54.75,46.18 C 58.54,42.32 60.33,52.55 62.0,55.08 C 65.16,63.33 68.58,71.61 70.16,80.31 C 70.26,84.56 63.62,91.24 61.19,89.70 C 63.06,86.93 65.07,83.94 64.98,80.45 z M 62.53,44.88 C 66.81,42.33 72.72,43.35 77.68,43.01 C 81.6,42.61 90.38,42.57 84.70,48.05 C 80.45,54.04 75.03,59.09 70.74,65.04 C 66.57,63.02 66.22,56.84 64.47,52.84 C 63.72,50.21 62.94,47.58 62.53,44.88 z M 76.64,64.18 C 76.7,60.88 80.9,60.6 83.58,60.86 C 90.05,60.86 96.52,60.86 102.9,60.86 C 101.8,68.27 92.20,64.30 87.07,65.03 C 83.5,65.0 80.07,64.9 76.64,64.18 z M 52.16,22.85 C 53.70,17.24 61.29,20.46 65.69,19.41 C 78.89,19.03 92.09,18.74 105.3,18.82 C 108.0,22.50 101.1,23.55 98.34,23.14 C 88.32,23.14 78.31,23.14 68.29,23.14 C 63.15,23.83 57.10,25 52.30,23.14 L 52.16,22.85 z"
        /></g></svg>
