<?xml version="1.0" encoding="UTF-8" standalone="no"?>
<svg xmlns:dc="http://purl.org/dc/elements/1.1/"
                xmlns:cc="http://creativecommons.org/ns#"
                xmlns:rdf="http://www.w3.org/1999/02/22-rdf-syntax-ns#"
                xmlns:svg="http://www.w3.org/2000/svg"
                xmlns="http://www.w3.org/2000/svg"
                width="104"
                height="125"
                version="1.1" >
  <metadata>
    <rdf:RDF>
      <cc:Work rdf:about="">
        <dc:format>image/svg+xml</dc:format>
        <dc:type rdf:resource="http://purl.org/dc/dcmitype/StillImage"/>
        <cc:license rdf:resource=""/>
        <dc:title/>
        <dc:creator>
          <cc:Agent>
            <dc:title>(Drawshield internal)</dc:title>
          </cc:Agent>
        </dc:creator>
      </cc:Work>
    </rdf:RDF>
  </metadata>
<g  style="fill:#ffff00;fill-opacity:1;fill-rule:evenodd;stroke:#000000;stroke-width:3;stroke-linecap:butt;stroke-linejoin:miter;stroke-miterlimit:4;stroke-opacity:1;stroke-dasharray:none" id="body"><path stroke="#000000" stroke-width="2"
       d="M 19.3,108.0 C 32.90,108.8 45.20,115 57.78,119.7 C 62.27,122.4 67.83,122.1 71.02,117.7 C 78.73,111.4 86.20,104 94.5,99.59 C 98.85,98.27 99.53,89.23 94.0,94.18 C 90.3,98.27 85.11,100.3 79.89,97.78 C 70.39,94.94 60.79,92.00 52.00,87.35 C 53.44,83.58 62.43,82.20 65.7,77.9 C 71.35,73.56 73.79,66.08 72.23,59.16 C 70.1,48.02 61.38,40.00 56.40,30.23 C 55.40,26.77 49.78,20.29 56.03,19.1 C 63.76,18.85 69.03,25.58 74.7,29.8 C 79.52,34.46 85.40,28.70 89.81,26.34 C 93.34,23.23 103.0,18.8 100.2,13.84 C 92.20,11.52 87.18,2.605 78.39,2.37 C 70.38,2.864 64.46,9.106 57.35,12.14 C 52.6,14.92 47.39,16.91 43.18,20.37 C 37.37,25.08 33.35,32.59 33.76,40.23 C 33.28,47.67 35.99,54.89 40.43,60.78 C 44.20,66.86 49.79,73.65 47.62,81.29 C 45.41,86.74 39.53,89.27 34.98,92.49 C 26.22,97.97 16.93,102.4 7.8,107.3 C 4.055,115.0 14.74,108.1 18.44,108.1 L 19.35,108.0 L 19.3,108.0 z M 43.11,93.81 C 38.03,90.47 46.4,88.5 49.22,90.03 C 52.88,90.92 55.7,93.60 59.43,94.31 C 66.85,96.69 74.2,99.06 81.70,101.4 C 85.04,105.4 75.06,105 72.87,103.8 C 62.86,100.7 53.00,97.25 43.11,93.81 z M 12.01,98.99 C 11.85,103.6 19.95,98.63 22.37,97.86 C 29.48,94.05 35.94,88.59 40.10,81.63 C 42.75,75.66 40.96,69.09 37.58,63.89 C 32.6,52.9 28.05,40.40 31.75,28.38 C 31.55,25.15 39.64,21.90 36.57,19.81 C 30.63,19.76 25.93,24.05 21.00,26.80 C 12.17,32.47 4.70,41.94 5.101,52.92 C 5.20,65.05 11.14,76.08 17.04,86.32 C 18.76,91.44 16.06,95.97 12.01,98.99 z M 33.18,76.96 C 33.20,63.22 20.81,52.41 22.2,38.46 C 21.94,36.00 25.36,27.07 26.92,31.28 C 24.79,38.86 27.08,46.66 30.47,53.47 C 33.56,61.09 39.38,68.57 37.71,77.20 C 36.52,81.84 33.90,87.72 28.57,88.34 C 28.71,84.06 33.31,81.34 33.18,76.96 z M 47.14,26.28 C 48.20,19.45 52.48,31.26 54.19,33.62 C 59.70,42.14 67.91,49.96 68.39,60.75 C 68.85,64.15 68.60,72.59 64.9,71.32 C 65.98,61.46 63.15,51.08 56.13,43.88 C 51.97,38.81 47.06,33.24 47.14,26.28 z M 76.52,7.847 C 80.99,2.250 87.10,11.75 91.86,13.32 C 96.8,14.59 94.99,19.44 90.55,16.76 C 85.62,14.54 80.43,12.22 76,8.262 L 76.52,7.847 L 76.52,7.847 z"
        /></g></svg>
