<?xml version="1.0" encoding="UTF-8" standalone="no"?>
<svg xmlns:dc="http://purl.org/dc/elements/1.1/"
                xmlns:cc="http://creativecommons.org/ns#"
                xmlns:rdf="http://www.w3.org/1999/02/22-rdf-syntax-ns#"
                xmlns:svg="http://www.w3.org/2000/svg"
                xmlns="http://www.w3.org/2000/svg"
                width="140"
                height="140"
                version="1.1" >
  <metadata>
    <rdf:RDF>
      <cc:Work rdf:about="">
        <dc:format>image/svg+xml</dc:format>
        <dc:type rdf:resource="http://purl.org/dc/dcmitype/StillImage"/>
        <cc:license rdf:resource=""/>
        <dc:title/>
        <dc:creator>
          <cc:Agent>
            <dc:title>(Drawshield internal)</dc:title>
          </cc:Agent>
        </dc:creator>
      </cc:Work>
    </rdf:RDF>
  </metadata>
<g  style="fill:#ffff00;fill-opacity:1;fill-rule:evenodd;stroke:#000000;stroke-width:3;stroke-linecap:butt;stroke-linejoin:miter;stroke-miterlimit:4;stroke-opacity:1;stroke-dasharray:none" id="body"><path stroke="#000000" stroke-width="2"
       d="M 6.565,102.8 C 18.8,107 30.35,114.1 41.75,120.7 C 47.87,127.1 54.70,119.0 60.79,116.8 C 75.56,109.7 91.84,104.4 103.9,93.01 C 116.3,81.11 119.0,62.58 116.6,46.24 C 113.6,27.49 98.37,12.7 80.8,6.682 C 69.02,2.226 56.23,1.58 43.70,1.876 C 36.73,1.401 28.72,2.258 24.23,8.317 C 18.0,16.12 14.67,25.71 8.711,33.70 C 6.144,38.18 2.39,42.56 2.975,48.08 C 6.921,49.70 11.77,41.69 16.91,40.80 C 26.88,35.25 38.50,34.77 49.6,34.72 C 53.41,34.1 65.14,34.53 57.90,39.78 C 48.24,44.16 37.19,43.32 27.21,46.47 C 26.75,51.23 36.20,53.65 35.01,60.15 C 35.86,67.05 35.26,74.03 35.22,80.96 C 32.2,88.87 23.50,92.35 16.31,95.52 C 14.10,97.71 -0.01,97.92 6.565,102.8 z M 33.20,90.75 C 34,86.20 39.80,89.72 42.52,91.1 C 52.3,96.14 62.23,101.1 72.08,106 C 69.67,110.4 62.05,107.1 58.54,104.9 C 50.75,100.5 41.97,97.99 34.58,92.86 C 33.96,92.32 33.23,91.65 33.20,90.75 z M 45.15,88.74 C 39.56,82.2 51.33,81.55 55.5,80.79 C 61.57,79.60 68.05,79.21 73.88,78.15 C 71.93,74.10 64.99,72.99 65.80,66.52 C 64.07,58.11 64.04,49.40 64.78,40.90 C 68.75,34.18 76.35,42.31 79.68,45.83 C 90.67,58.47 92.69,76.83 88.95,92.68 C 87.58,98.37 83.27,105.3 76.4,103.7 C 67.17,101.8 59.33,96.0 51.00,91.81 C 49.06,90.77 47,89.65 45.15,88.74 z M 110.8,61.52 C 111,44.32 102.2,27.02 87.08,18.5 C 72.41,9.953 54.64,9.074 38.20,11.75 C 35.05,11.71 23.5,14.4 28.1,8.680 C 33.33,6.300 39.20,6.286 44.79,6.157 C 63.48,5.505 83.88,8.142 98.52,20.83 C 109.3,30.16 114.4,44.70 114.1,58.78 C 113.9,65.48 114.2,73.08 109,78.64 C 107.7,79.73 109.8,71.8 109.9,69.73 C 110,67.0 110.8,64.28 110.8,61.52 z M 56.96,50.00 C 57.13,48.01 56.25,45.59 58.3,44.41 C 61.22,44.6 59.42,53.21 61.02,56.31 C 62.28,62.24 63.2,68.26 63.15,74.34 C 58.15,74.17 58.15,65.9 57.07,62.22 C 56.8,58.16 57.02,54.08 56.96,50.00 z"
        /></g></svg>
