<?xml version="1.0" encoding="UTF-8" standalone="no"?>
<svg xmlns:dc="http://purl.org/dc/elements/1.1/"
                xmlns:cc="http://creativecommons.org/ns#"
                xmlns:rdf="http://www.w3.org/1999/02/22-rdf-syntax-ns#"
                xmlns:svg="http://www.w3.org/2000/svg"
                xmlns="http://www.w3.org/2000/svg"
                width="132"
                height="121"
                version="1.1" >
  <metadata>
    <rdf:RDF>
      <cc:Work rdf:about="">
        <dc:format>image/svg+xml</dc:format>
        <dc:type rdf:resource="http://purl.org/dc/dcmitype/StillImage"/>
        <cc:license rdf:resource=""/>
        <dc:title/>
        <dc:creator>
          <cc:Agent>
            <dc:title>(Drawshield internal)</dc:title>
          </cc:Agent>
        </dc:creator>
      </cc:Work>
    </rdf:RDF>
  </metadata>
<g  style="fill:#ffff00;fill-opacity:1;fill-rule:evenodd;stroke:#000000;stroke-width:3;stroke-linecap:butt;stroke-linejoin:miter;stroke-miterlimit:4;stroke-opacity:1;stroke-dasharray:none" id="body"><path stroke="#000000" stroke-width="2"
       d="M 5.1627,73.479 C 4.6607,89.332 12.666,105.18 26.19,113.63 C 41.094,123.38 59.64,124.03 76.818,122.71 C 84.472,121.93 93.773,119.84 97.034,111.92 C 101.89,100.99 108.90,91.192 113.73,80.247 C 115.11,72.768 108.63,77.823 106.06,80.460 C 90.979,89.293 72.793,91.136 55.637,89.962 C 52.339,90.518 48.447,88.288 53.43,86.672 C 60.941,82.506 70.712,79.283 73.72,70.346 C 75.591,60.551 71.665,50.829 68.665,41.654 C 68.017,38.501 62.704,30.568 68.426,30.27 C 77.098,30.27 85.770,30.27 94.442,30.27 C 97.734,27.862 99.334,23.746 101.93,20.631 C 105.06,16.076 108.09,11.400 112.00,7.4627 C 114.42,4.1718 112.76,-0.1529 108.55,1.1896 C 90.679,1.0363 72.839,2.2911 54.983,2.9166 C 47.655,4.9181 45.627,13.242 40.375,17.860 C 30.260,28.852 16.568,36.99 9.7709,50.741 C 6.3572,57.797 5.0973,65.690 5.1627,73.479 z M 20.424,54.903 C 19.867,49.175 21.931,38.196 26.331,37.334 C 26.208,44.936 23.382,52.41 25.077,60.061 C 27.299,70.461 30.595,82.202 40.214,88.194 C 49.798,94.269 61.719,93.957 72.63,93.557 C 84.004,92.863 94.848,88.889 105.4,85.042 C 108.56,87.899 99.146,91.51 96.731,93.086 C 83.086,98.777 67.707,100.76 53.096,98.39 C 38.839,95.969 26.50,85.118 22.685,71.108 C 21.081,65.869 20.423,60.372 20.424,54.903 z M 30.651,70.021 C 27.714,60.530 27.341,50.378 28.873,40.592 C 28.872,36.802 32.915,29.607 33.911,37.121 C 38.916,50.806 41.307,65.346 47.02,78.778 C 49.157,83.499 46.426,90.132 40.810,86.02 C 35.437,82.11 34.595,74.959 30.651,70.021 z M 66.936,66.712 C 66.638,56.258 62.355,46.470 58.87,36.778 C 55.242,33.776 59.117,27.038 62.117,32.54 C 66.065,43.803 71.149,55.212 71.075,67.371 C 71.723,71.570 65.058,78.873 62.963,76.324 C 65.171,73.564 67.121,70.390 66.936,66.712 z M 54.983,6.2301 C 72.406,5.8570 89.826,5.1957 107.25,5.2238 C 106.0,11.709 97.148,8.7900 92.514,9.9117 C 79.097,10.360 65.674,10.681 52.250,10.695 C 52.265,8.8494 53.485,7.1980 54.983,6.2301 z"
        /></g></svg>
