<?xml version="1.0" encoding="UTF-8" standalone="no"?>
<svg xmlns:dc="http://purl.org/dc/elements/1.1/"
                xmlns:cc="http://creativecommons.org/ns#"
                xmlns:rdf="http://www.w3.org/1999/02/22-rdf-syntax-ns#"
                xmlns:svg="http://www.w3.org/2000/svg"
                xmlns="http://www.w3.org/2000/svg"
                width="131"
                height="128"
                version="1.1" >
  <metadata>
    <rdf:RDF>
      <cc:Work rdf:about="">
        <dc:format>image/svg+xml</dc:format>
        <dc:type rdf:resource="http://purl.org/dc/dcmitype/StillImage"/>
        <cc:license rdf:resource=""/>
        <dc:title/>
        <dc:creator>
          <cc:Agent>
            <dc:title>(Drawshield internal)</dc:title>
          </cc:Agent>
        </dc:creator>
      </cc:Work>
    </rdf:RDF>
  </metadata>
<g  style="fill:#ffff00;fill-opacity:1;fill-rule:evenodd;stroke:#000000;stroke-width:3;stroke-linecap:butt;stroke-linejoin:miter;stroke-miterlimit:4;stroke-opacity:1;stroke-dasharray:none" id="body"><path stroke="#000000" stroke-width="2"
       d="M 3.867,101.547 C 17.94,109 32.23,117.7 46.75,125.1 C 53.02,124 56.72,116 61.64,111 C 67.64,105.8 72.98,98.60 80.60,94.48 C 84.48,95.61 81.30,103.4 83.18,107.1 C 84.15,114 91.41,117.6 96.54,121.7 C 101.2,127.0 106.9,123.7 110,118.9 C 116.5,112.873 122.9,106.9 128.5,100.6 C 125.7,97 118.0,103.4 115.9,96.74 C 112.8,90.03 114.3,82.45 114.0,75.30 C 114.0,60.33 114.0,45.37 114.0,30.40 C 113.2,25.31 123.7,25.49 121.7,22.32 C 113.6,16.61 105.3,11.01 97.17,5.35 C 91.47,-1.661 86.06,7.33 82.28,11.4 C 77.02,17.33 71.69,23.21 65.49,28.10 C 65.78,35.05 73.2,21.42 77.00,26.93 C 80.63,28.38 82.90,31.9 82.20,35.8 C 82.12,53.28 82.3,70.79 82.09,88.26 C 79.04,93.38 73.51,96.99 67.87,98.73 C 61.77,98.01 56.2,94.58 50.59,92.25 C 45.00,89.37 38.94,86.94 34.25,82.68 C 39.41,79.36 45.97,78.49 51.12,74.85 C 57.67,71.70 60.34,64.27 60.26,57.40 C 60.56,45.45 60.81,33.34 59.31,21.50 C 55.22,13.27 47.67,6.438 38.84,3.746 C 32.30,1.547 29.18,8.81 25.12,12.47 C 19.49,19.1 13.27,25.48 8.617,32.85 C 13.94,32.01 19.50,25.32 24.77,30.77 C 29.66,34.86 29.61,41.29 29.49,47.11 C 29.21,58.18 30.63,69.69 26.53,80.24 C 22.73,89.00 14.35,94.39 6.26,98.7 C 5.30,99.45 4.002,100.1 3.867,101.547 z M 27.48,88.5 C 29.36,82.35 36.8,89.92 40.58,91.06 C 47.43,95.14 54.4,99.05 62.04,101 C 67.2,105.3 56.86,106.0 54.67,103.4 C 45.48,99.59 35.78,96.08 28.0,89.64 L 27.62,89.0 L 27.48,88.5 L 27.48,88.5 z M 105.6,96.07 C 105.5,76.18 104.9,56.30 105.0,36.41 C 103.7,33.38 109.5,25.5 110.2,30.43 C 110.2,52.02 110.2,73.61 110.2,95.21 C 112.3,97.92 118.4,103.3 116.0,105.3 C 110.886,105.2 106.3,101.2 105.6,96.07 z M 51.96,50.13 C 51.77,40.76 52.49,31.00 49.19,22.07 C 45.29,17.96 40.12,15.05 35.61,11 C 29.49,7.075 42.58,6.825 44.33,10.95 C 49.08,14.29 55.14,17.60 56.28,23.78 C 56.28,37.22 56.28,50.6 56.28,64.10 C 54.96,67.63 52.18,69.90 48.77,71.22 C 46.45,72.14 44.36,74.05 41.88,74.32 C 47.88,69.42 52.13,62.19 51.87,54.27 C 51.93,52.89 51.96,51.51 51.96,50.13 z M 90.55,9.529 C 93.74,3.328 99.51,11.55 103.3,13.2 C 106.4,16.86 115.8,19.14 114.1,24.14 C 108.1,25.39 102.9,18.84 97.69,16.2 C 95.24,14.18 91.94,12.50 90.55,9.529 z"
        /></g></svg>
