<?xml version="1.0" encoding="UTF-8" standalone="no"?>
<svg xmlns:dc="http://purl.org/dc/elements/1.1/"
                xmlns:cc="http://creativecommons.org/ns#"
                xmlns:rdf="http://www.w3.org/1999/02/22-rdf-syntax-ns#"
                xmlns:svg="http://www.w3.org/2000/svg"
                xmlns="http://www.w3.org/2000/svg"
                width="122"
                height="128"
                version="1.1" >
  <metadata>
    <rdf:RDF>
      <cc:Work rdf:about="">
        <dc:format>image/svg+xml</dc:format>
        <dc:type rdf:resource="http://purl.org/dc/dcmitype/StillImage"/>
        <cc:license rdf:resource=""/>
        <dc:title/>
        <dc:creator>
          <cc:Agent>
            <dc:title>(Drawshield internal)</dc:title>
          </cc:Agent>
        </dc:creator>
      </cc:Work>
    </rdf:RDF>
  </metadata>
<g  style="fill:#ffff00;fill-opacity:1;fill-rule:evenodd;stroke:#000000;stroke-width:3;stroke-linecap:butt;stroke-linejoin:miter;stroke-miterlimit:4;stroke-opacity:1;stroke-dasharray:none" id="body"><path stroke="#000000" stroke-width="2"
       d="M 6.3,102.7 C 7.644,107 14.18,108.1 18.13,110.4 C 29.88,115.4 41.75,120.0 53.56,124.9 C 61.29,126.1 65.76,118.3 71.16,114.3 C 84.95,102.6 101.9,93.79 110.9,77.48 C 117.8,65.65 119.0,50 115.7,37.79 C 112.3,25.11 103,14.42 93.88,6.027 C 88.20,2.672 83.07,6.117 79.45,10.59 C 73.28,15.94 67.67,22.08 60.3,25.84 C 56.61,22.08 58.27,14.94 53.0,11.5 C 48.67,7.179 42.57,2.402 35.96,4.244 C 29.64,10.34 24.19,17.50 16.91,22.60 C 13.14,24.77 11.2,31.96 17.55,28.71 C 22.90,27.2 28.3,32.94 27.50,38.22 C 27.46,52.86 27.57,67.50 27.45,82.13 C 25.77,88.85 18.08,91.23 13.1,95.10 C 10.46,97.11 6.466,98.91 6.3,102.7 z M 28.36,91.36 C 27.59,85.79 34.78,86.4 37.36,89.56 C 48.92,95.57 61.86,98.433 73.34,104.6 C 73.22,110.0 64.10,106.0 60.50,105.0 C 49.4,101.4 38.8,96.4 28.36,91.36 z M 76.31,100.5 C 64.08,95.88 51.77,91.35 39,86.71 C 33.65,82.06 45.13,81.77 47.87,79.70 C 53.24,77.3 59.83,73.18 59.03,66.43 C 59.03,55.11 59.03,43.78 59.03,32.46 C 61.75,25.43 72.53,28.23 76.21,33.30 C 84.75,43.02 87.85,56.1 89.92,68.61 C 91.14,77.98 90.75,88.06 86.58,96.69 C 84.85,100.8 80.3,102.4 76.31,100.5 z M 38.59,11.58 C 37.34,6.09 44.28,10.78 46.50,12.15 C 50.48,14.97 55.26,18.86 54,24.29 C 54.42,39.07 54.42,53.84 54.42,68.61 C 54.23,72.32 45.68,76.67 44.86,74.66 C 48.15,70.57 51.88,65.99 51.11,60.40 C 51.06,49.5 51.23,38.66 51.03,27.80 C 49.71,20.85 43.57,16.03 38.59,11.58 z M 109.0,55.21 C 109.3,45.26 105.5,35.88 102.2,26.70 C 98.49,21.23 93.08,16.95 88.91,12.01 C 90.81,6.213 96.85,14.77 99.24,17.06 C 108.9,27.74 114.5,42.28 113.1,56.78 C 112,62.95 111.8,69.95 107.5,74.75 C 104.9,75.47 107.5,67.27 107.7,65.01 C 108.6,61.81 109.0,58.51 109.0,55.21 z"
        /></g></svg>
