<?xml version="1.0" encoding="UTF-8" standalone="no"?>
<svg xmlns:dc="http://purl.org/dc/elements/1.1/"
                xmlns:cc="http://creativecommons.org/ns#"
                xmlns:rdf="http://www.w3.org/1999/02/22-rdf-syntax-ns#"
                xmlns:svg="http://www.w3.org/2000/svg"
                xmlns="http://www.w3.org/2000/svg"
                width="132"
                height="129"
                version="1.1" >
  <metadata>
    <rdf:RDF>
      <cc:Work rdf:about="">
        <dc:format>image/svg+xml</dc:format>
        <dc:type rdf:resource="http://purl.org/dc/dcmitype/StillImage"/>
        <cc:license rdf:resource=""/>
        <dc:title/>
        <dc:creator>
          <cc:Agent>
            <dc:title>(Drawshield internal)</dc:title>
          </cc:Agent>
        </dc:creator>
      </cc:Work>
    </rdf:RDF>
  </metadata>
<g  style="fill:#ffff00;fill-opacity:1;fill-rule:evenodd;stroke:#000000;stroke-width:3;stroke-linecap:butt;stroke-linejoin:miter;stroke-miterlimit:4;stroke-opacity:1;stroke-dasharray:none" id="body"><path stroke="#000000" stroke-width="2"
       d="M 3.250,75.11 C 2.760,91.02 10.31,107.0 23.75,115.9 C 40.48,126.9 61.88,129.1 81.24,125.3 C 98.01,121.8 115.5,112 122.8,96.61 C 129.9,80.37 125.7,59.88 112.8,47.76 C 108.6,43.74 103,40.26 99.15,37.09 C 99.55,30.73 105.9,26.99 109.5,22.33 C 113,17.57 119.2,13.4 121.0,7.291 C 119,3.896 114.286,5.481 110.9,5.128 C 96.41,5.220 81.83,4.742 67.33,5.994 C 61.24,8.95 59.01,16.24 53.07,19.50 C 39.17,29.91 22.36,37.03 11.44,50.99 C 6.16,57.88 3.034,66.37 3.250,75.11 z M 48.03,110.1 C 49.07,104.5 57.13,103.3 61.37,100.3 C 68.68,97.26 75.68,92.71 79.85,85.76 C 81.08,78.75 77.75,72.27 77.28,65.42 C 78.69,57.46 88.05,67.98 90.28,71.58 C 98.22,82.59 98.93,98.46 92.14,110.1 C 84.75,122.5 65.9,125.9 54.9,116.4 C 52.44,114.5 50.10,112.4 48.03,110.1 z M 26.14,65.03 C 26.12,57.66 25.34,49.24 30.17,43.07 C 32.64,41.73 30.08,49.88 30.38,52.34 C 29.81,73.87 34.6,95.69 45.44,114.4 C 42.94,114.5 38.20,108.4 36.08,105.2 C 28.30,93.42 26.15,78.95 26.14,65.03 z M 34.49,60.71 C 34.44,53.30 35.08,45.73 37.95,38.82 C 41.8,43.00 40.62,49.94 42.80,55.11 C 46.01,67.33 48.49,79.76 52.57,91.74 C 55.83,97.39 49.57,105.2 43.85,102.6 C 40.40,96.37 38.90,89.16 37.02,82.3 C 35.31,75.23 34.48,67.9 34.49,60.71 z M 117.7,82.1 C 118.2,69.03 110.2,57.37 100.3,49.48 C 98.08,47.09 89.31,44.52 95.69,41.27 C 104.0,43.33 109.7,50.53 114.9,56.89 C 121.3,66.19 123.0,78.31 121.0,89.2 C 120.6,92.65 117.5,102.0 114.8,99.13 C 114.8,93.29 118.1,88.06 117.7,82.1 z M 71.65,78.57 C 71.32,72.60 68.51,67.1 67.54,61.21 C 65.30,52.69 63.54,44.01 61.28,35.51 C 65.00,30.05 66.75,41.34 67.9,44.08 C 70.97,55.45 74.45,66.83 75.82,78.57 C 76.62,83.67 70.77,94.73 66.77,91.75 C 68.35,87.35 71.81,83.49 71.65,78.57 z M 69.63,35.37 C 73.49,31.41 81.99,33.76 87.63,32.91 C 91.87,31.89 97.11,34.47 91.95,38.53 C 86.28,43.71 81.86,50.04 76.61,55.60 C 71.94,53.72 72.67,45.62 70.80,41.14 C 70.39,39.22 69.98,37.3 69.63,35.37 z M 67.18,13.33 C 67.48,9.403 72.46,10.31 75.31,10.00 C 86.33,9.589 97.3,8.898 108.3,8.659 C 114.3,7.926 112.8,14.3 107.8,12.92 C 94.83,13.37 81.85,14.14 68.87,14.43 C 68.26,14.32 67.15,14.24 67.18,13.33 z"
        /></g></svg>
