<?xml version="1.0" encoding="UTF-8" standalone="no"?>
<svg xmlns:dc="http://purl.org/dc/elements/1.1/"
                xmlns:cc="http://creativecommons.org/ns#"
                xmlns:rdf="http://www.w3.org/1999/02/22-rdf-syntax-ns#"
                xmlns:svg="http://www.w3.org/2000/svg"
                xmlns="http://www.w3.org/2000/svg"
                width="110"
                height="148"
                version="1.1" >
  <metadata>
    <rdf:RDF>
      <cc:Work rdf:about="">
        <dc:format>image/svg+xml</dc:format>
        <dc:type rdf:resource="http://purl.org/dc/dcmitype/StillImage"/>
        <cc:license rdf:resource=""/>
        <dc:title/>
        <dc:creator>
          <cc:Agent>
            <dc:title>(Drawshield internal)</dc:title>
          </cc:Agent>
        </dc:creator>
      </cc:Work>
    </rdf:RDF>
  </metadata>
<g  style="fill:#ffff00;fill-opacity:1;fill-rule:evenodd;stroke:#000000;stroke-width:3;stroke-linecap:butt;stroke-linejoin:miter;stroke-miterlimit:4;stroke-opacity:1;stroke-dasharray:none" id="body"><path stroke="#000000" stroke-width="2"
       d="M 3.354,92.90 C 7.453,103.9 5.825,116.2 9.617,127.3 C 16.77,140.9 33.6,146.2 48.13,145.3 C 63.34,140.9 80.19,132.2 84.10,115.5 C 87.06,100.4 82.53,85.33 76.72,71.50 C 77.85,68.8 83.87,70.68 87.10,70.15 C 91.87,70.61 97.35,70.58 97.80,64.24 C 100.7,58.51 101.7,49.43 92.93,52.29 C 84.89,52.6 76.85,53.99 68.80,53.73 C 62.63,46 58.3,35.2 58.20,25.15 C 63.46,15.64 74.01,25 79.09,30.26 C 87.83,35.23 92.84,20.16 100.5,17.44 C 106,15.37 109.2,8.001 101.1,10.10 C 94.89,11.28 90.14,7.059 85.86,3.066 C 80.37,-2.429 75.15,4.192 70.73,7.515 C 61.16,15.58 50.39,22.38 42.08,31.82 C 35.33,39.99 32.94,50.96 33.73,61.36 C 31.09,68.46 13.77,67.81 17.30,76.51 C 24.22,76.45 31.11,74.44 38.05,74.75 C 42.70,80.42 43.99,88.19 47.29,94.68 C 51.64,106.5 58.82,118.5 57.09,131.6 C 56.01,140.6 44.54,144.3 37.96,138.4 C 29.13,131.4 31.92,119.3 36.99,111.1 C 34.25,101.9 20.00,101.4 12,96.94 C 9.119,95.69 5.975,94.77 3.354,92.90 z M 67.57,73.46 C 68.36,67.09 76.00,79.44 75.9,82.73 C 78.75,92.81 82.60,103 80.10,114.0 C 75.99,116.7 78.77,103.3 76.74,100.3 C 75.29,90.93 71.29,82.18 67.57,73.46 z M 13.72,101.6 C 18.89,104.8 30.56,108.1 31.00,112.7 C 25.13,111 15.61,107.5 13.72,101.6 z M 36.04,65.3 C 35.94,71.56 17.50,75.08 28.47,68.96 C 30,67.5 33.32,66.05 36.04,65.3 z M 89.32,60.50 C 81.37,60.14 73.50,62.31 65.60,62.01 C 57.11,58.15 54.40,47.80 52.18,39.49 C 49.37,35.55 52.78,22.25 55.70,31.90 C 58.82,40.35 59.71,50.18 65.70,57.1 C 74.93,57.48 84.14,55.83 93.3,56.40 C 97.66,61.09 88.25,72.18 90.11,61.00 L 89.32,60.50 L 89.32,60.50 z M 79.52,4.92 C 84.79,5.10 94.48,11.71 92,14.83 C 88.31,12 81.73,10.20 79.52,4.92 z"
        /></g></svg>
