<?xml version="1.0" encoding="UTF-8" standalone="no"?>
<svg xmlns:dc="http://purl.org/dc/elements/1.1/"
                xmlns:cc="http://creativecommons.org/ns#"
                xmlns:rdf="http://www.w3.org/1999/02/22-rdf-syntax-ns#"
                xmlns:svg="http://www.w3.org/2000/svg"
                xmlns="http://www.w3.org/2000/svg"
                width="115"
                height="153"
                version="1.1" >
  <metadata>
    <rdf:RDF>
      <cc:Work rdf:about="">
        <dc:format>image/svg+xml</dc:format>
        <dc:type rdf:resource="http://purl.org/dc/dcmitype/StillImage"/>
        <cc:license rdf:resource=""/>
        <dc:title/>
        <dc:creator>
          <cc:Agent>
            <dc:title>(Drawshield internal)</dc:title>
          </cc:Agent>
        </dc:creator>
      </cc:Work>
    </rdf:RDF>
  </metadata>
<g  style="fill:#ffff00;fill-opacity:1;fill-rule:evenodd;stroke:#000000;stroke-width:3;stroke-linecap:butt;stroke-linejoin:miter;stroke-miterlimit:4;stroke-opacity:1;stroke-dasharray:none" id="body"><path stroke="#000000" stroke-width="2"
       d="M 69.7,136.8 C 68.9,144.8 77.14,151.2 84.72,148.8 C 91.94,147.3 93.27,138.1 90.3,132.504 C 87.87,126.3 80.55,120.8 84.44,113.6 C 88.54,102.8 98.32,95.63 103.1,85.20 C 112,69.33 113.4,49.47 106.5,32.55 C 102,21.68 95.34,11.50 85.59,4.920 C 80.47,3.047 77.54,8.36 74.28,11.20 C 69.2,16.15 64.36,21.3 59.1,26.16 C 52.68,32.88 56.51,18.39 51.53,16.58 C 47.08,11.60 42.12,5.877 35.2,4.541 C 32.80,5.687 31.10,8.380 28.92,10.13 C 22.69,16.14 16.47,22.14 10.24,28.15 C 10.33,33.80 19.51,24.03 22.19,30.02 C 27.79,37.80 25.86,47.78 26.22,56.77 C 26.10,65.21 26.47,73.70 26.03,82.12 C 23.70,88.74 16.58,91.81 11.36,95.84 C 6.575,97.55 5.622,102.5 10.70,104.0 C 23.12,111.5 35.55,119.0 47.97,126.5 C 53.40,125.1 56.46,118 61.28,114 C 66.46,109 72.57,105.483 77.83,100.5 C 78.52,94.27 71.1,104.8 67.4,102.8 C 60.02,100.9 53.63,96.56 47.03,92.88 C 43.67,89.53 33.99,87.05 34.68,82.69 C 37.23,80.42 40.84,79.5 43.81,77.88 C 46.93,76.27 50.35,75.04 53.28,73.1 C 55.53,69.80 56.23,65.87 55.89,61.90 C 55.89,52.38 55.89,42.86 55.89,33.34 C 59.66,27.34 68.95,30.10 72.10,35.57 C 80.22,46.51 82.80,60.35 85.16,73.48 C 86.95,86.72 85.77,100 80.40,113.0 C 76.82,120.987 69.26,127.4 69.7,136.8 z M 79.07,144.9 C 86.05,141.4 82.94,133.6 80.52,128.2 C 78.64,125.2 80.22,120.2 82.60,125.6 C 86.22,129.5 88.00,134.7 87.4,140.1 C 89.11,144.5 79.99,149.1 79.07,145.3 L 79.07,145.0 L 79.07,144.9 z M 26.08,88.34 C 28.85,82.62 37.24,89.3 41.27,91.44 C 48.85,96.8 56.85,101.6 65.21,105.7 C 65.61,110.5 57.52,108.6 55.00,106.4 C 45.26,101.5 34.76,97.35 26.71,89.8 L 26.24,89.04 L 26.08,88.34 L 26.08,88.34 z M 103.5,58.4 C 103,40.5 93.86,23.93 80.80,12.31 C 79.7,3.634 89.99,11.05 91.96,14.82 C 98.56,23.60 103.9,33.53 107.0,44.11 C 108.3,54.09 108.2,64.63 103.9,73.95 C 101.2,78.98 99.52,86.24 95.63,89.64 C 95.82,84.07 100.6,79.97 100.9,74.3 C 102.2,69.10 103.6,63.84 103.5,58.4 z M 45.37,68.6 C 46.99,56.9 46.20,45.10 46.38,33.34 C 45.65,24.69 39.33,18.3 33.71,12.31 C 31.26,7.806 39.1,5.678 41.13,10.15 C 46.15,13.88 52.20,18.77 51.28,25.7 C 51.19,40.33 51.45,54.93 51.15,69.49 C 47.77,74.68 41.10,77.7 35.15,78.63 C 36.85,76.33 43.40,72.87 45.37,68.6 z"
        /></g></svg>
