<?xml version="1.0" encoding="UTF-8" standalone="no"?>
<svg xmlns:dc="http://purl.org/dc/elements/1.1/"
                xmlns:cc="http://creativecommons.org/ns#"
                xmlns:rdf="http://www.w3.org/1999/02/22-rdf-syntax-ns#"
                xmlns:svg="http://www.w3.org/2000/svg"
                xmlns="http://www.w3.org/2000/svg"
                width="113"
                height="131"
                version="1.1" >
  <metadata>
    <rdf:RDF>
      <cc:Work rdf:about="">
        <dc:format>image/svg+xml</dc:format>
        <dc:type rdf:resource="http://purl.org/dc/dcmitype/StillImage"/>
        <cc:license rdf:resource=""/>
        <dc:title/>
        <dc:creator>
          <cc:Agent>
            <dc:title>(Drawshield internal)</dc:title>
          </cc:Agent>
        </dc:creator>
      </cc:Work>
    </rdf:RDF>
  </metadata>
<g  style="fill:#ffff00;fill-opacity:1;fill-rule:evenodd;stroke:#000000;stroke-width:3;stroke-linecap:butt;stroke-linejoin:miter;stroke-miterlimit:4;stroke-opacity:1;stroke-dasharray:none" id="body"><path stroke="#000000" stroke-width="2"
       d="M 3.867,81.09 C 3.458,93.23 9.11,105.2 18.74,112.6 C 34.24,124.5 54.76,126 73.67,125.2 C 79.52,124.9 86.53,124.1 89.57,118.3 C 96.53,107.3 103.3,96.18 108.9,84.44 C 109.8,79.92 102,86.42 100.1,86.53 C 84.04,93.32 65.84,95.98 48.62,92.26 C 44.92,91.82 37.60,87.59 45.41,87.06 C 52.99,84.42 61.40,83.11 67.82,78.01 C 73.17,73.12 71.34,65.36 71.68,58.91 C 71.84,52.20 71.35,45.4 71.9,38.78 C 72.81,33.9 77.95,32.17 82.27,32.7 C 86.21,32.47 90.33,33.28 94.12,32.06 C 98.77,27.69 101.2,21.52 104.6,16.20 C 106.4,12.16 111.2,8.705 110,4.201 C 104.8,3.572 98.93,4.074 93.0,3.913 C 74.58,4.055 56.05,3.503 37.56,4.489 C 27.67,6.558 19.13,13.07 14.05,21.74 C 9.536,29.08 6.374,37.27 4.190,45.59 C 2.333,48.78 5.892,53.36 7.394,48.33 C 9.762,42.21 14.4,36.70 21.1,35.28 C 25.91,34.19 31.76,32.452 36.26,34.29 C 30.47,39.64 21.98,41.50 16.93,47.87 C 8.397,56.7 3.67,68.82 3.867,81.09 z M 24.31,48.69 C 25.95,52.67 23.41,57.71 23.79,62.15 C 23.09,74.36 28.0,87.83 39.36,93.76 C 51.57,100.3 66.21,99.9 79.57,97.94 C 85.08,97.2 90,94.90 95.63,93.82 C 95.84,99.20 87.03,100.4 82.80,101.9 C 70.32,104.4 57.04,104 44.76,101.1 C 32.34,97.62 22.46,86.65 20.77,73.76 C 19.73,65.68 19.62,56.85 23.37,49.4 L 23.86,48.87 L 24.31,48.69 L 24.31,48.69 z M 27.6,63.23 C 27.32,53.64 30.00,42.58 38.95,37.50 C 45.6,33.74 53.56,33.34 61.0,32.85 C 63.82,32.60 73.88,32.5 66.86,35.66 C 59.0,39.15 50.68,41.46 42.0,41.7 C 38.37,41.07 33.19,43.1 38.17,46.45 C 41.34,50.04 39.77,55.11 40.15,59.46 C 40.15,67.20 40.15,74.94 40.15,82.68 C 36.77,89.66 30.03,80.13 29.56,75.58 C 28.31,71.59 27.74,67.41 27.6,63.23 z M 67.36,46.53 C 67.22,54.59 67.67,62.69 67.09,70.72 C 67.66,74.37 59.90,81 59.37,76.4 C 62.79,72.97 62.64,68.10 62.47,63.63 C 62.65,57.32 62.05,50.94 62.89,44.68 C 63.39,39.57 68.88,39.91 67.36,44.73 C 67.36,45.33 67.36,45.93 67.36,46.53 z M 75.29,9.094 C 83.47,9.152 91.66,8.978 99.84,9.185 C 102.2,14.08 91.48,13.1 88.04,13.7 C 69.87,14.16 51.70,13.9 33.53,13.99 C 30.6,9.801 40.53,8.886 43.67,9.369 C 54.20,9.111 64.75,9.110 75.29,9.094 z"
        /></g></svg>
