<?xml version="1.0" encoding="UTF-8" standalone="no"?>
<svg xmlns:dc="http://purl.org/dc/elements/1.1/"
                xmlns:cc="http://creativecommons.org/ns#"
                xmlns:rdf="http://www.w3.org/1999/02/22-rdf-syntax-ns#"
                xmlns:svg="http://www.w3.org/2000/svg"
                xmlns="http://www.w3.org/2000/svg"
                width="128"
                height="157"
                version="1.1" >
  <metadata>
    <rdf:RDF>
      <cc:Work rdf:about="">
        <dc:format>image/svg+xml</dc:format>
        <dc:type rdf:resource="http://purl.org/dc/dcmitype/StillImage"/>
        <cc:license rdf:resource=""/>
        <dc:title/>
        <dc:creator>
          <cc:Agent>
            <dc:title>(Drawshield internal)</dc:title>
          </cc:Agent>
        </dc:creator>
      </cc:Work>
    </rdf:RDF>
  </metadata>
<g  style="fill:#ffff00;fill-opacity:1;fill-rule:evenodd;stroke:#000000;stroke-width:3;stroke-linecap:butt;stroke-linejoin:miter;stroke-miterlimit:4;stroke-opacity:1;stroke-dasharray:none" id="body"><path stroke="#000000" stroke-width="2"
       d="M 86.52,139.1 C 84.67,148.3 93.87,157.2 102.6,151.5 C 115.0,144 104.7,131.9 98.29,125.2 C 94.20,112.2 110.7,105 115.1,94.93 C 124.8,75.19 117.6,49.38 99.55,37.03 C 95.4,31.93 91.12,36.34 87.31,39.00 C 78.94,44.67 70.69,50.58 62.15,55.91 C 57.08,57.78 56.84,50.61 57.1,47.31 C 57.67,37.17 55.54,26.44 59.73,16.89 C 72.0,13.63 74.21,34.60 83.78,32.73 C 89.84,27.16 103.2,22.79 103.1,15.02 C 98.57,11.00 92.63,12.65 91.05,15.88 C 84.3,13.61 78.75,6.571 70.83,7.551 C 55.12,7.773 43.66,20.93 28.41,22.79 C 20.28,23.00 18.40,28.54 25.59,32.53 C 29.18,48.82 27.53,65.69 27.91,82.27 C 26.07,93.41 14.55,98.4 6.649,104.6 C 11.97,111.3 24.34,111.2 31.44,117.1 C 40.42,120.8 51.33,134.9 60.40,124.0 C 70.18,116.3 79.2,107.8 88.25,99.25 C 83.4,93.84 75.27,110.1 67.90,102.3 C 57.90,98.13 47.81,93.67 38.71,87.74 C 46.73,81.77 57.36,77.52 59.35,65.76 C 64.3,54.89 79.28,60.36 84.39,68.35 C 94.66,81.28 97.14,98.98 93.07,114.7 C 92.37,123.2 86.57,130.5 86.52,139.1 z M 94.72,130.2 C 100.3,128.4 107.8,145.2 102.2,144.0 C 99.91,139.3 97.62,134.5 94.72,130.2 z M 30.21,92.34 C 32.70,88.02 38.04,93.00 41.45,94.22 C 49.23,98.11 57.00,101.9 64.78,105.8 C 69.90,113.0 54.68,105.4 51.9,104.5 C 44.87,100.9 34.78,99.24 30.21,92.34 z M 92.42,41.08 C 103.6,38.09 109.,54.27 113.0,62.54 C 116.5,68.76 117.0,83.23 113.3,85.36 C 112.5,69.82 108.5,52.4 94.5,43.37 L 93.47,42 L 92.42,41.08 L 92.42,41.08 z M 49.22,66.4 C 49.22,52.41 49.22,38 49.22,24.38 C 55.37,17.99 51.0,34.97 52.39,38.78 C 52.35,51.19 52.76,63.67 51.09,76.0 C 45.,79.23 49.85,68.3 49.22,66.4 z"
        /></g></svg>
