<?xml version="1.0" encoding="UTF-8" standalone="no"?>
<svg xmlns:dc="http://purl.org/dc/elements/1.1/"
                xmlns:cc="http://creativecommons.org/ns#"
                xmlns:rdf="http://www.w3.org/1999/02/22-rdf-syntax-ns#"
                xmlns:svg="http://www.w3.org/2000/svg"
                xmlns="http://www.w3.org/2000/svg"
                width="136"
                height="132"
                version="1.1" >
  <metadata>
    <rdf:RDF>
      <cc:Work rdf:about="">
        <dc:format>image/svg+xml</dc:format>
        <dc:type rdf:resource="http://purl.org/dc/dcmitype/StillImage"/>
        <cc:license rdf:resource=""/>
        <dc:title/>
        <dc:creator>
          <cc:Agent>
            <dc:title>(Drawshield internal)</dc:title>
          </cc:Agent>
        </dc:creator>
      </cc:Work>
    </rdf:RDF>
  </metadata>
<g  style="fill:#ffff00;fill-opacity:1;fill-rule:evenodd;stroke:#000000;stroke-width:3;stroke-linecap:butt;stroke-linejoin:miter;stroke-miterlimit:4;stroke-opacity:1;stroke-dasharray:none" id="body"><path stroke="#000000" stroke-width="2"
       d="M 4.012,121.5 C 3.978,124.7 3.030,128.8 8.098,126.8 C 21.04,126.8 33.96,125 46.92,125.8 C 51.67,115.1 56.42,104.4 61.17,93.78 C 62.76,90.66 65.26,86.47 66.918,92.15 C 69.74,99.00 72.3,106 77.52,111.6 C 83.36,118.6 91.47,123.3 99.76,126.7 C 106.3,123.9 109.5,116.1 114.8,111 C 118.8,105.8 125.5,101.6 127.7,95.08 C 122.1,95.29 117.4,100.6 111.6,98.30 C 103,95.10 97.77,86.44 97.17,77.80 C 99.57,74.64 104.9,76.68 108.554,76.0 C 114.3,74.92 115.8,67.74 118.7,63.37 C 122.8,59.13 119.9,53.67 114.2,55.13 C 106.4,55.53 98.55,55.94 90.69,56.34 C 84.00,48.30 90.43,35.61 99.94,33.62 C 106.3,31.03 109.0,38.88 113.2,40.96 C 116.5,36.08 118.9,30.22 122.0,25.09 C 125.0,19.04 129.8,13.89 131.9,7.511 C 131,4.703 126.9,10.80 124.3,7.386 C 117.6,4.850 108.9,2.722 103.2,8.503 C 93.96,17.43 92.75,31 86.52,41.80 C 84.82,34.29 80.92,27.37 76.97,20.81 C 71.92,14 65.13,10.57 58.03,7.612 C 54.56,6.881 49.46,4.940 46.8,8.236 C 39.43,16.32 32.21,24.72 26,33.89 C 27.71,36.74 33.99,28.57 38.3,30.7 C 47.83,31.96 53.45,41.59 55.81,49.99 C 57.11,53.92 58.06,58.89 52.61,57.35 C 48.79,57.35 44.97,57.35 41.1,57.35 C 37.14,63.85 30.32,69.36 29.93,77.51 C 40.34,77.51 50.76,77.51 61.17,77.51 C 65.08,82.13 61.81,89.58 57.09,92.56 C 52.05,96.53 45.07,95.01 39.13,96.29 C 32.24,96.94 25.33,97.70 18.40,97.23 C 13.75,103.0 11.73,110.8 7.23,117.0 C 6.234,118.6 5.160,120.1 4.012,121.5 z M 17.54,104.2 C 19.53,99.48 26.7,102.4 30.92,100.8 C 38.75,100.7 46.73,100.5 54.12,97.59 C 60.23,99.48 48.83,105.6 44.87,105.4 C 36.54,106.8 27.73,108.6 19.41,106.3 C 18.5,106.0 17.49,105.4 17.54,104.2 z M 101.4,102.5 C 95.61,95.18 87.46,87.56 88.05,77.33 C 93.48,73.21 93.49,84.90 96.24,87.88 C 98.58,95.2 105.4,100.0 112.7,101.4 C 115.8,101.1 120.2,103.4 115.1,104.9 C 110.5,105.4 105.4,105.4 101.4,102.5 z M 41.1,63.68 C 41.80,59.7 46.08,60.1 49.07,60.23 C 52.13,60.43 55.45,59.81 58.35,60.55 C 62.02,64.07 56.9,64.84 54.32,64.40 C 50.18,64.40 46.03,64.40 41.88,64.40 L 41.37,64.11 L 41.1,63.68 L 41.1,63.68 z M 49.3,13.29 C 50.0,5.79 59.27,10.78 62.85,13.41 C 73.97,19.50 80.30,31.35 83.06,43.34 C 85.24,48.14 84.89,55.83 88.81,58.93 C 98.17,58.93 107,58.93 116.908,58.93 C 117.4,63.50 113.5,65.15 109,64.40 C 101.4,64.40 93.02,64.40 84.65,64.40 C 79.65,52.57 77.08,39.56 70.34,28.44 C 64.83,21.57 57.3,16.77 49.3,13.29 z M 115.3,8.10 C 119.4,6.272 128.8,14.57 121,14.35 C 118.0,9.963 109.3,10.86 106.5,10.99 C 108.3,8.68 112.3,7.814 115.3,8.10 z"
        /></g></svg>
