<?xml version="1.0" encoding="UTF-8" standalone="no"?>
<svg xmlns:dc="http://purl.org/dc/elements/1.1/"
                xmlns:cc="http://creativecommons.org/ns#"
                xmlns:rdf="http://www.w3.org/1999/02/22-rdf-syntax-ns#"
                xmlns:svg="http://www.w3.org/2000/svg"
                xmlns="http://www.w3.org/2000/svg"
                width="136"
                height="124"
                version="1.1" >
  <metadata>
    <rdf:RDF>
      <cc:Work rdf:about="">
        <dc:format>image/svg+xml</dc:format>
        <dc:type rdf:resource="http://purl.org/dc/dcmitype/StillImage"/>
        <cc:license rdf:resource=""/>
        <dc:title/>
        <dc:creator>
          <cc:Agent>
            <dc:title>(Drawshield internal)</dc:title>
          </cc:Agent>
        </dc:creator>
      </cc:Work>
    </rdf:RDF>
  </metadata>
<g  style="fill:#ffff00;fill-opacity:1;fill-rule:evenodd;stroke:#000000;stroke-width:3;stroke-linecap:butt;stroke-linejoin:miter;stroke-miterlimit:4;stroke-opacity:1;stroke-dasharray:none" id="body"><path stroke="#000000" stroke-width="2"
       d="M 5.162,94.24 C 7.066,98 14.10,100.1 17.38,104.4 C 25.96,111.4 34.18,119.2 44.14,124.2 C 50.33,125.2 54.12,117.8 58.67,114.7 C 65.52,108.4 71.58,101.0 79.70,96.43 C 82.41,97.0 80.94,104.6 83.2,107 C 85.92,114.7 92.04,119.5 97.82,123.8 C 101.6,124.6 103.6,120.5 106.4,118.6 C 112.5,113.0 118,107.4 124.6,101.8 C 126.2,96.62 120.9,98.45 117.6,96.68 C 113.1,94.92 112.5,89.99 112.8,85.81 C 112.9,62.29 112.7,38.75 112.9,15.23 C 113.4,10.90 125.2,9.448 119.9,5.228 C 108.3,4.015 98.81,11.77 88.62,15.8 C 84.1,18.00 79.27,19.44 74.27,19.50 C 71.27,23.65 80.62,26.86 79.97,32.10 C 81.59,40.02 80.65,48.18 80.90,56.22 C 80.90,67.55 80.90,78.8 80.90,90.20 C 76.29,93.05 72.00,100.5 66.56,99.51 C 58.40,94.52 51.01,88.2 44.29,81.4 C 46.594,77.39 54.24,75.44 58.10,71.5 C 68.15,64.42 75.98,52.4 74.07,39.72 C 72.12,18.4 49.94,2.102 29.08,5.596 C 23.53,7.982 20.66,13.9 16.72,18.25 C 12.54,24.06 7.366,29.60 5.162,36.49 C 13.87,36.16 22.9,34 31.29,37.59 C 43.03,41.46 51.19,55.02 47.22,67 C 43.17,76.56 33.25,81.71 24.27,85.69 C 18.04,88.2 11.66,90.35 5.307,92.51 L 5.162,93.51 L 5.162,94.24 L 5.162,94.24 z M 35.4,85.31 C 38.85,79.82 45.15,88.09 48.84,90.31 C 53.41,94.30 58.18,98.14 62.18,102.7 C 60.37,109.2 52.58,100.1 48.99,98.16 C 44.41,94.4 39.64,90.81 35.81,86.28 L 35.40,85.31 L 35.4,85.31 z M 105.3,92.51 C 103.9,68.20 104.4,43.84 104,19.50 C 105.8,15.07 109,15.39 108.2,19.9 C 108.2,42.28 108.2,64.60 108.2,86.9 C 107.4,93.48 115,97.75 115.0,103.1 C 109.2,105.2 105.7,97.06 105.3,92.51 z M 66.93,44.12 C 66.98,28.73 53.17,16.66 38.92,13.74 C 34.54,13.51 28.12,9.533 36.16,10.34 C 44.08,10.48 51.90,13.27 57.70,18.76 C 63.79,23.29 70.00,29.04 70.66,37.11 C 71.81,45.40 70.88,54.99 64.92,61.38 C 57.20,65.65 66.6,52.2 66.88,48.55 C 66.99,47.08 66.91,45.60 66.93,44.12 z"
        /></g></svg>
