<?xml version="1.0" encoding="UTF-8" standalone="no"?>
<svg xmlns:dc="http://purl.org/dc/elements/1.1/"
                xmlns:cc="http://creativecommons.org/ns#"
                xmlns:rdf="http://www.w3.org/1999/02/22-rdf-syntax-ns#"
                xmlns:svg="http://www.w3.org/2000/svg"
                xmlns="http://www.w3.org/2000/svg"
                width="114"
                height="138"
                version="1.1" >
  <metadata>
    <rdf:RDF>
      <cc:Work rdf:about="">
        <dc:format>image/svg+xml</dc:format>
        <dc:type rdf:resource="http://purl.org/dc/dcmitype/StillImage"/>
        <cc:license rdf:resource=""/>
        <dc:title/>
        <dc:creator>
          <cc:Agent>
            <dc:title>(Drawshield internal)</dc:title>
          </cc:Agent>
        </dc:creator>
      </cc:Work>
    </rdf:RDF>
  </metadata>
<g  style="fill:#ffff00;fill-opacity:1;fill-rule:evenodd;stroke:#000000;stroke-width:3;stroke-linecap:butt;stroke-linejoin:miter;stroke-miterlimit:4;stroke-opacity:1;stroke-dasharray:none" id="body"><path stroke="#000000" stroke-width="2"
       d="M 19.0,122.0 C 26.29,121.596 32.49,126.0 39.01,128.458 C 46.27,131.4 53.36,135.2 61.13,136.5 C 67.57,134 72.14,128.7 77.30,124.6 C 87.60,114.4 100.5,106.3 107.5,93.39 C 114.1,77.96 110.5,58.68 98.30,47.08 C 92.6,41.05 86.13,33.43 88.12,24.50 C 89.51,18.50 100,13.54 94.70,7.016 C 88.71,3.830 83.67,11.8 77.55,11.31 C 70.43,11.35 64.4,6.846 57.61,5.443 C 51.89,3.420 45.38,1.526 39.4,3.055 C 30.25,12.19 21.07,21.32 11.89,30.46 C 10.49,36.13 15.08,34.80 17.0,31.11 C 22.6,25.70 31.37,28.03 37,30.29 C 45.56,32.73 53.1,37.17 61.42,36.34 C 68.44,32.73 72.98,25.79 78.34,20.21 C 81.36,16.41 85.5,13.92 89.36,11.02 C 92.79,10.59 92.02,11.83 89.88,13.62 C 84.24,19.52 78.59,25.42 72.9,31.32 C 70.19,35.78 65.66,39.68 63.94,44.93 C 61.56,57.47 68.60,69.27 75.54,79.12 C 80.17,85.47 84.92,91.7 89.41,98.17 C 93.96,103.1 90.02,111.9 83.02,110.3 C 77.47,109.0 71.73,108.3 66.61,105.6 C 56.98,101.7 47.42,97.41 37,93.67 C 33.80,94.48 32.18,99.31 28.90,101.5 C 20.9,109.1 11.4,115.7 6.27,125.6 C 10.83,125.6 14.47,121 19.0,122.0 z M 35.50,101.1 C 36.96,97.01 41.80,98.4 44.73,99.9 C 54.89,104.0 64.96,108.3 75.1,112.2 C 77.53,112.7 79,113.1 82.23,113.7 C 80.55,118.1 73.44,116.0 69.71,115.1 C 60.07,111.6 50.28,108.5 40.74,104.7 C 38.83,103.8 36.68,103 35.50,101.1 z M 81.15,33.34 C 80.32,28.75 85.14,27.6 84.87,32.78 C 86.74,41.67 94.06,47.92 99.29,54.94 C 104.7,61.50 108.3,69.84 107.4,78.4 C 106.7,82.37 107.2,87.4 104.0,90.22 C 105.6,80.0 101.7,70.05 95.87,61.93 C 90.5,54 83.99,46.45 81.45,37.08 C 81.24,35.85 81.15,34.59 81.15,33.34 z M 40.40,7.711 C 46.14,4.23 53.6,7.682 59.62,9.517 C 64.76,12.02 72.11,13.61 76.09,16.26 C 71.51,18.53 65.98,16.08 61.29,14.89 C 54.7,12.81 48.0,11.08 41.62,8.863 L 40.99,8.359 L 40.40,7.711 L 40.40,7.711 z"
        /></g></svg>
