<?xml version="1.0" encoding="UTF-8" standalone="no"?>
<svg xmlns:dc="http://purl.org/dc/elements/1.1/"
                xmlns:cc="http://creativecommons.org/ns#"
                xmlns:rdf="http://www.w3.org/1999/02/22-rdf-syntax-ns#"
                xmlns:svg="http://www.w3.org/2000/svg"
                xmlns="http://www.w3.org/2000/svg"
                width="117"
                height="147"
                version="1.1" >
  <metadata>
    <rdf:RDF>
      <cc:Work rdf:about="">
        <dc:format>image/svg+xml</dc:format>
        <dc:type rdf:resource="http://purl.org/dc/dcmitype/StillImage"/>
        <cc:license rdf:resource=""/>
        <dc:title/>
        <dc:creator>
          <cc:Agent>
            <dc:title>(Drawshield internal)</dc:title>
          </cc:Agent>
        </dc:creator>
      </cc:Work>
    </rdf:RDF>
  </metadata>
<g  style="fill:#ffff00;fill-opacity:1;fill-rule:evenodd;stroke:#000000;stroke-width:3;stroke-linecap:butt;stroke-linejoin:miter;stroke-miterlimit:4;stroke-opacity:1;stroke-dasharray:none" id="body"><path stroke="#000000" stroke-width="2"
       d="M 5.739,104.3 C 5.070,117 14.69,129.8 26.56,135.3 C 39.55,141.3 54.4,143.4 68.64,141.4 C 95.1,136.8 116.0,109.9 112.2,83.06 C 109.9,69.34 99.89,58.39 88.96,50.50 C 82.08,46.74 74.25,45.25 67.08,42.29 C 68.41,39.6 71.20,37.75 73.12,35.40 C 82.39,25.70 91.65,16.00 100,6.299 C 97.95,3.877 90.44,6.027 85.78,5.360 C 68.22,5.725 50.6,5.583 33.09,6.873 C 30.12,7.673 28.49,11.31 26.55,13.57 C 21.67,20.96 16.99,28.4 11.87,35.69 C 9.218,37.73 9.576,46.49 13.53,41.36 C 16.04,35.75 22.11,35.48 27.41,34.52 C 38.26,32.17 49.44,32.73 60.46,33.0 C 63.79,34.32 70.72,34.04 65.02,38.42 C 57.40,46.36 48.27,52.73 40.15,60.17 C 38.24,63.22 28.24,67.12 32.80,70.23 C 38.87,70.05 44.69,67.11 50.85,68.49 C 69.96,70.86 85.42,90.30 82.11,109 C 80.69,121.9 72.65,134.7 59.79,137 C 45.85,140.9 30.50,132.4 25.62,119.0 C 20.40,106.0 25.61,88.9 38.35,82.34 C 48.03,77.88 62.55,83.73 63.17,95.26 C 64.30,102.5 57.71,109.0 50.4,107.9 C 42.74,108.8 44.66,93.97 37.48,97.43 C 30.45,104.6 31.43,118.2 40.17,123.7 C 49.50,130.1 63.81,127.6 69.52,117.5 C 76.3,106.9 73.45,92.09 64.05,83.9 C 56.16,76.53 44.59,74.2 34.16,76.52 C 21.92,78.44 8.86,86.19 6.215,99.13 C 5.883,100.8 5.739,102.6 5.739,104.3 z M 16.82,106.0 C 16.85,97.18 19.68,86.24 28.78,82.61 C 27.27,88.83 22.46,93.99 21.77,100.7 C 19.58,109 22.21,119.7 26.47,127.9 C 21.24,126.7 18.86,120.0 17.76,115.2 C 17.1,112.2 16.82,109.1 16.82,106.0 z M 40.29,107.3 C 41.68,105.4 46.88,112.9 51.02,111.9 C 58.6,112.7 63.87,106.0 67.47,100.3 C 71.42,97.93 67.64,108.3 65.61,110.4 C 60.09,118.3 46.79,118.1 41.1,110.6 C 40.53,109.6 40.29,108.505 40.29,107.3 z M 104.2,95.86 C 104.6,81.12 97.20,66.2 84.34,58.74 C 77.99,54.52 70.52,52.78 63.15,51.37 C 56.93,51.57 58.40,45.17 63.76,46.32 C 87.22,46.5 108.3,67.44 109.4,90.75 C 109.0,99.05 106.4,107.4 102.022,114.4 C 97.9,118.9 101.6,108.4 102.2,106 C 103.2,103.0 104.3,99.55 104.2,95.86 z M 31.80,12.92 C 32.84,9.175 37.65,10.85 40.6,10.47 C 56.31,10.53 72.04,10.35 87.72,10.56 C 93.62,11.90 82.33,14.16 80.35,14.28 C 66.27,15.44 52.11,14.74 37.99,14.93 C 35.96,14.62 32.1,16.00 31.80,12.92 z"
        /></g></svg>
