<?xml version="1.0" encoding="UTF-8" standalone="no"?>
<svg xmlns:dc="http://purl.org/dc/elements/1.1/"
                xmlns:cc="http://creativecommons.org/ns#"
                xmlns:rdf="http://www.w3.org/1999/02/22-rdf-syntax-ns#"
                xmlns:svg="http://www.w3.org/2000/svg"
                xmlns="http://www.w3.org/2000/svg"
                width="119"
                height="131"
                version="1.1" >
  <metadata>
    <rdf:RDF>
      <cc:Work rdf:about="">
        <dc:format>image/svg+xml</dc:format>
        <dc:type rdf:resource="http://purl.org/dc/dcmitype/StillImage"/>
        <cc:license rdf:resource=""/>
        <dc:title/>
        <dc:creator>
          <cc:Agent>
            <dc:title>(Drawshield internal)</dc:title>
          </cc:Agent>
        </dc:creator>
      </cc:Work>
    </rdf:RDF>
  </metadata>
<g  style="fill:#ffff00;fill-opacity:1;fill-rule:evenodd;stroke:#000000;stroke-width:3;stroke-linecap:butt;stroke-linejoin:miter;stroke-miterlimit:4;stroke-opacity:1;stroke-dasharray:none" id="body"><path stroke="#000000" stroke-width="2"
       d="M 104.8,89.1 C 104.0,94.04 97.98,95.92 93.63,95.96 C 72.03,96.1 50.42,96.34 28.8,96.53 C 24.23,100.0 21.29,105.3 17.08,109.3 C 13.00,114.2 8.234,118.8 4.629,123.9 C 4.028,126.5 5.015,127.5 7.606,126.9 C 28.03,126.8 48.47,126.9 68.89,126.8 C 72.72,127.0 74.81,124.0 77.18,121.4 C 84.95,113.0 93.59,105.5 102.8,98.72 C 110.3,92.6 117.0,83.95 116.5,73.78 C 116.7,67.29 113.5,61.17 110.3,55.74 C 105.0,47.58 94.92,46.15 86.13,44.68 C 70.41,44.52 54.61,44.92 38.97,43.32 C 32.69,43.16 30.82,34.77 36.51,31.98 C 44.91,27.06 54.98,30.72 63.64,32.97 C 69.40,34.42 75.15,36.90 81.08,37.0 C 90.11,28.37 99.13,19.68 108.1,10.99 C 111.5,4.836 104.1,9.100 101.7,10.56 C 96.26,14.04 89.47,11.10 83.7,9.604 C 74.82,6.843 64.52,2.268 55.57,7.558 C 42.00,15.37 31.99,28.20 24.49,41.71 C 20.74,48.5 18.24,56.42 20.33,64.16 C 22.37,74.75 32.42,81.81 42.65,83.21 C 56,85.82 70.20,82.7 83.9,83.22 C 90.54,83.34 97.76,82.90 103.5,86.45 C 104.3,87.11 104.8,88.13 104.8,89.1 z M 26.51,104.5 C 27.79,101.4 30.76,100.2 33.94,100.8 C 53.40,100.8 72.86,100.8 92.32,100.8 C 89.41,104.6 82.35,105 77.39,105.4 C 61.13,105.4 44.84,105.8 28.60,105.8 C 27.87,105.6 26.47,105.7 26.51,104.5 z M 70.14,52.89 C 58.76,52.77 46.95,56.11 35.90,52.01 C 31.26,51.79 29.69,42.84 35.47,46.63 C 46.82,49.10 58.54,47.87 70.07,48.4 C 81.93,48.98 95.19,47.77 105.2,55.39 C 109.0,58.24 112.3,62.2 111.4,67.2 C 107.6,62.45 104.0,56.45 97.07,55.4 C 88.36,52.75 79.15,52.93 70.14,52.89 z M 61.07,10.13 C 64.05,6.614 68.55,9.585 72.15,10.27 C 79.62,12.53 87.28,14.29 94.62,16.89 C 92.55,21.18 85.31,17.57 81.52,17.2 C 74.72,15.48 67.47,14.38 61.46,10.57 L 61.07,10.13 L 61.07,10.13 z"
        /></g></svg>
