<?xml version="1.0" encoding="UTF-8" standalone="no"?>
<svg xmlns:dc="http://purl.org/dc/elements/1.1/"
                xmlns:cc="http://creativecommons.org/ns#"
                xmlns:rdf="http://www.w3.org/1999/02/22-rdf-syntax-ns#"
                xmlns:svg="http://www.w3.org/2000/svg"
                xmlns="http://www.w3.org/2000/svg"
                width="140"
                height="150"
                version="1.1" >
  <metadata>
    <rdf:RDF>
      <cc:Work rdf:about="">
        <dc:format>image/svg+xml</dc:format>
        <dc:type rdf:resource="http://purl.org/dc/dcmitype/StillImage"/>
        <cc:license rdf:resource=""/>
        <dc:title/>
        <dc:creator>
          <cc:Agent>
            <dc:title>(Drawshield internal)</dc:title>
          </cc:Agent>
        </dc:creator>
      </cc:Work>
    </rdf:RDF>
  </metadata>
<g  style="fill:#ffff00;fill-opacity:1;fill-rule:evenodd;stroke:#000000;stroke-width:3;stroke-linecap:butt;stroke-linejoin:miter;stroke-miterlimit:4;stroke-opacity:1;stroke-dasharray:none" id="body"><path stroke="#000000" stroke-width="2"
       d="M 77.84,123.8 C 81.05,129.062 83.62,135.0 88.81,138.7 C 95.76,144.6 105.1,146.3 113.9,145.9 C 119.6,140.1 122.0,131.9 127.4,125.9 C 129.7,123.7 133.1,116.7 127.2,117.9 C 118.9,118.2 110.2,120.4 102.1,117.5 C 99.70,113 109.4,112.8 111.0,109.1 C 124.3,97.53 134.1,80.90 134.1,62.88 C 134.5,43.82 128.2,24.24 114.8,10.40 C 111.4,5.611 104.0,-0.7956 98.88,5.671 C 93.78,10.43 90.42,16.73 85.33,21.49 C 82.84,20.51 84.52,17.29 84.03,15.2 C 84.03,11.42 84.03,7.603 84.03,3.782 C 62.34,-0.04615 40.16,8.873 23.60,22.59 C 9.770,34.04 4.539,52.79 5.651,70.19 C 6.446,91.90 22.44,110.7 42.15,118.5 C 53.37,123.2 65.74,125.0 77.84,123.8 z M 79.57,104.5 C 88.19,104.6 89.64,115.6 96.78,118 C 103.9,122.9 112.6,123.3 120.7,123.8 C 122.6,129 112.7,128.2 109.2,128.0 C 98.54,127.9 91.14,119.2 85.49,111 C 83.65,108.8 81.6,106.6 79.57,104.5 z M 64.16,112 C 63.87,103.9 74.2,107.3 75.25,113.2 C 79.98,120.9 67.98,121.6 65.17,116.2 C 64.42,115.0 64.16,113.6 64.16,112 z M 47.45,101.2 C 51.40,95.95 59.5,95.54 65.16,92.29 C 74.83,88.40 85.64,80.78 85.33,69.16 C 85.44,56.07 84.38,43.00 84.68,29.92 C 90.06,28.32 92.63,38.58 95.35,42.89 C 102.6,57.41 104.7,74.35 101.4,90.25 C 100.0,97.02 99.36,104.5 94.90,110.0 C 89.44,110.2 86.25,101.6 80.13,100.5 C 73.61,98.17 65.69,100.6 60.99,105.5 C 60.08,109.0 60.77,112 60.55,116.6 C 54.44,114.3 49.98,108.0 47.55,102 L 47.45,101.2 L 47.45,101.2 z M 34.21,89.46 C 31.85,76.34 29.00,62.89 31.89,49.60 C 33.8,38.89 35.03,27.4 40.85,17.97 C 47.17,14.02 40.23,25.66 39.97,29.12 C 39.35,35.28 36.90,41.17 37.52,47.42 C 37.58,58.79 37.40,70.19 37.61,81.54 C 39.70,90.00 40.67,99.06 45.95,106.3 C 48.30,109.2 49.07,113.7 45.08,108.9 C 39.22,103.981 36.47,96.59 34.21,89.46 z M 40.8,76.93 C 40.93,65.74 40.63,54.51 40.98,43.34 C 42.63,35.96 43.26,28.29 46.42,21.34 C 46.47,17.88 52.67,11.84 51.99,18.6 C 52.83,37.16 53.80,55.64 53.50,74 C 53.50,79.49 53.50,84.84 53.50,90.18 C 52.41,94.77 43.98,99.55 43.71,92.23 C 42.75,87.13 41.79,82.03 40.8,76.93 z M 118.8,93.64 C 125.6,81.93 128.2,68.04 126.1,54.67 C 124.4,41.75 118.7,29.70 111.0,19.3 C 109.1,16.0 99.83,10.22 105.5,7.628 C 112.2,10.9 115.2,18.41 119.7,24.00 C 127.7,35.78 131.1,50.18 130.2,64.33 C 129.9,71.26 128.1,78.19 125.6,84.62 C 124,86.57 121.0,96.66 118.8,93.64 z M 76.9,71.03 C 77.69,50.0 76.04,29.02 76.11,8.032 C 80.91,1.907 80.7,12.20 80.55,15.68 C 80.9,33.76 82.08,51.84 81.94,69.93 C 82.2,74.29 78.65,83.69 74.38,81.25 C 74.74,77.74 76.08,74.43 76.9,71.03 z"
        /></g></svg>
